<svg width="250" height="250" viewBox="0 0 250 250" fill="none" xmlns="http://www.w3.org/2000/svg">
<rect width="249.86" height="249.86" rx="124.93" fill="#1A172F"/>
<rect width="249.86" height="249.86" rx="124.93" fill="url(#paint0_linear_145_1529)" fill-opacity="0.45"/>
<g filter="url(#filter0_i_145_1529)">
<path d="M124.863 6.62994C190.162 6.62994 243.097 59.5648 243.098 124.863C243.098 190.162 190.162 243.098 124.863 243.098C59.5647 243.098 6.62988 190.162 6.62988 124.863C6.63008 59.5649 59.5649 6.63015 124.863 6.62994ZM126.454 212.441L119.326 221.518L119.06 221.523L118.892 212.584L114.604 212.664L114.986 232.938L119.272 232.857L119.164 227.096L121.225 224.482L126.935 232.713L132.062 232.617L124.239 221.564L131.592 212.345L126.454 212.441ZM100.438 208.658C98.709 208.229 97.0535 208.239 95.4727 208.69C93.8933 209.134 92.5122 210.009 91.3311 211.314C90.1501 212.618 89.2928 214.345 88.7598 216.49C88.2284 218.629 88.1735 220.551 88.5938 222.253C89.0205 223.957 89.824 225.378 91.0039 226.515C92.1902 227.653 93.661 228.44 95.416 228.876C96.6779 229.19 97.8561 229.281 98.9492 229.151C100.05 229.017 101.044 228.713 101.93 228.239C102.824 227.761 103.59 227.159 104.226 226.433C104.87 225.702 105.358 224.898 105.691 224.022L101.487 222.957C101.261 223.458 100.972 223.883 100.62 224.231C100.275 224.58 99.8806 224.853 99.4375 225.049C98.9959 225.238 98.5161 225.347 97.999 225.375C97.4885 225.405 96.9546 225.35 96.3975 225.212C95.4047 224.965 94.591 224.505 93.9561 223.83C93.3212 223.156 92.9103 222.288 92.7246 221.229C92.5455 220.171 92.6301 218.941 92.9785 217.538C93.3174 216.174 93.8135 215.066 94.4668 214.215C95.1218 213.358 95.8896 212.772 96.7695 212.46C97.6511 212.142 98.6017 212.109 99.6201 212.362C100.184 212.502 100.686 212.713 101.127 212.992C101.574 213.273 101.946 213.611 102.242 214.004C102.539 214.397 102.752 214.838 102.883 215.326C103.015 215.808 103.052 216.33 102.993 216.894L107.202 217.94C107.351 216.766 107.295 215.677 107.034 214.674C106.78 213.672 106.35 212.773 105.745 211.977C105.142 211.174 104.391 210.491 103.49 209.927C102.596 209.365 101.579 208.942 100.438 208.658ZM155.517 207.265L157.623 228.612L161.797 226.694L161.232 221.864L167.885 218.807L171.181 222.382L175.355 220.464L160.537 204.957L155.517 207.265ZM165.501 216.22L160.824 218.368L159.89 210.355L160.033 210.288L165.501 216.22ZM73.8096 197.305C72.1632 197.299 70.5935 197.763 69.1016 198.696C67.6099 199.63 66.3152 201.056 65.2178 202.976C64.1235 204.889 63.5519 206.727 63.5039 208.486C63.456 210.245 63.8507 211.836 64.6875 213.257C65.5246 214.678 66.7258 215.837 68.29 216.732C69.8428 217.619 71.4425 218.066 73.0889 218.072C74.7443 218.076 76.3186 217.612 77.8105 216.678C79.3082 215.747 80.6056 214.322 81.7031 212.402C82.8007 210.483 83.3708 208.642 83.4131 206.879C83.461 205.12 83.0619 203.53 82.2158 202.111C81.3788 200.69 80.1834 199.535 78.6309 198.648C77.0666 197.753 75.4592 197.305 73.8096 197.305ZM74.0146 201.254C74.9373 201.196 75.8485 201.425 76.748 201.94C77.6475 202.454 78.3065 203.123 78.7246 203.947C79.1427 204.772 79.2913 205.716 79.1699 206.779C79.0542 207.846 78.6406 209.002 77.9297 210.245C77.2187 211.488 76.4328 212.431 75.5723 213.071C74.7175 213.715 73.8288 214.066 72.9062 214.124C71.9837 214.182 71.0723 213.954 70.1729 213.44C69.2733 212.925 68.6134 212.255 68.1953 211.431C67.7774 210.606 67.6265 209.66 67.7422 208.594C67.8637 207.53 68.2803 206.377 68.9912 205.134C69.7022 203.89 70.4849 202.946 71.3398 202.302C72.2003 201.661 73.0921 201.312 74.0146 201.254ZM179.989 192.937L188.186 202.771C188.68 203.364 188.987 204.002 189.108 204.683C189.234 205.36 189.169 206.029 188.912 206.69C188.66 207.346 188.215 207.94 187.576 208.473C186.942 209.001 186.277 209.332 185.581 209.466C184.885 209.599 184.212 209.545 183.563 209.304C182.921 209.058 182.352 208.638 181.857 208.045L173.661 198.21L170.368 200.955L178.799 211.07C179.745 212.206 180.843 212.976 182.09 213.38C183.337 213.784 184.644 213.821 186.01 213.49C187.371 213.155 188.698 212.449 189.991 211.371C191.279 210.298 192.211 209.121 192.786 207.843C193.357 206.559 193.557 205.267 193.385 203.967C193.217 202.663 192.66 201.443 191.714 200.308L183.283 190.191L179.989 192.937ZM43.5361 195.495L52.8711 204.515L55.3271 201.973L49.0752 195.933L60.709 183.892L57.626 180.913L43.5361 195.495ZM124.863 48.543C82.7131 48.5432 48.5432 82.7131 48.543 124.863C48.543 167.014 82.713 201.183 124.863 201.184C167.014 201.184 201.184 167.014 201.184 124.863C201.183 82.713 167.014 48.543 124.863 48.543ZM201.903 175.474C200.21 175.263 198.612 175.531 197.111 176.281C195.605 177.028 194.27 178.239 193.107 179.914L188.975 185.868L205.633 197.431L209.731 191.525C210.906 189.834 211.581 188.149 211.757 186.472C211.937 184.789 211.629 183.188 210.834 181.672C210.042 180.15 208.778 178.787 207.043 177.583C205.313 176.383 203.6 175.68 201.903 175.474ZM198.372 179.952C199.234 179.498 200.179 179.363 201.208 179.547C202.241 179.726 203.374 180.242 204.604 181.097C205.846 181.958 206.733 182.844 207.268 183.753C207.8 184.653 208.005 185.591 207.883 186.566C207.758 187.533 207.335 188.536 206.612 189.577L205.06 191.815L194.438 184.44L195.995 182.196C196.718 181.155 197.51 180.407 198.372 179.952ZM28.7793 173.364L31.0898 176.976L37.1445 173.101L38.832 175.736L34.8467 182.847L37.3975 186.833L41.7139 178.962C41.77 179 41.8261 179.038 41.8828 179.073C42.9106 179.724 43.9875 180.035 45.1123 180.005C46.2426 179.971 47.3746 179.591 48.5088 178.865C49.6375 178.143 50.4638 177.273 50.9883 176.256C51.5218 175.241 51.7238 174.129 51.5928 172.92C51.4708 171.713 50.9972 170.464 50.1719 169.174L45.8604 162.436L28.7793 173.364ZM124.873 66.2999C125.53 66.2999 126.181 66.4289 126.788 66.6788C127.395 66.9287 127.946 67.2952 128.41 67.7569C140.802 80.0931 154.535 86.1416 169.835 86.1417C171.16 86.1417 172.431 86.6649 173.368 87.5948C174.305 88.5246 174.832 89.7857 174.832 91.1006V120.86C174.832 152.782 158.431 174.48 126.441 185.051C125.417 185.389 124.309 185.389 123.284 185.051C91.3043 174.48 74.8937 152.782 74.8936 120.86V91.1006C74.8936 89.7859 75.4207 88.5246 76.3574 87.5948C77.2944 86.665 78.5655 86.1417 79.8906 86.1417C95.1809 86.1417 108.913 80.083 121.335 67.7569C121.799 67.2952 122.351 66.9287 122.958 66.6788C123.565 66.4289 124.216 66.2999 124.873 66.2999ZM46.7764 170.371C47.221 171.066 47.4862 171.708 47.5723 172.295C47.6673 172.884 47.5914 173.415 47.3447 173.886C47.1014 174.363 46.696 174.783 46.1289 175.146C45.5674 175.505 45.0249 175.692 44.501 175.706C43.9806 175.726 43.4797 175.567 42.999 175.232C42.5184 174.898 42.0572 174.386 41.6162 173.696L40.0469 171.243L45.2178 167.936L46.7764 170.371ZM202.556 165.404L221.265 173.224L222.918 169.269L204.209 161.448L202.556 165.404ZM20.4033 149.414L24.791 162.396L28.1396 161.264L25.125 152.344L29.7119 150.794L32.4883 159.011L35.8369 157.879L33.0605 149.662L37.6377 148.115L40.6396 156.998L43.9883 155.866L39.6133 142.922L20.4033 149.414ZM207.706 155.173L211.175 155.854L212.37 149.762L228.799 152.985L229.615 148.827L213.186 145.604L214.381 139.512L210.913 138.831L207.706 155.173ZM145.513 107.722C143.42 107.722 141.21 108.652 138.885 110.511L116.208 127.939V120.617C116.208 119.848 115.581 119.225 114.809 119.225H96.6748C95.9023 119.225 95.2754 119.848 95.2754 120.617V136.305C95.2757 141.881 100.509 145.019 106.091 145.193C109.812 145.31 113.185 143.624 116.208 140.139L141.326 113.648C143.419 111.556 144.816 110.511 147.258 110.511H153.537C154.583 110.511 155.107 109.813 155.107 109.116C155.107 108.419 154.584 107.722 153.537 107.722H145.513ZM17.7617 120.228L18.0615 124.504L26.418 123.918L27.0273 132.6L18.6709 133.186L18.9707 137.452L39.1982 136.033L38.8984 131.767L30.5527 132.352L29.9434 123.67L38.2891 123.085L37.9893 118.808L17.7617 120.228ZM228.281 118.463L228.734 127.868L223.898 128.102L223.481 119.439L219.95 119.608L220.368 128.272L215.542 128.504L215.091 119.139L211.56 119.31L212.218 132.957L232.472 131.981L231.812 118.293L228.281 118.463ZM221.903 92.8204C220.217 92.508 218.365 92.6647 216.348 93.2911C214.337 93.9155 212.728 94.8331 211.521 96.044C210.313 97.2487 209.543 98.6739 209.21 100.318C208.871 101.965 209.004 103.762 209.608 105.71L211.758 112.631L231.123 106.617L228.991 99.753C228.38 97.7864 227.469 96.2172 226.255 95.046C225.039 93.8685 223.588 93.1266 221.903 92.8204ZM28.957 94.5547C27.5184 94.3125 26.2495 94.4288 25.1504 94.9034C24.0565 95.3858 23.1489 96.1729 22.4287 97.2647C21.7074 98.3629 21.1921 99.7158 20.8838 101.323C20.573 102.944 20.5514 104.375 20.8174 105.615C21.0887 106.863 21.6099 107.878 22.3809 108.657C23.1573 109.445 24.1547 109.959 25.3721 110.199C26.203 110.352 26.9681 110.34 27.667 110.165C28.3647 109.996 29.001 109.692 29.5762 109.251C30.1513 108.81 30.6704 108.258 31.1338 107.594C31.5971 106.93 32.0101 106.183 32.3711 105.352L33.1416 103.645C33.3221 103.229 33.5172 102.843 33.7266 102.486C33.9425 102.131 34.1731 101.826 34.417 101.57C34.6674 101.316 34.9412 101.129 35.2393 101.012C35.5361 100.901 35.8618 100.887 36.2158 100.968C36.6434 101.05 37.0022 101.246 37.292 101.557C37.5805 101.874 37.7738 102.288 37.8711 102.797C37.9748 103.307 37.9609 103.907 37.8291 104.594C37.6352 105.605 37.2642 106.364 36.7168 106.87C36.1694 107.377 35.4964 107.594 34.6973 107.522L33.9229 111.557C35.1128 111.765 36.2172 111.647 37.2363 111.204C38.2555 110.761 39.1246 110.034 39.8428 109.023C40.5597 108.017 41.0603 106.776 41.3438 105.298C41.6222 103.846 41.6179 102.501 41.3311 101.263C41.0442 100.025 40.5127 98.9926 39.7373 98.1651C38.9606 97.3441 37.9686 96.8205 36.7617 96.5958C35.2916 96.3072 34.0287 96.5655 32.9736 97.3712C31.9185 98.1769 31.0253 99.3809 30.2949 100.982L29.335 103.045C29.0207 103.737 28.7091 104.313 28.3994 104.772C28.0886 105.236 27.7557 105.569 27.4014 105.77C27.0457 105.977 26.6436 106.037 26.1963 105.951C25.7169 105.859 25.3203 105.632 25.0068 105.27C24.6934 104.907 24.4834 104.44 24.3779 103.869C24.2712 103.304 24.2862 102.665 24.4229 101.952C24.5621 101.226 24.7979 100.595 25.1289 100.061C25.4652 99.5339 25.887 99.1409 26.3936 98.8819C26.9054 98.6307 27.4996 98.5463 28.1758 98.629L28.957 94.5547ZM217.616 97.376C219.06 96.9278 220.304 96.7727 221.35 96.9112C222.386 97.0454 223.252 97.4613 223.945 98.1583C224.63 98.8509 225.16 99.8027 225.536 101.013L226.344 103.612L213.995 107.447L213.185 104.838C212.809 103.628 212.707 102.543 212.879 101.584C213.051 100.625 213.526 99.7966 214.305 99.0987C215.081 98.3945 216.185 97.8204 217.616 97.376ZM64.5703 47.0538C52.2966 56.4708 42.3121 68.6973 35.5898 82.7667L38.9766 84.3839C45.4404 70.8554 55.0452 59.0938 66.8555 50.0323L64.5703 47.0538ZM182.872 50.0323C194.682 59.0937 204.287 70.8554 210.751 84.3839L214.138 82.7667C207.415 68.6973 197.43 56.4707 185.156 47.0538L182.872 50.0323ZM82.9824 25.9024C81.7993 25.7716 80.516 25.9526 79.1328 26.4454C77.7874 26.9247 76.6812 27.606 75.8145 28.4883C74.9477 29.3708 74.3783 30.3854 74.1064 31.5303C73.8348 32.6751 73.9028 33.8863 74.3105 35.1641L78.1865 33.7833C77.9878 33.1604 77.9355 32.5804 78.0303 32.044C78.1251 31.5074 78.3548 31.0391 78.7178 30.6407C79.0807 30.2425 79.5577 29.9381 80.1484 29.7276C80.7142 29.526 81.257 29.4596 81.7764 29.5294C82.2938 29.5928 82.7489 29.7895 83.1406 30.1172C83.5301 30.4386 83.8164 30.8852 83.999 31.4571C84.1634 31.9721 84.2129 32.4898 84.1475 33.0089C84.08 33.5215 83.9184 34.0786 83.6621 34.6797C83.4121 35.2787 83.0857 35.9685 82.6836 36.7491L77.8633 45.6378L78.8125 48.6133L92.583 43.7071L91.5049 40.3301L83.3936 43.2208L83.3516 43.087L85.2793 39.2872C86.2163 37.5936 86.911 36.1809 87.3623 35.0499C87.8114 33.9128 88.0626 32.9345 88.1162 32.1153C88.1761 31.2938 88.0889 30.5139 87.8535 29.7764C87.4943 28.651 86.8892 27.7542 86.0391 27.087C85.1889 26.4197 84.1698 26.0246 82.9824 25.9024ZM168.85 26.4385C167.729 26.4834 166.655 26.7967 165.626 27.378C164.604 27.9619 163.656 28.8053 162.783 29.9073C161.919 31.006 161.159 32.3519 160.504 33.9444C159.797 35.6819 159.406 37.2383 159.33 38.6124C159.26 39.989 159.432 41.1962 159.846 42.2325C160.26 43.2687 160.848 44.1441 161.608 44.8594C162.375 45.5775 163.24 46.1526 164.202 46.585C165.591 47.2061 166.925 47.4678 168.204 47.3692C169.492 47.267 170.633 46.8444 171.626 46.1016C172.625 45.3616 173.387 44.3487 173.91 43.0626C174.393 41.8754 174.57 40.7099 174.444 39.5674C174.318 38.4252 173.929 37.3997 173.275 36.4913C172.625 35.5766 171.744 34.8738 170.633 34.3829C169.949 34.0808 169.254 33.9008 168.55 33.8448C167.854 33.7853 167.183 33.8503 166.537 34.0391C165.9 34.2244 165.327 34.5363 164.817 34.9747L164.688 34.918C165.452 33.0747 166.368 31.7541 167.435 30.9561C168.507 30.1609 169.654 30.0329 170.875 30.5723C171.595 30.8906 172.123 31.3467 172.458 31.9395C172.793 32.5323 172.902 33.1932 172.786 33.9219L176.697 35.6505C177 34.5515 177.028 33.4515 176.784 32.3516C176.546 31.2546 176.047 30.2498 175.287 29.338C174.53 28.42 173.525 27.6838 172.273 27.1309C171.114 26.6186 169.972 26.3875 168.85 26.4385ZM166.837 36.4366C167.298 36.4361 167.758 36.5371 168.216 36.7393C168.826 37.009 169.31 37.3974 169.665 37.9044C170.021 38.4115 170.231 38.9753 170.296 39.5948C170.367 40.217 170.274 40.844 170.018 41.4747C169.761 42.1052 169.393 42.6135 168.912 42.9991C168.431 43.3847 167.889 43.6195 167.286 43.7032C166.683 43.7868 166.076 43.6936 165.466 43.4239C164.855 43.1541 164.37 42.7612 164.011 42.2452C163.658 41.7319 163.444 41.1594 163.369 40.5284C163.301 39.9 163.391 39.2792 163.64 38.6671C163.826 38.2097 164.083 37.8164 164.411 37.4874C164.742 37.1522 165.114 36.8934 165.526 36.711C165.945 36.5314 166.382 36.4398 166.837 36.4366ZM141.324 18.8292C139.915 18.596 138.628 18.6573 137.465 19.0128C136.302 19.3682 135.344 19.9846 134.593 20.8614C133.841 21.7383 133.361 22.8396 133.154 24.1651L137.215 24.837C137.316 24.1907 137.527 23.6534 137.851 23.2266C138.174 22.7999 138.586 22.4996 139.086 22.3253C139.586 22.1509 140.146 22.1154 140.765 22.2178C141.357 22.3159 141.869 22.5222 142.3 22.837C142.731 23.1451 143.048 23.539 143.25 24.0186C143.453 24.4919 143.509 25.0258 143.416 25.6192C143.333 26.1534 143.146 26.634 142.856 27.0596C142.568 27.4786 142.176 27.891 141.681 28.296C141.192 28.7021 140.595 29.1515 139.89 29.6436L131.646 35.129L131.164 38.2159L145.587 40.6026L146.133 37.1006L137.638 35.6944L137.659 35.5557L141.065 33.1465C142.653 32.1102 143.899 31.203 144.804 30.4258C145.71 29.6422 146.369 28.9022 146.781 28.2061C147.2 27.511 147.47 26.7807 147.59 26.0157C147.772 24.8486 147.634 23.7634 147.176 22.7608C146.718 21.7582 145.988 20.9131 144.987 20.2266C143.994 19.5347 142.773 19.0689 141.324 18.8292ZM114.93 19.4415C113.637 18.7263 112.137 18.4451 110.429 18.5977C108.72 18.7504 107.279 19.2948 106.104 20.2305C104.937 21.1591 104.079 22.4384 103.533 24.0684C102.994 25.6979 102.809 27.6279 102.978 29.8575C103.14 32.0943 103.611 33.9789 104.39 35.5108C105.175 37.0421 106.214 38.1727 107.508 38.9014C108.808 39.6294 110.316 39.9201 112.031 39.7735C113.747 39.6202 115.188 39.0697 116.354 38.1212C117.521 37.1726 118.372 35.8731 118.91 34.2237C119.455 32.5736 119.642 30.6267 119.473 28.3839C119.31 26.1538 118.838 24.2859 118.055 22.7813C117.271 21.27 116.229 20.1563 114.93 19.4415ZM110.696 22.1417C111.474 22.0721 112.169 22.2714 112.78 22.7393C113.398 23.2068 113.902 23.9427 114.293 24.9464C114.69 25.9494 114.947 27.2267 115.064 28.7774C115.249 31.133 115.038 32.9314 114.429 34.1719C113.82 35.4123 112.93 36.0849 111.76 36.1895C110.982 36.2589 110.284 36.06 109.667 35.5928C109.049 35.1187 108.54 34.3729 108.142 33.3565C107.75 32.3329 107.495 31.0354 107.376 29.4649C107.207 27.1416 107.426 25.3659 108.036 24.1387C108.646 22.9118 109.533 22.2458 110.696 22.1417Z" fill="white"/>
<path d="M124.863 6.62994C190.162 6.62994 243.097 59.5648 243.098 124.863C243.098 190.162 190.162 243.098 124.863 243.098C59.5647 243.098 6.62988 190.162 6.62988 124.863C6.63008 59.5649 59.5649 6.63015 124.863 6.62994ZM126.454 212.441L119.326 221.518L119.06 221.523L118.892 212.584L114.604 212.664L114.986 232.938L119.272 232.857L119.164 227.096L121.225 224.482L126.935 232.713L132.062 232.617L124.239 221.564L131.592 212.345L126.454 212.441ZM100.438 208.658C98.709 208.229 97.0535 208.239 95.4727 208.69C93.8933 209.134 92.5122 210.009 91.3311 211.314C90.1501 212.618 89.2928 214.345 88.7598 216.49C88.2284 218.629 88.1735 220.551 88.5938 222.253C89.0205 223.957 89.824 225.378 91.0039 226.515C92.1902 227.653 93.661 228.44 95.416 228.876C96.6779 229.19 97.8561 229.281 98.9492 229.151C100.05 229.017 101.044 228.713 101.93 228.239C102.824 227.761 103.59 227.159 104.226 226.433C104.87 225.702 105.358 224.898 105.691 224.022L101.487 222.957C101.261 223.458 100.972 223.883 100.62 224.231C100.275 224.58 99.8806 224.853 99.4375 225.049C98.9959 225.238 98.5161 225.347 97.999 225.375C97.4885 225.405 96.9546 225.35 96.3975 225.212C95.4047 224.965 94.591 224.505 93.9561 223.83C93.3212 223.156 92.9103 222.288 92.7246 221.229C92.5455 220.171 92.6301 218.941 92.9785 217.538C93.3174 216.174 93.8135 215.066 94.4668 214.215C95.1218 213.358 95.8896 212.772 96.7695 212.46C97.6511 212.142 98.6017 212.109 99.6201 212.362C100.184 212.502 100.686 212.713 101.127 212.992C101.574 213.273 101.946 213.611 102.242 214.004C102.539 214.397 102.752 214.838 102.883 215.326C103.015 215.808 103.052 216.33 102.993 216.894L107.202 217.94C107.351 216.766 107.295 215.677 107.034 214.674C106.78 213.672 106.35 212.773 105.745 211.977C105.142 211.174 104.391 210.491 103.49 209.927C102.596 209.365 101.579 208.942 100.438 208.658ZM155.517 207.265L157.623 228.612L161.797 226.694L161.232 221.864L167.885 218.807L171.181 222.382L175.355 220.464L160.537 204.957L155.517 207.265ZM165.501 216.22L160.824 218.368L159.89 210.355L160.033 210.288L165.501 216.22ZM73.8096 197.305C72.1632 197.299 70.5935 197.763 69.1016 198.696C67.6099 199.63 66.3152 201.056 65.2178 202.976C64.1235 204.889 63.5519 206.727 63.5039 208.486C63.456 210.245 63.8507 211.836 64.6875 213.257C65.5246 214.678 66.7258 215.837 68.29 216.732C69.8428 217.619 71.4425 218.066 73.0889 218.072C74.7443 218.076 76.3186 217.612 77.8105 216.678C79.3082 215.747 80.6056 214.322 81.7031 212.402C82.8007 210.483 83.3708 208.642 83.4131 206.879C83.461 205.12 83.0619 203.53 82.2158 202.111C81.3788 200.69 80.1834 199.535 78.6309 198.648C77.0666 197.753 75.4592 197.305 73.8096 197.305ZM74.0146 201.254C74.9373 201.196 75.8485 201.425 76.748 201.94C77.6475 202.454 78.3065 203.123 78.7246 203.947C79.1427 204.772 79.2913 205.716 79.1699 206.779C79.0542 207.846 78.6406 209.002 77.9297 210.245C77.2187 211.488 76.4328 212.431 75.5723 213.071C74.7175 213.715 73.8288 214.066 72.9062 214.124C71.9837 214.182 71.0723 213.954 70.1729 213.44C69.2733 212.925 68.6134 212.255 68.1953 211.431C67.7774 210.606 67.6265 209.66 67.7422 208.594C67.8637 207.53 68.2803 206.377 68.9912 205.134C69.7022 203.89 70.4849 202.946 71.3398 202.302C72.2003 201.661 73.0921 201.312 74.0146 201.254ZM179.989 192.937L188.186 202.771C188.68 203.364 188.987 204.002 189.108 204.683C189.234 205.36 189.169 206.029 188.912 206.69C188.66 207.346 188.215 207.94 187.576 208.473C186.942 209.001 186.277 209.332 185.581 209.466C184.885 209.599 184.212 209.545 183.563 209.304C182.921 209.058 182.352 208.638 181.857 208.045L173.661 198.21L170.368 200.955L178.799 211.07C179.745 212.206 180.843 212.976 182.09 213.38C183.337 213.784 184.644 213.821 186.01 213.49C187.371 213.155 188.698 212.449 189.991 211.371C191.279 210.298 192.211 209.121 192.786 207.843C193.357 206.559 193.557 205.267 193.385 203.967C193.217 202.663 192.66 201.443 191.714 200.308L183.283 190.191L179.989 192.937ZM43.5361 195.495L52.8711 204.515L55.3271 201.973L49.0752 195.933L60.709 183.892L57.626 180.913L43.5361 195.495ZM124.863 48.543C82.7131 48.5432 48.5432 82.7131 48.543 124.863C48.543 167.014 82.713 201.183 124.863 201.184C167.014 201.184 201.184 167.014 201.184 124.863C201.183 82.713 167.014 48.543 124.863 48.543ZM201.903 175.474C200.21 175.263 198.612 175.531 197.111 176.281C195.605 177.028 194.27 178.239 193.107 179.914L188.975 185.868L205.633 197.431L209.731 191.525C210.906 189.834 211.581 188.149 211.757 186.472C211.937 184.789 211.629 183.188 210.834 181.672C210.042 180.15 208.778 178.787 207.043 177.583C205.313 176.383 203.6 175.68 201.903 175.474ZM198.372 179.952C199.234 179.498 200.179 179.363 201.208 179.547C202.241 179.726 203.374 180.242 204.604 181.097C205.846 181.958 206.733 182.844 207.268 183.753C207.8 184.653 208.005 185.591 207.883 186.566C207.758 187.533 207.335 188.536 206.612 189.577L205.06 191.815L194.438 184.44L195.995 182.196C196.718 181.155 197.51 180.407 198.372 179.952ZM28.7793 173.364L31.0898 176.976L37.1445 173.101L38.832 175.736L34.8467 182.847L37.3975 186.833L41.7139 178.962C41.77 179 41.8261 179.038 41.8828 179.073C42.9106 179.724 43.9875 180.035 45.1123 180.005C46.2426 179.971 47.3746 179.591 48.5088 178.865C49.6375 178.143 50.4638 177.273 50.9883 176.256C51.5218 175.241 51.7238 174.129 51.5928 172.92C51.4708 171.713 50.9972 170.464 50.1719 169.174L45.8604 162.436L28.7793 173.364ZM124.873 66.2999C125.53 66.2999 126.181 66.4289 126.788 66.6788C127.395 66.9287 127.946 67.2952 128.41 67.7569C140.802 80.0931 154.535 86.1416 169.835 86.1417C171.16 86.1417 172.431 86.6649 173.368 87.5948C174.305 88.5246 174.832 89.7857 174.832 91.1006V120.86C174.832 152.782 158.431 174.48 126.441 185.051C125.417 185.389 124.309 185.389 123.284 185.051C91.3043 174.48 74.8937 152.782 74.8936 120.86V91.1006C74.8936 89.7859 75.4207 88.5246 76.3574 87.5948C77.2944 86.665 78.5655 86.1417 79.8906 86.1417C95.1809 86.1417 108.913 80.083 121.335 67.7569C121.799 67.2952 122.351 66.9287 122.958 66.6788C123.565 66.4289 124.216 66.2999 124.873 66.2999ZM46.7764 170.371C47.221 171.066 47.4862 171.708 47.5723 172.295C47.6673 172.884 47.5914 173.415 47.3447 173.886C47.1014 174.363 46.696 174.783 46.1289 175.146C45.5674 175.505 45.0249 175.692 44.501 175.706C43.9806 175.726 43.4797 175.567 42.999 175.232C42.5184 174.898 42.0572 174.386 41.6162 173.696L40.0469 171.243L45.2178 167.936L46.7764 170.371ZM202.556 165.404L221.265 173.224L222.918 169.269L204.209 161.448L202.556 165.404ZM20.4033 149.414L24.791 162.396L28.1396 161.264L25.125 152.344L29.7119 150.794L32.4883 159.011L35.8369 157.879L33.0605 149.662L37.6377 148.115L40.6396 156.998L43.9883 155.866L39.6133 142.922L20.4033 149.414ZM207.706 155.173L211.175 155.854L212.37 149.762L228.799 152.985L229.615 148.827L213.186 145.604L214.381 139.512L210.913 138.831L207.706 155.173ZM145.513 107.722C143.42 107.722 141.21 108.652 138.885 110.511L116.208 127.939V120.617C116.208 119.848 115.581 119.225 114.809 119.225H96.6748C95.9023 119.225 95.2754 119.848 95.2754 120.617V136.305C95.2757 141.881 100.509 145.019 106.091 145.193C109.812 145.31 113.185 143.624 116.208 140.139L141.326 113.648C143.419 111.556 144.816 110.511 147.258 110.511H153.537C154.583 110.511 155.107 109.813 155.107 109.116C155.107 108.419 154.584 107.722 153.537 107.722H145.513ZM17.7617 120.228L18.0615 124.504L26.418 123.918L27.0273 132.6L18.6709 133.186L18.9707 137.452L39.1982 136.033L38.8984 131.767L30.5527 132.352L29.9434 123.67L38.2891 123.085L37.9893 118.808L17.7617 120.228ZM228.281 118.463L228.734 127.868L223.898 128.102L223.481 119.439L219.95 119.608L220.368 128.272L215.542 128.504L215.091 119.139L211.56 119.31L212.218 132.957L232.472 131.981L231.812 118.293L228.281 118.463ZM221.903 92.8204C220.217 92.508 218.365 92.6647 216.348 93.2911C214.337 93.9155 212.728 94.8331 211.521 96.044C210.313 97.2487 209.543 98.6739 209.21 100.318C208.871 101.965 209.004 103.762 209.608 105.71L211.758 112.631L231.123 106.617L228.991 99.753C228.38 97.7864 227.469 96.2172 226.255 95.046C225.039 93.8685 223.588 93.1266 221.903 92.8204ZM28.957 94.5547C27.5184 94.3125 26.2495 94.4288 25.1504 94.9034C24.0565 95.3858 23.1489 96.1729 22.4287 97.2647C21.7074 98.3629 21.1921 99.7158 20.8838 101.323C20.573 102.944 20.5514 104.375 20.8174 105.615C21.0887 106.863 21.6099 107.878 22.3809 108.657C23.1573 109.445 24.1547 109.959 25.3721 110.199C26.203 110.352 26.9681 110.34 27.667 110.165C28.3647 109.996 29.001 109.692 29.5762 109.251C30.1513 108.81 30.6704 108.258 31.1338 107.594C31.5971 106.93 32.0101 106.183 32.3711 105.352L33.1416 103.645C33.3221 103.229 33.5172 102.843 33.7266 102.486C33.9425 102.131 34.1731 101.826 34.417 101.57C34.6674 101.316 34.9412 101.129 35.2393 101.012C35.5361 100.901 35.8618 100.887 36.2158 100.968C36.6434 101.05 37.0022 101.246 37.292 101.557C37.5805 101.874 37.7738 102.288 37.8711 102.797C37.9748 103.307 37.9609 103.907 37.8291 104.594C37.6352 105.605 37.2642 106.364 36.7168 106.87C36.1694 107.377 35.4964 107.594 34.6973 107.522L33.9229 111.557C35.1128 111.765 36.2172 111.647 37.2363 111.204C38.2555 110.761 39.1246 110.034 39.8428 109.023C40.5597 108.017 41.0603 106.776 41.3438 105.298C41.6222 103.846 41.6179 102.501 41.3311 101.263C41.0442 100.025 40.5127 98.9926 39.7373 98.1651C38.9606 97.3441 37.9686 96.8205 36.7617 96.5958C35.2916 96.3072 34.0287 96.5655 32.9736 97.3712C31.9185 98.1769 31.0253 99.3809 30.2949 100.982L29.335 103.045C29.0207 103.737 28.7091 104.313 28.3994 104.772C28.0886 105.236 27.7557 105.569 27.4014 105.77C27.0457 105.977 26.6436 106.037 26.1963 105.951C25.7169 105.859 25.3203 105.632 25.0068 105.27C24.6934 104.907 24.4834 104.44 24.3779 103.869C24.2712 103.304 24.2862 102.665 24.4229 101.952C24.5621 101.226 24.7979 100.595 25.1289 100.061C25.4652 99.5339 25.887 99.1409 26.3936 98.8819C26.9054 98.6307 27.4996 98.5463 28.1758 98.629L28.957 94.5547ZM217.616 97.376C219.06 96.9278 220.304 96.7727 221.35 96.9112C222.386 97.0454 223.252 97.4613 223.945 98.1583C224.63 98.8509 225.16 99.8027 225.536 101.013L226.344 103.612L213.995 107.447L213.185 104.838C212.809 103.628 212.707 102.543 212.879 101.584C213.051 100.625 213.526 99.7966 214.305 99.0987C215.081 98.3945 216.185 97.8204 217.616 97.376ZM64.5703 47.0538C52.2966 56.4708 42.3121 68.6973 35.5898 82.7667L38.9766 84.3839C45.4404 70.8554 55.0452 59.0938 66.8555 50.0323L64.5703 47.0538ZM182.872 50.0323C194.682 59.0937 204.287 70.8554 210.751 84.3839L214.138 82.7667C207.415 68.6973 197.43 56.4707 185.156 47.0538L182.872 50.0323ZM82.9824 25.9024C81.7993 25.7716 80.516 25.9526 79.1328 26.4454C77.7874 26.9247 76.6812 27.606 75.8145 28.4883C74.9477 29.3708 74.3783 30.3854 74.1064 31.5303C73.8348 32.6751 73.9028 33.8863 74.3105 35.1641L78.1865 33.7833C77.9878 33.1604 77.9355 32.5804 78.0303 32.044C78.1251 31.5074 78.3548 31.0391 78.7178 30.6407C79.0807 30.2425 79.5577 29.9381 80.1484 29.7276C80.7142 29.526 81.257 29.4596 81.7764 29.5294C82.2938 29.5928 82.7489 29.7895 83.1406 30.1172C83.5301 30.4386 83.8164 30.8852 83.999 31.4571C84.1634 31.9721 84.2129 32.4898 84.1475 33.0089C84.08 33.5215 83.9184 34.0786 83.6621 34.6797C83.4121 35.2787 83.0857 35.9685 82.6836 36.7491L77.8633 45.6378L78.8125 48.6133L92.583 43.7071L91.5049 40.3301L83.3936 43.2208L83.3516 43.087L85.2793 39.2872C86.2163 37.5936 86.911 36.1809 87.3623 35.0499C87.8114 33.9128 88.0626 32.9345 88.1162 32.1153C88.1761 31.2938 88.0889 30.5139 87.8535 29.7764C87.4943 28.651 86.8892 27.7542 86.0391 27.087C85.1889 26.4197 84.1698 26.0246 82.9824 25.9024ZM168.85 26.4385C167.729 26.4834 166.655 26.7967 165.626 27.378C164.604 27.9619 163.656 28.8053 162.783 29.9073C161.919 31.006 161.159 32.3519 160.504 33.9444C159.797 35.6819 159.406 37.2383 159.33 38.6124C159.26 39.989 159.432 41.1962 159.846 42.2325C160.26 43.2687 160.848 44.1441 161.608 44.8594C162.375 45.5775 163.24 46.1526 164.202 46.585C165.591 47.2061 166.925 47.4678 168.204 47.3692C169.492 47.267 170.633 46.8444 171.626 46.1016C172.625 45.3616 173.387 44.3487 173.91 43.0626C174.393 41.8754 174.57 40.7099 174.444 39.5674C174.318 38.4252 173.929 37.3997 173.275 36.4913C172.625 35.5766 171.744 34.8738 170.633 34.3829C169.949 34.0808 169.254 33.9008 168.55 33.8448C167.854 33.7853 167.183 33.8503 166.537 34.0391C165.9 34.2244 165.327 34.5363 164.817 34.9747L164.688 34.918C165.452 33.0747 166.368 31.7541 167.435 30.9561C168.507 30.1609 169.654 30.0329 170.875 30.5723C171.595 30.8906 172.123 31.3467 172.458 31.9395C172.793 32.5323 172.902 33.1932 172.786 33.9219L176.697 35.6505C177 34.5515 177.028 33.4515 176.784 32.3516C176.546 31.2546 176.047 30.2498 175.287 29.338C174.53 28.42 173.525 27.6838 172.273 27.1309C171.114 26.6186 169.972 26.3875 168.85 26.4385ZM166.837 36.4366C167.298 36.4361 167.758 36.5371 168.216 36.7393C168.826 37.009 169.31 37.3974 169.665 37.9044C170.021 38.4115 170.231 38.9753 170.296 39.5948C170.367 40.217 170.274 40.844 170.018 41.4747C169.761 42.1052 169.393 42.6135 168.912 42.9991C168.431 43.3847 167.889 43.6195 167.286 43.7032C166.683 43.7868 166.076 43.6936 165.466 43.4239C164.855 43.1541 164.37 42.7612 164.011 42.2452C163.658 41.7319 163.444 41.1594 163.369 40.5284C163.301 39.9 163.391 39.2792 163.64 38.6671C163.826 38.2097 164.083 37.8164 164.411 37.4874C164.742 37.1522 165.114 36.8934 165.526 36.711C165.945 36.5314 166.382 36.4398 166.837 36.4366ZM141.324 18.8292C139.915 18.596 138.628 18.6573 137.465 19.0128C136.302 19.3682 135.344 19.9846 134.593 20.8614C133.841 21.7383 133.361 22.8396 133.154 24.1651L137.215 24.837C137.316 24.1907 137.527 23.6534 137.851 23.2266C138.174 22.7999 138.586 22.4996 139.086 22.3253C139.586 22.1509 140.146 22.1154 140.765 22.2178C141.357 22.3159 141.869 22.5222 142.3 22.837C142.731 23.1451 143.048 23.539 143.25 24.0186C143.453 24.4919 143.509 25.0258 143.416 25.6192C143.333 26.1534 143.146 26.634 142.856 27.0596C142.568 27.4786 142.176 27.891 141.681 28.296C141.192 28.7021 140.595 29.1515 139.89 29.6436L131.646 35.129L131.164 38.2159L145.587 40.6026L146.133 37.1006L137.638 35.6944L137.659 35.5557L141.065 33.1465C142.653 32.1102 143.899 31.203 144.804 30.4258C145.71 29.6422 146.369 28.9022 146.781 28.2061C147.2 27.511 147.47 26.7807 147.59 26.0157C147.772 24.8486 147.634 23.7634 147.176 22.7608C146.718 21.7582 145.988 20.9131 144.987 20.2266C143.994 19.5347 142.773 19.0689 141.324 18.8292ZM114.93 19.4415C113.637 18.7263 112.137 18.4451 110.429 18.5977C108.72 18.7504 107.279 19.2948 106.104 20.2305C104.937 21.1591 104.079 22.4384 103.533 24.0684C102.994 25.6979 102.809 27.6279 102.978 29.8575C103.14 32.0943 103.611 33.9789 104.39 35.5108C105.175 37.0421 106.214 38.1727 107.508 38.9014C108.808 39.6294 110.316 39.9201 112.031 39.7735C113.747 39.6202 115.188 39.0697 116.354 38.1212C117.521 37.1726 118.372 35.8731 118.91 34.2237C119.455 32.5736 119.642 30.6267 119.473 28.3839C119.31 26.1538 118.838 24.2859 118.055 22.7813C117.271 21.27 116.229 20.1563 114.93 19.4415ZM110.696 22.1417C111.474 22.0721 112.169 22.2714 112.78 22.7393C113.398 23.2068 113.902 23.9427 114.293 24.9464C114.69 25.9494 114.947 27.2267 115.064 28.7774C115.249 31.133 115.038 32.9314 114.429 34.1719C113.82 35.4123 112.93 36.0849 111.76 36.1895C110.982 36.2589 110.284 36.06 109.667 35.5928C109.049 35.1187 108.54 34.3729 108.142 33.3565C107.75 32.3329 107.495 31.0354 107.376 29.4649C107.207 27.1416 107.426 25.3659 108.036 24.1387C108.646 22.9118 109.533 22.2458 110.696 22.1417Z" fill="url(#paint1_linear_145_1529)"/>
</g>
<defs>
<filter id="filter0_i_145_1529" x="6.62988" y="6.62994" width="236.468" height="239.468" filterUnits="userSpaceOnUse" color-interpolation-filters="sRGB">
<feFlood flood-opacity="0" result="BackgroundImageFix"/>
<feBlend mode="normal" in="SourceGraphic" in2="BackgroundImageFix" result="shape"/>
<feColorMatrix in="SourceAlpha" type="matrix" values="0 0 0 0 0 0 0 0 0 0 0 0 0 0 0 0 0 0 127 0" result="hardAlpha"/>
<feOffset dy="3"/>
<feGaussianBlur stdDeviation="2"/>
<feComposite in2="hardAlpha" operator="arithmetic" k2="-1" k3="1"/>
<feColorMatrix type="matrix" values="0 0 0 0 0.752941 0 0 0 0 0.709804 0 0 0 0 1 0 0 0 0.3 0"/>
<feBlend mode="normal" in2="shape" result="effect1_innerShadow_145_1529"/>
</filter>
<linearGradient id="paint0_linear_145_1529" x1="32.0716" y1="170.427" x2="176.021" y2="49.5991" gradientUnits="userSpaceOnUse">
<stop offset="0.281768" stop-color="#1A172F"/>
<stop offset="0.498189" stop-color="#5C5592"/>
<stop offset="0.529092" stop-color="#9B91DE"/>
<stop offset="0.814536" stop-color="#1A172F"/>
</linearGradient>
<linearGradient id="paint1_linear_145_1529" x1="174.468" y1="48.4961" x2="81.7691" y2="155.251" gradientUnits="userSpaceOnUse">
<stop offset="0.272354" stop-color="#CACACA" stop-opacity="0"/>
<stop offset="0.597325" stop-color="#CFCFCF" stop-opacity="0.1"/>
<stop offset="0.644231" stop-color="#D4D4D4"/>
<stop offset="0.819677" stop-color="white"/>
</linearGradient>
</defs>
</svg>
