<svg width="250" height="250" viewBox="0 0 250 250" fill="none" xmlns="http://www.w3.org/2000/svg">
<path d="M124.876 64.7759V64.773C125.676 64.7735 126.467 64.9408 127.202 65.2642L164.986 81.9058C167.111 82.8416 168.923 84.3969 170.196 86.3795C171.469 88.3621 172.148 90.6852 172.148 93.0601V134.682C172.149 142.173 170.222 149.531 166.562 156.01C162.902 162.489 157.638 167.859 151.306 171.576L127.804 185.365C126.913 185.888 125.903 186.163 124.876 186.164V186.16L124.875 186.164H124.872C123.844 186.164 122.833 185.888 121.941 185.365L98.439 171.576C92.1067 167.859 86.8433 162.489 83.1831 156.01C79.523 149.531 77.5959 142.173 77.5972 134.682V93.0601C77.5975 90.6852 78.2763 88.3621 79.5493 86.3795C80.8223 84.3969 82.634 82.8416 84.7593 81.9058L122.543 65.2642C123.279 64.9404 124.071 64.7731 124.872 64.773H124.875L124.876 64.7759ZM145.702 105.034C143.525 105.034 141.227 106.002 138.808 107.938L115.226 126.094V118.466C115.226 117.665 114.574 117.016 113.771 117.016H94.9126C94.1093 117.016 93.4577 117.665 93.4575 118.466V134.809C93.4578 140.619 98.8999 143.886 104.705 144.068C108.574 144.189 112.082 142.434 115.226 138.803L141.347 111.207C143.524 109.028 144.976 107.938 147.515 107.938H154.045C155.134 107.938 155.678 107.212 155.678 106.486C155.678 105.76 155.134 105.034 154.045 105.034H145.702Z" fill="white"/>
<path d="M124.585 6.63C189.73 6.63 242.541 59.4403 242.541 124.585C242.541 189.73 189.73 242.541 124.585 242.541C59.4401 242.541 6.62988 189.73 6.62988 124.585C6.63012 59.4404 59.4403 6.63024 124.585 6.63ZM77.1689 212.274L76.1328 214.155C90.5873 222.116 107.186 226.644 124.832 226.644C128.865 226.644 132.844 226.407 136.755 225.947C138.312 225.764 139.859 225.545 141.394 225.292L141.043 223.172L140.693 221.051C139.224 221.293 137.744 221.503 136.253 221.678C132.508 222.118 128.697 222.345 124.832 222.345C107.93 222.345 92.0419 218.011 78.2061 210.391L77.1689 212.274ZM155.672 208.603C153.987 209.263 152.66 210.164 151.692 211.304C150.727 212.449 150.158 213.772 149.986 215.273C149.809 216.775 150.06 218.391 150.737 220.119C151.413 221.842 152.325 223.193 153.475 224.169C154.626 225.151 155.944 225.731 157.429 225.909C158.91 226.095 160.496 225.856 162.187 225.193L168.312 222.792L161.806 206.198L155.672 208.603ZM162.961 220.945L161.048 221.694C160.097 222.067 159.236 222.222 158.463 222.157C157.687 222.1 156.99 221.781 156.376 221.199C155.764 220.623 155.224 219.738 154.756 218.544C154.288 217.35 154.081 216.328 154.134 215.479C154.184 214.637 154.47 213.929 154.993 213.357C155.513 212.791 156.238 212.326 157.167 211.962L159.136 211.19L162.961 220.945ZM170.023 201.848L172.05 204.698L178.668 199.994L180.791 202.981L174.69 207.317L176.724 210.175L182.823 205.839L184.941 208.818L178.323 213.523L180.351 216.374L190.479 209.173L180.152 194.647L170.023 201.848ZM62.2969 195.498L68.2432 199.6L68.1787 199.693L65.3076 200.101C63.6036 200.293 62.233 200.522 61.1973 200.787C60.1569 201.049 59.3347 201.377 58.7314 201.772C58.1283 202.166 57.6343 202.644 57.249 203.202C56.6431 204.081 56.3371 205.009 56.333 205.985C56.3209 206.964 56.5976 207.923 57.1621 208.861C57.7267 209.8 58.5659 210.654 59.6787 211.421C60.758 212.165 61.8426 212.621 62.9326 212.788C64.0147 212.956 65.0309 212.833 65.9805 212.416C66.93 212 67.7492 211.292 68.4375 210.294L65.0771 207.977C64.7709 208.421 64.427 208.74 64.0459 208.936C63.6601 209.127 63.2582 209.2 62.8408 209.151C62.4199 209.108 62.0056 208.945 61.5996 208.665C61.1987 208.389 60.897 208.065 60.6953 207.693C60.4936 207.322 60.4045 206.929 60.4287 206.516C60.4496 206.107 60.6009 205.7 60.8809 205.294C61.1311 204.931 61.4368 204.645 61.7988 204.437C62.1576 204.233 62.5837 204.076 63.0762 203.965C63.5655 203.858 64.1366 203.761 64.7881 203.675L73.3701 202.681L75.1299 200.13L64.2676 192.64L62.2969 195.498ZM124.585 46.5822C81.5052 46.5822 46.582 81.5053 46.582 124.585C46.5821 167.665 81.5052 202.588 124.585 202.588C167.665 202.588 202.588 167.665 202.588 124.585C202.588 81.5053 167.665 46.5822 124.585 46.5822ZM189.987 185.902L200.741 195.366L197.171 199.424L199.797 201.734L209.75 190.426L207.123 188.114L203.547 192.178L192.793 182.715L189.987 185.902ZM51.1934 178.7C49.8964 178.344 48.5242 178.398 47.0771 178.861C45.6299 179.326 44.17 180.206 42.6992 181.503C41.2334 182.788 40.1884 184.112 39.5645 185.475C38.9406 186.837 38.7352 188.179 38.9482 189.499C39.1532 190.819 39.7695 192.063 40.7979 193.229C41.8262 194.395 42.9827 195.162 44.2666 195.53C45.5425 195.898 46.8963 195.857 48.3262 195.408C49.7477 194.959 51.193 194.09 52.6631 192.801C54.1333 191.512 55.1897 190.179 55.8311 188.801C56.4679 187.427 56.6933 186.073 56.5059 184.737C56.314 183.406 55.7032 182.156 54.6748 180.99C53.6426 179.82 52.4821 179.057 51.1934 178.7ZM49.4766 182.569C50.5655 182.375 51.4173 182.625 52.0312 183.321C52.4379 183.782 52.64 184.328 52.6377 184.956C52.6309 185.589 52.3922 186.288 51.9209 187.052C51.4457 187.811 50.7162 188.621 49.7334 189.48C48.2853 190.749 47.0252 191.477 45.9531 191.665C44.8765 191.857 44.0321 191.606 43.4219 190.914C43.0115 190.449 42.8067 189.906 42.8086 189.285C42.8106 188.665 43.0418 187.978 43.5 187.226C43.9539 186.477 44.6632 185.677 45.6289 184.825C47.1001 183.52 48.3831 182.768 49.4766 182.569ZM200.534 171.016L215.962 179.943L218.119 176.214L202.692 167.287L200.534 171.016ZM36.7109 158.241L40.0361 164.653L39.9355 164.706L37.208 163.719C35.6132 163.088 34.2959 162.648 33.2568 162.396C32.2151 162.139 31.335 162.042 30.6172 162.108C29.8995 162.173 29.2392 162.361 28.6367 162.673C27.689 163.164 26.9837 163.841 26.5215 164.701C26.0515 165.559 25.8457 166.536 25.9033 167.63C25.961 168.724 26.3007 169.872 26.9229 171.071C27.5265 172.235 28.2711 173.147 29.1553 173.806C30.0316 174.462 30.9867 174.83 32.0205 174.908C33.0544 174.986 34.1102 174.747 35.1865 174.189L33.3066 170.565C32.8278 170.813 32.3744 170.935 31.9463 170.928C31.5156 170.916 31.1272 170.79 30.7812 170.552C30.4301 170.316 30.1411 169.978 29.9141 169.54C29.6897 169.108 29.5749 168.68 29.5713 168.257C29.5677 167.834 29.6736 167.446 29.8887 167.093C30.0989 166.742 30.4236 166.453 30.8613 166.226C31.2526 166.023 31.6569 165.915 32.0742 165.901C32.4866 165.889 32.9367 165.95 33.4238 166.083C33.9059 166.219 34.4555 166.401 35.0713 166.631L43.1162 169.781L45.8662 168.356L39.793 156.643L36.7109 158.241ZM210.162 151.179C209.608 152.902 209.466 154.499 209.736 155.969C210.012 157.441 210.677 158.718 211.73 159.801C212.782 160.889 214.192 161.717 215.959 162.285C217.721 162.852 219.344 163 220.827 162.728C222.316 162.457 223.599 161.803 224.676 160.766C225.757 159.736 226.575 158.357 227.131 156.628L229.146 150.364L212.18 144.906L210.162 151.179ZM224.331 153.341L223.702 155.296C223.39 156.268 222.964 157.033 222.425 157.591C221.889 158.156 221.201 158.493 220.362 158.601C219.529 158.71 218.502 158.569 217.281 158.177C216.061 157.784 215.138 157.298 214.514 156.719C213.893 156.148 213.527 155.478 213.414 154.711C213.305 153.951 213.403 153.095 213.708 152.146L214.356 150.132L224.331 153.341ZM32.3057 136.812C31.2443 136.462 30.1097 136.435 28.9033 136.729C27.83 136.979 26.9318 137.428 26.21 138.077C25.4827 138.728 24.9745 139.508 24.6846 140.418C24.3946 141.328 24.3735 142.303 24.6211 143.341C24.7758 143.99 25.0236 144.581 25.3652 145.113C25.7 145.642 26.1072 146.085 26.5859 146.442C27.0646 146.798 27.5915 147.034 28.167 147.148L28.1934 147.258C26.6501 147.614 25.3561 147.642 24.3125 147.342C23.2678 147.036 22.6192 146.353 22.3662 145.292C22.2291 144.717 22.2543 144.185 22.4424 143.699C22.6237 143.209 22.9735 142.836 23.4912 142.581L22.5078 138.458C21.5614 138.791 20.7604 139.332 20.1035 140.079C19.441 140.828 18.9857 141.723 18.7393 142.766C18.4859 143.804 18.5047 144.93 18.7939 146.144C19.0577 147.25 19.5073 148.202 20.1445 148.998C20.7747 149.79 21.5647 150.413 22.5137 150.866C23.4614 151.314 24.5466 151.575 25.7686 151.648C26.985 151.721 28.3082 151.591 29.7373 151.256C31.3188 150.885 32.6134 150.373 33.6211 149.721C34.623 149.07 35.3827 148.326 35.8984 147.487C36.4084 146.65 36.7152 145.76 36.8184 144.817C36.9158 143.875 36.851 142.93 36.625 141.982C36.3088 140.656 35.7744 139.551 35.0215 138.669C34.2671 137.781 33.3614 137.162 32.3057 136.812ZM30.0088 140.759C30.5321 140.628 31.0303 140.629 31.5029 140.761C31.9756 140.893 32.3812 141.133 32.7207 141.482C33.0603 141.83 33.2916 142.261 33.4141 142.775C33.5365 143.288 33.524 143.774 33.377 144.233C33.2242 144.692 32.9668 145.088 32.6045 145.419C32.2421 145.75 31.8041 145.979 31.292 146.108C30.9014 146.195 30.5233 146.21 30.1582 146.154C29.7874 146.1 29.4493 145.984 29.1445 145.806C28.8327 145.624 28.5678 145.385 28.3486 145.091C28.1297 144.797 27.9749 144.462 27.8848 144.084C27.761 143.565 27.7719 143.076 27.9189 142.617C28.0647 142.153 28.3167 141.759 28.6748 141.435C29.0316 141.105 29.4769 140.88 30.0088 140.759ZM220.392 122.293C219.063 122.283 217.902 122.586 216.911 123.205C215.926 123.824 215.16 124.698 214.611 125.824C214.069 126.952 213.791 128.273 213.779 129.787C213.768 131.284 214.025 132.6 214.55 133.735C215.081 134.871 215.834 135.759 216.81 136.399C217.791 137.039 218.946 137.364 220.274 137.374L231.771 137.463L231.804 133.164L220.682 133.078C220.067 133.073 219.519 132.933 219.04 132.656C218.561 132.38 218.187 131.996 217.918 131.507C217.649 131.023 217.517 130.46 217.521 129.817C217.526 129.173 217.668 128.607 217.944 128.122C218.221 127.637 218.6 127.259 219.084 126.99C219.568 126.727 220.118 126.598 220.732 126.603L231.854 126.69L231.888 122.382L220.392 122.293ZM39.0283 70.7306C29.17 86.4205 23.4668 105.004 23.4668 124.917C23.4668 125.694 23.4759 126.47 23.4932 127.243L25.6416 127.195L27.791 127.147C27.7744 126.406 27.7656 125.662 27.7656 124.917C27.7656 105.836 33.2289 88.0419 42.6689 73.0177L39.0283 70.7306ZM210.475 102.596L214.394 102.732L216.029 108.665L212.734 110.793L213.964 115.256L229.549 104.723L228.025 99.1935L209.244 98.132L210.475 102.596ZM224.438 103.08L224.475 103.214L218.91 106.806L217.82 102.851L224.438 103.08ZM187.116 62.1652L190.076 65.295L193.585 61.9757L196.35 61.7316L194.311 69.7706L197.852 73.5138L200.601 62.0597L210.721 61.1827L207.234 57.4972L197.711 58.3966L197.549 58.2257L203.024 53.046L200.063 49.9171L187.116 62.1652ZM49.2959 51.6505C48.2874 51.5658 47.2828 51.7777 46.2832 52.2863C45.2829 52.7866 44.3523 53.5765 43.4912 54.6554C42.6481 55.712 42.0781 56.7984 41.7822 57.9132C41.4864 59.028 41.4762 60.0781 41.752 61.0626C42.0277 62.0471 42.5987 62.8806 43.4639 63.5636C44.5168 64.4112 45.6308 64.7372 46.8057 64.5392C47.9759 64.3375 49.1809 63.7432 50.4199 62.7579L51.9219 61.5734C52.4449 61.1597 52.9075 60.8453 53.3086 60.631C53.7087 60.4086 54.0677 60.294 54.3848 60.2872C54.697 60.277 54.9865 60.3742 55.2529 60.5792C55.5305 60.8081 55.7099 61.0965 55.79 61.4425C55.8701 61.7884 55.8434 62.1715 55.709 62.5909C55.5781 63.006 55.3306 63.4402 54.9688 63.8937C54.5745 64.3876 54.1505 64.7615 53.6963 65.0148C53.2454 65.2635 52.7847 65.3754 52.3154 65.3497C51.8461 65.324 51.3759 65.1455 50.9053 64.8146L48.332 68.0392C49.4312 68.894 50.5285 69.3657 51.624 69.4532C52.7196 69.5407 53.7878 69.2897 54.8281 68.7023C55.8684 68.1148 56.8542 67.2387 57.7842 66.0734C58.7105 64.9125 59.3339 63.7869 59.6533 62.6984C59.9762 61.6055 59.997 60.5873 59.7178 59.6447C59.4384 58.7019 58.8614 57.8765 57.9854 57.17C57.424 56.7295 56.8443 56.4234 56.2471 56.2511C55.65 56.0789 55.0343 56.0365 54.4004 56.1241C53.77 56.2073 53.1179 56.4148 52.4453 56.7462C51.7762 57.0732 51.0913 57.5221 50.3916 58.0919L49.1641 59.0714C48.8427 59.3346 48.5346 59.5578 48.2412 59.7394C47.9481 59.9208 47.6697 60.0555 47.4072 60.1427C47.1439 60.2217 46.8946 60.2453 46.6602 60.214C46.4292 60.178 46.2129 60.072 46.0117 59.8966C45.7615 59.6895 45.5968 59.4355 45.5176 59.1349C45.4339 58.8306 45.4512 58.4881 45.5693 58.1075C45.6876 57.7268 45.9202 57.3183 46.2676 56.8829C46.7922 56.2256 47.3361 55.8317 47.8994 55.7023C48.4619 55.5648 49.0109 55.6728 49.5459 56.0255L52.1191 52.8009C51.2458 52.1189 50.3044 51.7354 49.2959 51.6505ZM65.9531 35.3116L70.2998 40.9943L64.7207 45.2609L60.375 39.5792L56.9531 42.1964L67.7812 56.3527L71.2031 53.7355L66.8516 48.047L72.4297 43.7804L76.7812 49.4689L80.1963 46.8575L69.3682 32.7003L65.9531 35.3116ZM182.574 36.7452C181.118 36.6542 179.707 36.9811 178.342 37.7267C176.977 38.4723 175.766 39.6712 174.71 41.3234C173.657 42.9707 173.074 44.5678 172.96 46.1134C172.846 47.6588 173.133 49.074 173.819 50.3595C174.513 51.6433 175.54 52.7203 176.898 53.589C177.93 54.2482 178.944 54.6756 179.94 54.8722C180.942 55.0718 181.891 55.0869 182.786 54.9152C183.684 54.7386 184.497 54.4285 185.228 53.9865C185.963 53.5474 186.575 53.0159 187.063 52.3917L183.411 50.0255C183.116 50.3465 182.794 50.5982 182.443 50.7804C182.101 50.9608 181.738 51.0706 181.355 51.1085C180.981 51.1446 180.595 51.107 180.197 50.9972C179.804 50.8905 179.407 50.7094 179.006 50.4532C178.292 49.997 177.782 49.4324 177.475 48.7609C177.175 48.0877 177.096 47.3244 177.235 46.4708C177.383 45.615 177.776 44.6878 178.413 43.6906C179.026 42.7326 179.687 42.0054 180.396 41.5089C181.111 41.0156 181.845 40.758 182.596 40.7355C183.352 40.7162 184.094 40.9388 184.822 41.4044C185.233 41.6669 185.57 41.965 185.832 42.298C186.102 42.6289 186.293 42.9815 186.404 43.3556C186.516 43.73 186.551 44.1178 186.509 44.5177C186.467 44.9176 186.35 45.322 186.158 45.7296L189.824 48.0724C190.311 47.1169 190.595 46.1726 190.675 45.2394C190.755 44.3062 190.655 43.4126 190.375 42.5587C190.098 41.6998 189.653 40.8975 189.04 40.1544C188.43 39.4066 187.67 38.7424 186.761 38.1613C185.426 37.3083 184.031 36.8364 182.574 36.7452ZM79.8945 28.0636L86.9766 44.4191L98.3809 39.4825L96.9912 36.2716L89.5391 39.4982L88.083 36.1359L94.9521 33.1613L93.5586 29.9435L86.6904 32.9171L85.2373 29.5626L92.6895 26.3361L91.2998 23.1261L79.8945 28.0636ZM163.051 25.3878C161.533 24.8775 160.054 24.7527 158.613 25.0148C157.172 25.2769 155.877 25.9346 154.728 26.9865C153.584 28.04 152.699 29.4962 152.074 31.3546C151.451 33.2077 151.276 34.9 151.551 36.4308C151.833 37.9579 152.467 39.2646 153.455 40.3497C154.443 41.4348 155.696 42.2328 157.214 42.7433C158.726 43.2518 160.203 43.3754 161.644 43.1134C163.09 42.8531 164.389 42.1964 165.538 41.1447C166.687 40.0929 167.575 38.6378 168.2 36.7794C168.825 34.9208 168.997 33.2242 168.717 31.6915C168.437 30.159 167.799 28.852 166.804 27.7706C165.814 26.691 164.563 25.8964 163.051 25.3878ZM159.563 28.8517C160.277 28.6575 161.039 28.6962 161.847 28.9679C162.66 29.2416 163.291 29.6705 163.737 30.255C164.189 30.8415 164.44 31.5664 164.493 32.4288C164.551 33.2931 164.395 34.2753 164.025 35.3751C163.656 36.4748 163.187 37.3516 162.618 38.005C162.055 38.6602 161.416 39.085 160.702 39.2794C159.993 39.4756 159.232 39.4369 158.418 39.1632C157.61 38.8914 156.98 38.4623 156.528 37.8761C156.077 37.2896 155.822 36.5636 155.764 35.6993C155.711 34.8369 155.869 33.8557 156.239 32.756C156.609 31.6562 157.076 30.7784 157.639 30.1232C158.207 29.4698 158.849 29.0461 159.563 28.8517ZM115.641 19.171C114.606 18.8545 113.431 18.8054 112.114 19.0236L104.852 20.2277L107.765 37.8107L112.015 37.1066L111.017 31.088L113.193 30.7267L117.407 36.213L122.043 35.4445L117.289 29.3595C118.184 28.7529 118.826 27.9852 119.215 27.0568C119.606 26.1158 119.7 25.0355 119.498 23.8165C119.299 22.6147 118.866 21.6186 118.2 20.8292C117.533 20.0342 116.68 19.481 115.641 19.171ZM129.408 36.4318L141.094 37.3702L141.373 33.8829L133.982 33.2892L135.128 19.0109L130.835 18.6652L129.408 36.4318ZM111.764 22.6017C112.399 22.4965 112.949 22.4995 113.414 22.6105C113.878 22.7158 114.253 22.9295 114.536 23.2531C114.818 23.5709 115.004 24.0024 115.094 24.546C115.184 25.0897 115.147 25.5554 114.981 25.9415C114.815 26.3218 114.528 26.6333 114.121 26.8771C113.719 27.114 113.198 27.2855 112.558 27.3917L110.462 27.7394L109.669 22.9484L111.764 22.6017Z" fill="white"/>
<rect width="249.86" height="249.86" rx="124.93" fill="#1A172F"/>
<rect width="249.86" height="249.86" rx="124.93" fill="url(#paint0_linear_145_1543)" fill-opacity="0.45"/>
<rect width="249.86" height="249.86" rx="124.93" fill="white"/>
<g filter="url(#filter0_i_145_1543)">
<path d="M124.865 6.63C190.164 6.63018 243.1 59.5661 243.1 124.865C243.099 190.165 190.164 243.1 124.865 243.1C59.5659 243.1 6.63006 190.165 6.62988 124.865C6.62988 59.566 59.5658 6.63 124.865 6.63ZM126.455 212.443L119.327 221.521L119.06 221.526L118.892 212.586L114.605 212.667L114.987 232.941L119.273 232.86L119.165 227.099L121.225 224.485L126.936 232.716L132.063 232.619L124.24 221.567L131.593 212.347L126.455 212.443ZM100.438 208.661C98.7091 208.232 97.0535 208.242 95.4727 208.693C93.8935 209.137 92.513 210.011 91.332 211.316C90.151 212.62 89.2938 214.346 88.7607 216.492C88.2292 218.632 88.1734 220.553 88.5938 222.256C89.0205 223.96 89.8242 225.38 91.0039 226.517C92.1901 227.655 93.6611 228.442 95.416 228.878C96.6778 229.192 97.8561 229.284 98.9492 229.154C100.05 229.02 101.045 228.716 101.931 228.242C102.825 227.764 103.59 227.161 104.226 226.435C104.87 225.704 105.359 224.901 105.692 224.025L101.488 222.959C101.262 223.46 100.972 223.886 100.62 224.234C100.275 224.583 99.8805 224.856 99.4375 225.052C98.9961 225.241 98.5168 225.35 98 225.378C97.4896 225.408 96.9555 225.353 96.3984 225.215C95.4057 224.968 94.5909 224.508 93.9561 223.833C93.3212 223.159 92.9113 222.291 92.7256 221.232C92.5463 220.174 92.631 218.943 92.9795 217.54C93.3184 216.176 93.8144 215.068 94.4678 214.217C95.1228 213.36 95.8906 212.775 96.7705 212.463C97.6521 212.145 98.6026 212.112 99.6211 212.365C100.184 212.505 100.687 212.715 101.127 212.994C101.574 213.275 101.946 213.613 102.243 214.006C102.54 214.399 102.753 214.84 102.884 215.328C103.016 215.81 103.053 216.333 102.994 216.897L107.203 217.942C107.352 216.768 107.296 215.679 107.035 214.676C106.781 213.674 106.351 212.775 105.746 211.979C105.143 211.176 104.391 210.493 103.49 209.929C102.596 209.367 101.579 208.944 100.438 208.661ZM155.519 207.267L157.624 228.614L161.799 226.696L161.234 221.866L167.887 218.81L171.182 222.385L175.356 220.467L160.538 204.96L155.519 207.267ZM165.502 216.223L160.826 218.371L159.891 210.357L160.035 210.291L165.502 216.223ZM73.8096 197.307C72.1634 197.301 70.5943 197.765 69.1025 198.698C67.6107 199.632 66.3153 201.059 65.2178 202.979C64.1235 204.892 63.5519 206.729 63.5039 208.488C63.4559 210.248 63.8514 211.838 64.6885 213.26C65.5255 214.681 66.7261 215.839 68.29 216.734C69.8427 217.621 71.4427 218.069 73.0889 218.075C74.7442 218.079 76.3186 217.613 77.8105 216.68C79.3081 215.749 80.6056 214.324 81.7031 212.404C82.8007 210.485 83.3708 208.644 83.4131 206.881C83.461 205.122 83.0619 203.532 82.2158 202.113C81.3787 200.692 80.1836 199.537 78.6309 198.65C77.0666 197.755 75.4592 197.307 73.8096 197.307ZM74.0146 201.257C74.9372 201.199 75.8486 201.427 76.748 201.942C77.6476 202.456 78.3074 203.126 78.7256 203.95C79.1435 204.775 79.2914 205.719 79.1699 206.782C79.0541 207.849 78.6406 209.004 77.9297 210.247C77.2187 211.491 76.4329 212.433 75.5723 213.073C74.7174 213.717 73.8288 214.069 72.9062 214.127C71.9836 214.185 71.0724 213.956 70.1729 213.442C69.2735 212.927 68.6144 212.258 68.1963 211.434C67.7783 210.609 67.6266 209.663 67.7422 208.597C67.8636 207.533 68.2803 206.379 68.9912 205.136C69.7021 203.893 70.4851 202.949 71.3398 202.305C72.2003 201.664 73.0922 201.315 74.0146 201.257ZM179.991 192.939L188.188 202.774C188.682 203.367 188.989 204.004 189.11 204.685C189.236 205.362 189.171 206.031 188.914 206.692C188.662 207.348 188.217 207.943 187.578 208.476C186.944 209.004 186.278 209.334 185.582 209.468C184.886 209.601 184.213 209.547 183.565 209.306C182.922 209.06 182.354 208.64 181.859 208.047L173.663 198.213L170.369 200.957L178.8 211.073C179.746 212.209 180.844 212.979 182.091 213.383C183.338 213.787 184.645 213.824 186.011 213.493C187.372 213.158 188.7 212.451 189.993 211.373C191.281 210.3 192.213 209.123 192.788 207.845C193.359 206.561 193.558 205.27 193.386 203.97C193.218 202.666 192.661 201.446 191.715 200.31L183.284 190.193L179.991 192.939ZM43.5361 195.497L52.8711 204.517L55.3271 201.975L49.0752 195.935L60.709 183.894L57.626 180.915L43.5361 195.497ZM124.865 48.5441C82.7143 48.5441 48.5439 82.7144 48.5439 124.865C48.5441 167.016 82.7144 201.186 124.865 201.186C167.016 201.186 201.185 167.016 201.186 124.865C201.186 82.7145 167.016 48.5442 124.865 48.5441ZM201.904 175.476C200.211 175.265 198.614 175.533 197.113 176.283C195.607 177.03 194.272 178.241 193.109 179.916L188.977 185.87L205.634 197.433L209.733 191.527C210.908 189.836 211.583 188.151 211.759 186.474C211.939 184.791 211.63 183.191 210.835 181.675C210.043 180.153 208.78 178.789 207.045 177.585C205.315 176.385 203.601 175.681 201.904 175.476ZM198.374 179.955C199.236 179.501 200.181 179.365 201.21 179.549C202.243 179.728 203.376 180.244 204.606 181.099C205.848 181.96 206.735 182.846 207.27 183.755C207.802 184.655 208.007 185.593 207.885 186.568C207.76 187.535 207.337 188.538 206.614 189.579L205.062 191.817L194.438 184.443L195.997 182.198C196.72 181.157 197.512 180.41 198.374 179.955ZM28.7793 173.366L31.0898 176.978L37.1445 173.103L38.8311 175.738L34.8467 182.849L37.3975 186.835L41.7139 178.964C41.77 179.002 41.8261 179.04 41.8828 179.075C42.9105 179.726 43.9876 180.037 45.1123 180.007C46.2425 179.973 47.3747 179.593 48.5088 178.867C49.6373 178.145 50.4647 177.276 50.9893 176.259C51.5228 175.244 51.7238 174.131 51.5928 172.922C51.4708 171.715 50.9972 170.466 50.1719 169.176L45.8604 162.438L28.7793 173.366ZM124.875 66.2999C125.532 66.3 126.183 66.429 126.79 66.6788C127.397 66.9288 127.948 67.2954 128.412 67.757C140.804 80.0933 154.536 86.1426 169.837 86.1427C171.162 86.1427 172.433 86.6651 173.37 87.5948C174.307 88.5247 174.834 89.7857 174.834 91.1007V120.861C174.834 152.783 158.434 174.481 126.443 185.052C125.418 185.391 124.31 185.391 123.285 185.052C91.3052 174.481 74.8957 152.783 74.8955 120.861V91.1007C74.8956 89.7859 75.4215 88.5246 76.3584 87.5948C77.2954 86.6651 78.5665 86.1428 79.8916 86.1427C95.1822 86.1427 108.915 80.0835 121.337 67.757C121.801 67.2954 122.352 66.9288 122.959 66.6788C123.566 66.4289 124.218 66.2999 124.875 66.2999ZM46.7764 170.373C47.221 171.068 47.4863 171.709 47.5723 172.297C47.6673 172.886 47.5915 173.417 47.3447 173.888C47.1014 174.365 46.6959 174.785 46.1289 175.148C45.5675 175.507 45.0248 175.694 44.501 175.708C43.9807 175.728 43.4797 175.569 42.999 175.234C42.5184 174.9 42.0572 174.388 41.6162 173.698L40.0469 171.245L45.2178 167.938L46.7764 170.373ZM202.558 165.405L221.267 173.226L222.92 169.271L204.211 161.45L202.558 165.405ZM20.4033 149.416L24.791 162.398L28.1396 161.266L25.125 152.346L29.7109 150.796L32.4883 159.013L35.8369 157.881L33.0596 149.664L37.6377 148.117L40.6396 157L43.9883 155.868L39.6133 142.924L20.4033 149.416ZM207.708 155.175L211.177 155.856L212.372 149.764L228.801 152.987L229.617 148.829L213.188 145.605L214.383 139.513L210.914 138.832L207.708 155.175ZM145.515 107.723C143.422 107.723 141.212 108.652 138.887 110.511L116.21 127.94V120.617C116.21 119.849 115.583 119.226 114.811 119.226H96.6758C95.9036 119.226 95.2777 119.849 95.2773 120.617V136.306C95.2776 141.883 100.51 145.02 106.092 145.194C109.813 145.311 113.186 143.625 116.21 140.14L141.328 113.649C143.421 111.557 144.818 110.511 147.26 110.511H153.539C154.586 110.511 155.109 109.813 155.109 109.116C155.109 108.419 154.585 107.723 153.539 107.723H145.515ZM17.7617 120.229L18.0615 124.506L26.417 123.919L27.0264 132.601L18.6709 133.188L18.9707 137.454L39.1982 136.035L38.8984 131.768L30.5527 132.354L29.9434 123.672L38.2891 123.086L37.9893 118.81L17.7617 120.229ZM228.283 118.465L228.736 127.87L223.9 128.103L223.483 119.44L219.952 119.609L220.37 128.274L215.544 128.506L215.093 119.141L211.562 119.311L212.22 132.958L232.474 131.982L231.813 118.294L228.283 118.465ZM221.905 92.8214C220.219 92.509 218.367 92.6658 216.35 93.2921C214.339 93.9165 212.73 94.8342 211.523 96.045C210.315 97.2497 209.544 98.675 209.212 100.319C208.873 101.966 209.005 103.763 209.61 105.711L211.76 112.633L231.125 106.619L228.993 99.754C228.382 97.7874 227.471 96.2182 226.257 95.047C225.041 93.8695 223.59 93.1276 221.905 92.8214ZM28.957 94.5558C27.5183 94.3135 26.2485 94.4297 25.1494 94.9044C24.0558 95.3869 23.1488 96.1742 22.4287 97.2657C21.7073 98.364 21.1921 99.7177 20.8838 101.325C20.5731 102.946 20.5513 104.377 20.8174 105.617C21.0888 106.865 21.6098 107.88 22.3809 108.659C23.1573 109.447 24.1548 109.96 25.3721 110.2C26.2029 110.353 26.9682 110.342 27.667 110.167C28.3645 109.999 29.0011 109.694 29.5762 109.253C30.1512 108.812 30.6705 108.26 31.1338 107.596C31.5971 106.932 32.01 106.184 32.3711 105.353L33.1416 103.646C33.3221 103.23 33.5171 102.844 33.7266 102.487C33.9425 102.132 34.1731 101.827 34.417 101.571C34.6672 101.317 34.9414 101.131 35.2393 101.014C35.536 100.903 35.8619 100.888 36.2158 100.969C36.6436 101.051 37.0022 101.248 37.292 101.559C37.5805 101.876 37.7738 102.289 37.8711 102.798C37.9748 103.308 37.9609 103.908 37.8291 104.595C37.6352 105.606 37.2643 106.366 36.7168 106.872C36.1694 107.379 35.4954 107.595 34.6963 107.523L33.9229 111.558C35.1126 111.766 36.2173 111.649 37.2363 111.206C38.2555 110.763 39.1246 110.035 39.8428 109.024C40.5597 108.019 41.0603 106.777 41.3438 105.299C41.6222 103.847 41.6179 102.502 41.3311 101.264C41.0442 100.026 40.5127 98.9936 39.7373 98.1661C38.9606 97.3451 37.9687 96.8216 36.7617 96.5968C35.2916 96.3082 34.0287 96.5674 32.9736 97.3732C31.9186 98.179 31.0253 99.382 30.2949 100.983L29.335 103.047C29.0208 103.739 28.708 104.315 28.3984 104.773C28.0877 105.237 27.7555 105.57 27.4014 105.771C27.0458 105.978 26.6435 106.039 26.1963 105.953C25.7169 105.861 25.3203 105.634 25.0068 105.272C24.6933 104.909 24.4834 104.442 24.3779 103.87C24.2712 103.305 24.2861 102.666 24.4229 101.953C24.5621 101.227 24.7979 100.597 25.1289 100.063C25.4651 99.5358 25.8861 99.142 26.3926 98.8829C26.9045 98.6317 27.4995 98.5474 28.1758 98.63L28.957 94.5558ZM217.618 97.3771C219.062 96.9288 220.306 96.7738 221.352 96.9122C222.388 97.0464 223.254 97.4624 223.947 98.1593C224.632 98.852 225.162 99.8036 225.538 101.014L226.346 103.614L213.996 107.449L213.187 104.839C212.811 103.629 212.709 102.544 212.881 101.585C213.053 100.626 213.528 99.7976 214.307 99.0997C215.083 98.3955 216.187 97.8214 217.618 97.3771ZM64.5713 47.0548C52.2975 56.4719 42.3121 68.6982 35.5898 82.7677L38.9766 84.3849C45.4405 70.8563 55.0451 59.0939 66.8555 50.0323L64.5713 47.0548ZM182.873 50.0323C194.683 59.0939 204.288 70.8563 210.752 84.3849L214.14 82.7677C207.417 68.6982 197.432 56.4719 185.158 47.0548L182.873 50.0323ZM82.9824 25.9034C81.7994 25.7728 80.5159 25.9536 79.1328 26.4464C77.7874 26.9258 76.6812 27.607 75.8145 28.4894C74.9478 29.3718 74.3782 30.3855 74.1064 31.5304C73.8347 32.6754 73.9026 33.8871 74.3105 35.1652L78.1875 33.7843C77.9886 33.1612 77.9364 32.5807 78.0312 32.0441C78.1261 31.5076 78.3549 31.0401 78.7178 30.6417C79.0807 30.2434 79.5576 29.9382 80.1484 29.7277C80.7142 29.5261 81.2579 29.4606 81.7773 29.5304C82.2945 29.5939 82.749 29.7897 83.1406 30.1173C83.5303 30.4388 83.8164 30.8859 83.999 31.4581C84.1634 31.9731 84.2128 32.49 84.1475 33.0089C84.08 33.5215 83.9183 34.0787 83.6621 34.6798C83.4121 35.2788 83.0857 35.9695 82.6836 36.7501L77.8633 45.6378L78.8135 48.6144L92.583 43.7081L91.5059 40.3312L83.3945 43.2208L83.3516 43.088L85.2803 39.2882C86.2173 37.5947 86.911 36.1819 87.3623 35.0509C87.8116 33.9135 88.0636 32.9347 88.1172 32.1154C88.177 31.2938 88.0889 30.514 87.8535 29.7765C87.4943 28.6511 86.8892 27.7543 86.0391 27.087C85.1889 26.42 84.1696 26.0256 82.9824 25.9034ZM168.851 26.4396C167.731 26.4845 166.656 26.7979 165.628 27.379C164.605 27.963 163.657 28.8061 162.784 29.9083C161.92 31.0071 161.16 32.3529 160.505 33.9454C159.799 35.6827 159.407 37.2385 159.331 38.6124C159.261 39.9892 159.434 41.1962 159.848 42.2325C160.262 43.2689 160.849 44.1451 161.609 44.8605C162.376 45.5785 163.241 46.1537 164.203 46.5861C165.593 47.2072 166.927 47.4689 168.206 47.3702C169.493 47.268 170.634 46.8451 171.627 46.1027C172.626 45.3627 173.388 44.3495 173.911 43.0636C174.394 41.8764 174.572 40.711 174.446 39.5685C174.32 38.4259 173.931 37.4 173.277 36.4913C172.627 35.5766 171.745 34.8739 170.634 34.3829C169.95 34.081 169.256 33.9019 168.552 33.8458C167.856 33.7864 167.185 33.8514 166.539 34.0402C165.902 34.2255 165.328 34.5372 164.818 34.9757L164.69 34.9191C165.454 33.0757 166.369 31.7543 167.436 30.9562C168.508 30.161 169.655 30.0331 170.876 30.5724C171.596 30.8906 172.124 31.3468 172.459 31.9396C172.794 32.5326 172.903 33.1939 172.787 33.923L176.698 35.6505C177.001 34.5517 177.03 33.4524 176.786 32.3527C176.548 31.2556 176.049 30.2509 175.289 29.339C174.532 28.4209 173.527 27.6849 172.275 27.132C171.115 26.6195 169.973 26.3886 168.851 26.4396ZM166.839 36.4366C167.3 36.4362 167.759 36.5382 168.217 36.7404C168.827 37.0101 169.31 37.3983 169.666 37.9054C170.022 38.4126 170.232 38.9763 170.297 39.5958C170.368 40.2179 170.276 40.8442 170.02 41.4747C169.763 42.1053 169.394 42.6135 168.913 42.9991C168.432 43.3847 167.89 43.6196 167.287 43.7032C166.684 43.7868 166.077 43.6936 165.467 43.424C164.856 43.1542 164.372 42.7612 164.013 42.2452C163.66 41.7319 163.446 41.1595 163.371 40.5284C163.303 39.9002 163.393 39.2801 163.642 38.6681C163.828 38.2106 164.085 37.8175 164.413 37.4884C164.744 37.1532 165.116 36.8934 165.528 36.7111C165.947 36.5316 166.384 36.4399 166.839 36.4366ZM141.325 18.8292C139.916 18.596 138.629 18.6574 137.466 19.0128C136.303 19.3683 135.345 19.9847 134.594 20.8615C133.842 21.7383 133.362 22.8396 133.155 24.1652L137.216 24.837C137.317 24.191 137.528 23.6544 137.852 23.2277C138.175 22.8009 138.587 22.4997 139.087 22.3253C139.587 22.151 140.147 22.1155 140.766 22.2179C141.358 22.316 141.87 22.5223 142.301 22.837C142.732 23.1452 143.049 23.5397 143.251 24.0197C143.454 24.493 143.51 25.0267 143.417 25.6202C143.334 26.1543 143.147 26.6341 142.857 27.0597C142.569 27.4787 142.177 27.891 141.682 28.296C141.193 28.7022 140.596 29.1515 139.891 29.6437L131.647 35.13L131.165 38.2159L145.588 40.6027L146.134 37.1007L137.639 35.6954L137.66 35.5568L141.066 33.1466C142.653 32.1104 143.9 31.2039 144.805 30.4269C145.711 29.6432 146.37 28.9024 146.782 28.2062C147.201 27.5112 147.471 26.7816 147.591 26.0167C147.773 24.8494 147.635 23.7636 147.177 22.7609C146.719 21.7584 145.989 20.9141 144.988 20.2277C143.995 19.5357 142.774 19.069 141.325 18.8292ZM114.931 19.4425C113.638 18.7272 112.137 18.4451 110.429 18.5978C108.72 18.7506 107.279 19.2948 106.104 20.2306C104.937 21.1592 104.08 22.4393 103.534 24.0695C102.995 25.6991 102.81 27.6289 102.979 29.8585C103.141 32.0953 103.611 33.98 104.39 35.5118C105.175 37.0429 106.215 38.1727 107.508 38.9015C108.808 39.6296 110.317 39.9211 112.032 39.7745C113.747 39.6212 115.188 39.0696 116.354 38.1212C117.521 37.1726 118.373 35.8733 118.911 34.2238C119.456 32.5736 119.643 30.6269 119.474 28.3839C119.311 26.1536 118.838 24.2861 118.055 22.7814C117.271 21.2702 116.23 20.1573 114.931 19.4425ZM110.697 22.1427C111.475 22.0732 112.17 22.2724 112.781 22.7404C113.399 23.2078 113.902 23.9439 114.293 24.9474C114.69 25.9505 114.948 27.2277 115.065 28.7784C115.25 31.1337 115.038 32.9316 114.43 34.172C113.821 35.4124 112.931 36.085 111.761 36.1896C110.983 36.259 110.285 36.0603 109.667 35.5929C109.049 35.1188 108.541 34.3736 108.143 33.3575C107.75 32.3338 107.495 31.0357 107.376 29.465C107.207 27.1416 107.427 25.3659 108.037 24.1388C108.647 22.9119 109.534 22.2468 110.697 22.1427Z" fill="#1A172F"/>
<path d="M124.865 6.63C190.164 6.63018 243.1 59.5661 243.1 124.865C243.099 190.165 190.164 243.1 124.865 243.1C59.5659 243.1 6.63006 190.165 6.62988 124.865C6.62988 59.566 59.5658 6.63 124.865 6.63ZM126.455 212.443L119.327 221.521L119.06 221.526L118.892 212.586L114.605 212.667L114.987 232.941L119.273 232.86L119.165 227.099L121.225 224.485L126.936 232.716L132.063 232.619L124.24 221.567L131.593 212.347L126.455 212.443ZM100.438 208.661C98.7091 208.232 97.0535 208.242 95.4727 208.693C93.8935 209.137 92.513 210.011 91.332 211.316C90.151 212.62 89.2938 214.346 88.7607 216.492C88.2292 218.632 88.1734 220.553 88.5938 222.256C89.0205 223.96 89.8242 225.38 91.0039 226.517C92.1901 227.655 93.6611 228.442 95.416 228.878C96.6778 229.192 97.8561 229.284 98.9492 229.154C100.05 229.02 101.045 228.716 101.931 228.242C102.825 227.764 103.59 227.161 104.226 226.435C104.87 225.704 105.359 224.901 105.692 224.025L101.488 222.959C101.262 223.46 100.972 223.886 100.62 224.234C100.275 224.583 99.8805 224.856 99.4375 225.052C98.9961 225.241 98.5168 225.35 98 225.378C97.4896 225.408 96.9555 225.353 96.3984 225.215C95.4057 224.968 94.5909 224.508 93.9561 223.833C93.3212 223.159 92.9113 222.291 92.7256 221.232C92.5463 220.174 92.631 218.943 92.9795 217.54C93.3184 216.176 93.8144 215.068 94.4678 214.217C95.1228 213.36 95.8906 212.775 96.7705 212.463C97.6521 212.145 98.6026 212.112 99.6211 212.365C100.184 212.505 100.687 212.715 101.127 212.994C101.574 213.275 101.946 213.613 102.243 214.006C102.54 214.399 102.753 214.84 102.884 215.328C103.016 215.81 103.053 216.333 102.994 216.897L107.203 217.942C107.352 216.768 107.296 215.679 107.035 214.676C106.781 213.674 106.351 212.775 105.746 211.979C105.143 211.176 104.391 210.493 103.49 209.929C102.596 209.367 101.579 208.944 100.438 208.661ZM155.519 207.267L157.624 228.614L161.799 226.696L161.234 221.866L167.887 218.81L171.182 222.385L175.356 220.467L160.538 204.96L155.519 207.267ZM165.502 216.223L160.826 218.371L159.891 210.357L160.035 210.291L165.502 216.223ZM73.8096 197.307C72.1634 197.301 70.5943 197.765 69.1025 198.698C67.6107 199.632 66.3153 201.059 65.2178 202.979C64.1235 204.892 63.5519 206.729 63.5039 208.488C63.4559 210.248 63.8514 211.838 64.6885 213.26C65.5255 214.681 66.7261 215.839 68.29 216.734C69.8427 217.621 71.4427 218.069 73.0889 218.075C74.7442 218.079 76.3186 217.613 77.8105 216.68C79.3081 215.749 80.6056 214.324 81.7031 212.404C82.8007 210.485 83.3708 208.644 83.4131 206.881C83.461 205.122 83.0619 203.532 82.2158 202.113C81.3787 200.692 80.1836 199.537 78.6309 198.65C77.0666 197.755 75.4592 197.307 73.8096 197.307ZM74.0146 201.257C74.9372 201.199 75.8486 201.427 76.748 201.942C77.6476 202.456 78.3074 203.126 78.7256 203.95C79.1435 204.775 79.2914 205.719 79.1699 206.782C79.0541 207.849 78.6406 209.004 77.9297 210.247C77.2187 211.491 76.4329 212.433 75.5723 213.073C74.7174 213.717 73.8288 214.069 72.9062 214.127C71.9836 214.185 71.0724 213.956 70.1729 213.442C69.2735 212.927 68.6144 212.258 68.1963 211.434C67.7783 210.609 67.6266 209.663 67.7422 208.597C67.8636 207.533 68.2803 206.379 68.9912 205.136C69.7021 203.893 70.4851 202.949 71.3398 202.305C72.2003 201.664 73.0922 201.315 74.0146 201.257ZM179.991 192.939L188.188 202.774C188.682 203.367 188.989 204.004 189.11 204.685C189.236 205.362 189.171 206.031 188.914 206.692C188.662 207.348 188.217 207.943 187.578 208.476C186.944 209.004 186.278 209.334 185.582 209.468C184.886 209.601 184.213 209.547 183.565 209.306C182.922 209.06 182.354 208.64 181.859 208.047L173.663 198.213L170.369 200.957L178.8 211.073C179.746 212.209 180.844 212.979 182.091 213.383C183.338 213.787 184.645 213.824 186.011 213.493C187.372 213.158 188.7 212.451 189.993 211.373C191.281 210.3 192.213 209.123 192.788 207.845C193.359 206.561 193.558 205.27 193.386 203.97C193.218 202.666 192.661 201.446 191.715 200.31L183.284 190.193L179.991 192.939ZM43.5361 195.497L52.8711 204.517L55.3271 201.975L49.0752 195.935L60.709 183.894L57.626 180.915L43.5361 195.497ZM124.865 48.5441C82.7143 48.5441 48.5439 82.7144 48.5439 124.865C48.5441 167.016 82.7144 201.186 124.865 201.186C167.016 201.186 201.185 167.016 201.186 124.865C201.186 82.7145 167.016 48.5442 124.865 48.5441ZM201.904 175.476C200.211 175.265 198.614 175.533 197.113 176.283C195.607 177.03 194.272 178.241 193.109 179.916L188.977 185.87L205.634 197.433L209.733 191.527C210.908 189.836 211.583 188.151 211.759 186.474C211.939 184.791 211.63 183.191 210.835 181.675C210.043 180.153 208.78 178.789 207.045 177.585C205.315 176.385 203.601 175.681 201.904 175.476ZM198.374 179.955C199.236 179.501 200.181 179.365 201.21 179.549C202.243 179.728 203.376 180.244 204.606 181.099C205.848 181.96 206.735 182.846 207.27 183.755C207.802 184.655 208.007 185.593 207.885 186.568C207.76 187.535 207.337 188.538 206.614 189.579L205.062 191.817L194.438 184.443L195.997 182.198C196.72 181.157 197.512 180.41 198.374 179.955ZM28.7793 173.366L31.0898 176.978L37.1445 173.103L38.8311 175.738L34.8467 182.849L37.3975 186.835L41.7139 178.964C41.77 179.002 41.8261 179.04 41.8828 179.075C42.9105 179.726 43.9876 180.037 45.1123 180.007C46.2425 179.973 47.3747 179.593 48.5088 178.867C49.6373 178.145 50.4647 177.276 50.9893 176.259C51.5228 175.244 51.7238 174.131 51.5928 172.922C51.4708 171.715 50.9972 170.466 50.1719 169.176L45.8604 162.438L28.7793 173.366ZM124.875 66.2999C125.532 66.3 126.183 66.429 126.79 66.6788C127.397 66.9288 127.948 67.2954 128.412 67.757C140.804 80.0933 154.536 86.1426 169.837 86.1427C171.162 86.1427 172.433 86.6651 173.37 87.5948C174.307 88.5247 174.834 89.7857 174.834 91.1007V120.861C174.834 152.783 158.434 174.481 126.443 185.052C125.418 185.391 124.31 185.391 123.285 185.052C91.3052 174.481 74.8957 152.783 74.8955 120.861V91.1007C74.8956 89.7859 75.4215 88.5246 76.3584 87.5948C77.2954 86.6651 78.5665 86.1428 79.8916 86.1427C95.1822 86.1427 108.915 80.0835 121.337 67.757C121.801 67.2954 122.352 66.9288 122.959 66.6788C123.566 66.4289 124.218 66.2999 124.875 66.2999ZM46.7764 170.373C47.221 171.068 47.4863 171.709 47.5723 172.297C47.6673 172.886 47.5915 173.417 47.3447 173.888C47.1014 174.365 46.6959 174.785 46.1289 175.148C45.5675 175.507 45.0248 175.694 44.501 175.708C43.9807 175.728 43.4797 175.569 42.999 175.234C42.5184 174.9 42.0572 174.388 41.6162 173.698L40.0469 171.245L45.2178 167.938L46.7764 170.373ZM202.558 165.405L221.267 173.226L222.92 169.271L204.211 161.45L202.558 165.405ZM20.4033 149.416L24.791 162.398L28.1396 161.266L25.125 152.346L29.7109 150.796L32.4883 159.013L35.8369 157.881L33.0596 149.664L37.6377 148.117L40.6396 157L43.9883 155.868L39.6133 142.924L20.4033 149.416ZM207.708 155.175L211.177 155.856L212.372 149.764L228.801 152.987L229.617 148.829L213.188 145.605L214.383 139.513L210.914 138.832L207.708 155.175ZM145.515 107.723C143.422 107.723 141.212 108.652 138.887 110.511L116.21 127.94V120.617C116.21 119.849 115.583 119.226 114.811 119.226H96.6758C95.9036 119.226 95.2777 119.849 95.2773 120.617V136.306C95.2776 141.883 100.51 145.02 106.092 145.194C109.813 145.311 113.186 143.625 116.21 140.14L141.328 113.649C143.421 111.557 144.818 110.511 147.26 110.511H153.539C154.586 110.511 155.109 109.813 155.109 109.116C155.109 108.419 154.585 107.723 153.539 107.723H145.515ZM17.7617 120.229L18.0615 124.506L26.417 123.919L27.0264 132.601L18.6709 133.188L18.9707 137.454L39.1982 136.035L38.8984 131.768L30.5527 132.354L29.9434 123.672L38.2891 123.086L37.9893 118.81L17.7617 120.229ZM228.283 118.465L228.736 127.87L223.9 128.103L223.483 119.44L219.952 119.609L220.37 128.274L215.544 128.506L215.093 119.141L211.562 119.311L212.22 132.958L232.474 131.982L231.813 118.294L228.283 118.465ZM221.905 92.8214C220.219 92.509 218.367 92.6658 216.35 93.2921C214.339 93.9165 212.73 94.8342 211.523 96.045C210.315 97.2497 209.544 98.675 209.212 100.319C208.873 101.966 209.005 103.763 209.61 105.711L211.76 112.633L231.125 106.619L228.993 99.754C228.382 97.7874 227.471 96.2182 226.257 95.047C225.041 93.8695 223.59 93.1276 221.905 92.8214ZM28.957 94.5558C27.5183 94.3135 26.2485 94.4297 25.1494 94.9044C24.0558 95.3869 23.1488 96.1742 22.4287 97.2657C21.7073 98.364 21.1921 99.7177 20.8838 101.325C20.5731 102.946 20.5513 104.377 20.8174 105.617C21.0888 106.865 21.6098 107.88 22.3809 108.659C23.1573 109.447 24.1548 109.96 25.3721 110.2C26.2029 110.353 26.9682 110.342 27.667 110.167C28.3645 109.999 29.0011 109.694 29.5762 109.253C30.1512 108.812 30.6705 108.26 31.1338 107.596C31.5971 106.932 32.01 106.184 32.3711 105.353L33.1416 103.646C33.3221 103.23 33.5171 102.844 33.7266 102.487C33.9425 102.132 34.1731 101.827 34.417 101.571C34.6672 101.317 34.9414 101.131 35.2393 101.014C35.536 100.903 35.8619 100.888 36.2158 100.969C36.6436 101.051 37.0022 101.248 37.292 101.559C37.5805 101.876 37.7738 102.289 37.8711 102.798C37.9748 103.308 37.9609 103.908 37.8291 104.595C37.6352 105.606 37.2643 106.366 36.7168 106.872C36.1694 107.379 35.4954 107.595 34.6963 107.523L33.9229 111.558C35.1126 111.766 36.2173 111.649 37.2363 111.206C38.2555 110.763 39.1246 110.035 39.8428 109.024C40.5597 108.019 41.0603 106.777 41.3438 105.299C41.6222 103.847 41.6179 102.502 41.3311 101.264C41.0442 100.026 40.5127 98.9936 39.7373 98.1661C38.9606 97.3451 37.9687 96.8216 36.7617 96.5968C35.2916 96.3082 34.0287 96.5674 32.9736 97.3732C31.9186 98.179 31.0253 99.382 30.2949 100.983L29.335 103.047C29.0208 103.739 28.708 104.315 28.3984 104.773C28.0877 105.237 27.7555 105.57 27.4014 105.771C27.0458 105.978 26.6435 106.039 26.1963 105.953C25.7169 105.861 25.3203 105.634 25.0068 105.272C24.6933 104.909 24.4834 104.442 24.3779 103.87C24.2712 103.305 24.2861 102.666 24.4229 101.953C24.5621 101.227 24.7979 100.597 25.1289 100.063C25.4651 99.5358 25.8861 99.142 26.3926 98.8829C26.9045 98.6317 27.4995 98.5474 28.1758 98.63L28.957 94.5558ZM217.618 97.3771C219.062 96.9288 220.306 96.7738 221.352 96.9122C222.388 97.0464 223.254 97.4624 223.947 98.1593C224.632 98.852 225.162 99.8036 225.538 101.014L226.346 103.614L213.996 107.449L213.187 104.839C212.811 103.629 212.709 102.544 212.881 101.585C213.053 100.626 213.528 99.7976 214.307 99.0997C215.083 98.3955 216.187 97.8214 217.618 97.3771ZM64.5713 47.0548C52.2975 56.4719 42.3121 68.6982 35.5898 82.7677L38.9766 84.3849C45.4405 70.8563 55.0451 59.0939 66.8555 50.0323L64.5713 47.0548ZM182.873 50.0323C194.683 59.0939 204.288 70.8563 210.752 84.3849L214.14 82.7677C207.417 68.6982 197.432 56.4719 185.158 47.0548L182.873 50.0323ZM82.9824 25.9034C81.7994 25.7728 80.5159 25.9536 79.1328 26.4464C77.7874 26.9258 76.6812 27.607 75.8145 28.4894C74.9478 29.3718 74.3782 30.3855 74.1064 31.5304C73.8347 32.6754 73.9026 33.8871 74.3105 35.1652L78.1875 33.7843C77.9886 33.1612 77.9364 32.5807 78.0312 32.0441C78.1261 31.5076 78.3549 31.0401 78.7178 30.6417C79.0807 30.2434 79.5576 29.9382 80.1484 29.7277C80.7142 29.5261 81.2579 29.4606 81.7773 29.5304C82.2945 29.5939 82.749 29.7897 83.1406 30.1173C83.5303 30.4388 83.8164 30.8859 83.999 31.4581C84.1634 31.9731 84.2128 32.49 84.1475 33.0089C84.08 33.5215 83.9183 34.0787 83.6621 34.6798C83.4121 35.2788 83.0857 35.9695 82.6836 36.7501L77.8633 45.6378L78.8135 48.6144L92.583 43.7081L91.5059 40.3312L83.3945 43.2208L83.3516 43.088L85.2803 39.2882C86.2173 37.5947 86.911 36.1819 87.3623 35.0509C87.8116 33.9135 88.0636 32.9347 88.1172 32.1154C88.177 31.2938 88.0889 30.514 87.8535 29.7765C87.4943 28.6511 86.8892 27.7543 86.0391 27.087C85.1889 26.42 84.1696 26.0256 82.9824 25.9034ZM168.851 26.4396C167.731 26.4845 166.656 26.7979 165.628 27.379C164.605 27.963 163.657 28.8061 162.784 29.9083C161.92 31.0071 161.16 32.3529 160.505 33.9454C159.799 35.6827 159.407 37.2385 159.331 38.6124C159.261 39.9892 159.434 41.1962 159.848 42.2325C160.262 43.2689 160.849 44.1451 161.609 44.8605C162.376 45.5785 163.241 46.1537 164.203 46.5861C165.593 47.2072 166.927 47.4689 168.206 47.3702C169.493 47.268 170.634 46.8451 171.627 46.1027C172.626 45.3627 173.388 44.3495 173.911 43.0636C174.394 41.8764 174.572 40.711 174.446 39.5685C174.32 38.4259 173.931 37.4 173.277 36.4913C172.627 35.5766 171.745 34.8739 170.634 34.3829C169.95 34.081 169.256 33.9019 168.552 33.8458C167.856 33.7864 167.185 33.8514 166.539 34.0402C165.902 34.2255 165.328 34.5372 164.818 34.9757L164.69 34.9191C165.454 33.0757 166.369 31.7543 167.436 30.9562C168.508 30.161 169.655 30.0331 170.876 30.5724C171.596 30.8906 172.124 31.3468 172.459 31.9396C172.794 32.5326 172.903 33.1939 172.787 33.923L176.698 35.6505C177.001 34.5517 177.03 33.4524 176.786 32.3527C176.548 31.2556 176.049 30.2509 175.289 29.339C174.532 28.4209 173.527 27.6849 172.275 27.132C171.115 26.6195 169.973 26.3886 168.851 26.4396ZM166.839 36.4366C167.3 36.4362 167.759 36.5382 168.217 36.7404C168.827 37.0101 169.31 37.3983 169.666 37.9054C170.022 38.4126 170.232 38.9763 170.297 39.5958C170.368 40.2179 170.276 40.8442 170.02 41.4747C169.763 42.1053 169.394 42.6135 168.913 42.9991C168.432 43.3847 167.89 43.6196 167.287 43.7032C166.684 43.7868 166.077 43.6936 165.467 43.424C164.856 43.1542 164.372 42.7612 164.013 42.2452C163.66 41.7319 163.446 41.1595 163.371 40.5284C163.303 39.9002 163.393 39.2801 163.642 38.6681C163.828 38.2106 164.085 37.8175 164.413 37.4884C164.744 37.1532 165.116 36.8934 165.528 36.7111C165.947 36.5316 166.384 36.4399 166.839 36.4366ZM141.325 18.8292C139.916 18.596 138.629 18.6574 137.466 19.0128C136.303 19.3683 135.345 19.9847 134.594 20.8615C133.842 21.7383 133.362 22.8396 133.155 24.1652L137.216 24.837C137.317 24.191 137.528 23.6544 137.852 23.2277C138.175 22.8009 138.587 22.4997 139.087 22.3253C139.587 22.151 140.147 22.1155 140.766 22.2179C141.358 22.316 141.87 22.5223 142.301 22.837C142.732 23.1452 143.049 23.5397 143.251 24.0197C143.454 24.493 143.51 25.0267 143.417 25.6202C143.334 26.1543 143.147 26.6341 142.857 27.0597C142.569 27.4787 142.177 27.891 141.682 28.296C141.193 28.7022 140.596 29.1515 139.891 29.6437L131.647 35.13L131.165 38.2159L145.588 40.6027L146.134 37.1007L137.639 35.6954L137.66 35.5568L141.066 33.1466C142.653 32.1104 143.9 31.2039 144.805 30.4269C145.711 29.6432 146.37 28.9024 146.782 28.2062C147.201 27.5112 147.471 26.7816 147.591 26.0167C147.773 24.8494 147.635 23.7636 147.177 22.7609C146.719 21.7584 145.989 20.9141 144.988 20.2277C143.995 19.5357 142.774 19.069 141.325 18.8292ZM114.931 19.4425C113.638 18.7272 112.137 18.4451 110.429 18.5978C108.72 18.7506 107.279 19.2948 106.104 20.2306C104.937 21.1592 104.08 22.4393 103.534 24.0695C102.995 25.6991 102.81 27.6289 102.979 29.8585C103.141 32.0953 103.611 33.98 104.39 35.5118C105.175 37.0429 106.215 38.1727 107.508 38.9015C108.808 39.6296 110.317 39.9211 112.032 39.7745C113.747 39.6212 115.188 39.0696 116.354 38.1212C117.521 37.1726 118.373 35.8733 118.911 34.2238C119.456 32.5736 119.643 30.6269 119.474 28.3839C119.311 26.1536 118.838 24.2861 118.055 22.7814C117.271 21.2702 116.23 20.1573 114.931 19.4425ZM110.697 22.1427C111.475 22.0732 112.17 22.2724 112.781 22.7404C113.399 23.2078 113.902 23.9439 114.293 24.9474C114.69 25.9505 114.948 27.2277 115.065 28.7784C115.25 31.1337 115.038 32.9316 114.43 34.172C113.821 35.4124 112.931 36.085 111.761 36.1896C110.983 36.259 110.285 36.0603 109.667 35.5929C109.049 35.1188 108.541 34.3736 108.143 33.3575C107.75 32.3338 107.495 31.0357 107.376 29.465C107.207 27.1416 107.427 25.3659 108.037 24.1388C108.647 22.9119 109.534 22.2468 110.697 22.1427Z" fill="url(#paint1_linear_145_1543)" fill-opacity="0.45"/>
</g>
<defs>
<filter id="filter0_i_145_1543" x="6.62988" y="6.63" width="236.47" height="239.47" filterUnits="userSpaceOnUse" color-interpolation-filters="sRGB">
<feFlood flood-opacity="0" result="BackgroundImageFix"/>
<feBlend mode="normal" in="SourceGraphic" in2="BackgroundImageFix" result="shape"/>
<feColorMatrix in="SourceAlpha" type="matrix" values="0 0 0 0 0 0 0 0 0 0 0 0 0 0 0 0 0 0 127 0" result="hardAlpha"/>
<feOffset dy="3"/>
<feGaussianBlur stdDeviation="2"/>
<feComposite in2="hardAlpha" operator="arithmetic" k2="-1" k3="1"/>
<feColorMatrix type="matrix" values="0 0 0 0 0.752941 0 0 0 0 0.709804 0 0 0 0 1 0 0 0 0.3 0"/>
<feBlend mode="normal" in2="shape" result="effect1_innerShadow_145_1543"/>
</filter>
<linearGradient id="paint0_linear_145_1543" x1="32.0716" y1="170.427" x2="176.021" y2="49.5991" gradientUnits="userSpaceOnUse">
<stop offset="0.281768" stop-color="#1A172F"/>
<stop offset="0.498189" stop-color="#5C5592"/>
<stop offset="0.529092" stop-color="#9B91DE"/>
<stop offset="0.814536" stop-color="#1A172F"/>
</linearGradient>
<linearGradient id="paint1_linear_145_1543" x1="36.9827" y1="167.924" x2="173.218" y2="53.571" gradientUnits="userSpaceOnUse">
<stop offset="0.281768" stop-color="#1A172F"/>
<stop offset="0.498189" stop-color="#5C5592"/>
<stop offset="0.529092" stop-color="#9B91DE"/>
<stop offset="0.814536" stop-color="#1A172F"/>
</linearGradient>
</defs>
</svg>
