<svg width="250" height="250" viewBox="0 0 250 250" fill="none" xmlns="http://www.w3.org/2000/svg">
<path d="M125.247 65.1461V65.1442C126.046 65.1447 126.838 65.311 127.572 65.6344L165.357 82.276C167.483 83.2118 169.294 84.768 170.567 86.7506C171.84 88.7333 172.519 91.0564 172.52 93.4313V135.053C172.521 142.544 170.594 149.902 166.934 156.381C163.273 162.861 158.009 168.231 151.677 171.948L128.175 185.737C127.283 186.26 126.274 186.534 125.247 186.535V186.532L125.246 186.535L125.242 186.536C124.214 186.536 123.204 186.26 122.312 185.737L98.8105 171.948C92.478 168.231 87.214 162.861 83.5537 156.381C79.8936 149.902 77.9665 142.544 77.9678 135.053V93.4313C77.968 91.0562 78.6469 88.7334 79.9199 86.7506C81.193 84.7679 83.0044 83.2118 85.1299 82.276L122.914 65.6344C123.65 65.3106 124.442 65.1442 125.242 65.1442H125.246L125.247 65.1461ZM146.072 105.404C143.895 105.404 141.597 106.373 139.179 108.309L115.597 126.465V118.838C115.597 118.036 114.945 117.387 114.142 117.387H95.2832C94.4798 117.387 93.8282 118.036 93.8281 118.838V135.179C93.8281 140.989 99.2703 144.258 105.075 144.439C108.945 144.56 112.452 142.805 115.597 139.174L141.719 111.578C143.895 109.399 145.346 108.309 147.886 108.309H154.417C155.505 108.309 156.049 107.583 156.049 106.857C156.049 106.131 155.505 105.404 154.417 105.404H146.072Z" fill="white"/>
<path d="M124.957 7C190.102 7.00023 242.913 59.8115 242.913 124.957C242.913 190.102 190.102 242.913 124.957 242.913C59.8115 242.913 7.00023 190.102 7 124.957C7 59.8114 59.8114 7 124.957 7ZM76.7656 214.049C91.1417 221.967 107.651 226.469 125.202 226.469C129.214 226.469 133.171 226.234 137.062 225.776C138.61 225.594 140.148 225.377 141.675 225.125L141.413 223.543L141.152 221.961C139.675 222.205 138.186 222.415 136.687 222.592C132.92 223.035 129.088 223.263 125.202 223.263C108.205 223.263 92.2272 218.904 78.3125 211.24L76.7656 214.049ZM156.043 208.976C154.358 209.636 153.031 210.536 152.063 211.676C151.098 212.821 150.529 214.145 150.357 215.646C150.18 217.148 150.431 218.764 151.108 220.492C151.784 222.215 152.696 223.566 153.846 224.542C154.997 225.524 156.315 226.103 157.8 226.281C159.281 226.467 160.867 226.229 162.558 225.566L168.684 223.164L162.177 206.57L156.043 208.976ZM163.332 221.317L161.42 222.067C160.469 222.44 159.607 222.594 158.834 222.529C158.058 222.472 157.362 222.153 156.747 221.571C156.135 220.995 155.595 220.109 155.127 218.916C154.659 217.723 154.452 216.701 154.505 215.852C154.555 215.009 154.841 214.301 155.364 213.729C155.884 213.163 156.609 212.698 157.538 212.334L159.507 211.562L163.332 221.317ZM170.395 202.22L172.422 205.071L179.04 200.366L181.163 203.353L175.062 207.689L177.095 210.548L183.194 206.211L185.312 209.19L178.694 213.896L180.723 216.746L190.852 209.546L180.523 195.02L170.395 202.22ZM62.667 195.871L68.6143 199.972L68.5498 200.064L65.6777 200.474C63.974 200.666 62.6041 200.894 61.5684 201.159C60.5278 201.421 59.7048 201.75 59.1016 202.145C58.4985 202.539 58.0044 203.016 57.6191 203.574C57.0131 204.453 56.7082 205.382 56.7041 206.358C56.6921 207.337 56.9677 208.295 57.5322 209.234C58.0968 210.173 58.936 211.027 60.0488 211.794C61.1282 212.538 62.2136 212.993 63.3037 213.16C64.3856 213.328 65.4011 213.204 66.3506 212.788C67.3 212.372 68.1193 211.665 68.8076 210.667L65.4482 208.35C65.142 208.794 64.7972 209.113 64.416 209.309C64.0301 209.5 63.6284 209.572 63.2109 209.523C62.7901 209.48 62.3766 209.318 61.9707 209.038C61.5695 208.761 61.2672 208.437 61.0654 208.065C60.8639 207.694 60.7757 207.302 60.7998 206.889C60.8207 206.48 60.971 206.072 61.251 205.666C61.5011 205.303 61.8071 205.018 62.1689 204.81C62.5278 204.606 62.9547 204.448 63.4473 204.337C63.9365 204.23 64.5069 204.134 65.1582 204.048L73.7412 203.053L75.5 200.502L64.6387 193.012L62.667 195.871ZM124.956 46.9531C81.8761 46.9533 46.9533 81.8761 46.9531 124.956C46.9531 168.036 81.876 202.96 124.956 202.96C168.036 202.96 202.96 168.036 202.96 124.956C202.96 81.876 168.036 46.9531 124.956 46.9531ZM190.359 186.275L201.113 195.738L197.543 199.796L200.169 202.107L210.122 190.799L207.495 188.486L203.919 192.551L193.165 183.087L190.359 186.275ZM51.5635 179.072C50.2665 178.716 48.8943 178.769 47.4473 179.233C46 179.698 44.5401 180.578 43.0693 181.875C41.6035 183.16 40.5586 184.484 39.9346 185.847C39.3107 187.209 39.1054 188.551 39.3184 189.871C39.5233 191.191 40.1397 192.435 41.168 193.601C42.1963 194.767 43.3528 195.535 44.6367 195.903C45.9126 196.271 47.2664 196.23 48.6963 195.781C50.1179 195.332 51.564 194.463 53.0342 193.174C54.5042 191.885 55.5598 190.552 56.2012 189.174C56.8381 187.8 57.0634 186.445 56.876 185.109C56.6841 183.778 56.0733 182.528 55.0449 181.362C54.0127 180.192 52.8522 179.429 51.5635 179.072ZM49.8467 182.942C50.9356 182.748 51.7874 182.998 52.4014 183.693C52.8081 184.155 53.0112 184.7 53.0088 185.329C53.0019 185.962 52.7622 186.66 52.291 187.424C51.8159 188.183 51.0863 188.993 50.1035 189.852C48.6554 191.121 47.3954 191.849 46.3232 192.037C45.2466 192.229 44.4022 191.978 43.792 191.286C43.3819 190.821 43.1779 190.278 43.1797 189.658C43.1816 189.038 43.4119 188.35 43.8701 187.598C44.324 186.849 45.0342 186.049 46 185.197C47.471 183.892 48.7533 183.141 49.8467 182.942ZM200.906 171.388L216.333 180.314L218.491 176.586L203.064 167.659L200.906 171.388ZM37.0811 158.613L40.4062 165.025L40.3057 165.078L37.5781 164.091C35.9833 163.46 34.666 163.02 33.627 162.768C32.5852 162.51 31.7051 162.414 30.9873 162.479C30.2697 162.545 29.6093 162.733 29.0068 163.045C28.0591 163.536 27.3538 164.213 26.8916 165.073C26.4216 165.931 26.2158 166.908 26.2734 168.002C26.3311 169.096 26.6708 170.243 27.293 171.443C27.8966 172.607 28.6412 173.519 29.5254 174.178C30.4017 174.834 31.3568 175.202 32.3906 175.28C33.4245 175.358 34.4803 175.119 35.5566 174.561L33.6768 170.937C33.198 171.185 32.7445 171.306 32.3164 171.3C31.8857 171.288 31.4973 171.162 31.1514 170.924C30.8002 170.688 30.5112 170.35 30.2842 169.912C30.0598 169.479 29.945 169.052 29.9414 168.629C29.9378 168.206 30.0437 167.818 30.2588 167.465C30.469 167.114 30.7937 166.825 31.2314 166.598C31.6227 166.395 32.027 166.286 32.4443 166.272C32.8566 166.261 33.3069 166.321 33.7939 166.454C34.276 166.59 34.8256 166.773 35.4414 167.003L43.4863 170.153L46.2373 168.728L40.1631 157.015L37.0811 158.613ZM210.533 151.55C209.979 153.273 209.838 154.87 210.108 156.341C210.384 157.813 211.049 159.09 212.103 160.173C213.154 161.261 214.564 162.089 216.331 162.657C218.093 163.224 219.715 163.372 221.198 163.1C222.687 162.829 223.971 162.174 225.048 161.137C226.128 160.107 226.947 158.728 227.503 157L229.519 150.736L212.551 145.278L210.533 151.55ZM224.703 153.713L224.074 155.668C223.762 156.64 223.336 157.405 222.797 157.963C222.262 158.528 221.573 158.865 220.734 158.973C219.901 159.082 218.874 158.941 217.653 158.549C216.433 158.156 215.51 157.67 214.886 157.091C214.265 156.519 213.898 155.85 213.785 155.083C213.676 154.323 213.774 153.467 214.08 152.517L214.729 150.504L224.703 153.713ZM32.6758 137.184C31.6144 136.834 30.4798 136.806 29.2734 137.1C28.2001 137.35 27.3019 137.799 26.5801 138.448C25.8526 139.099 25.3447 139.88 25.0547 140.79C24.7648 141.7 24.7437 142.675 24.9912 143.713C25.1459 144.362 25.3937 144.953 25.7354 145.485C26.0701 146.014 26.4773 146.456 26.9561 146.813C27.4347 147.17 27.9616 147.406 28.5371 147.52L28.5635 147.629C27.0202 147.985 25.7263 148.014 24.6826 147.714C23.638 147.408 22.9893 146.725 22.7363 145.664C22.5991 145.089 22.6243 144.556 22.8125 144.07C22.9938 143.58 23.3437 143.208 23.8613 142.953L22.8779 138.83C21.9316 139.163 21.1305 139.704 20.4736 140.451C19.8112 141.2 19.3558 142.095 19.1094 143.138C18.8561 144.176 18.8748 145.302 19.1641 146.516C19.4278 147.622 19.8775 148.574 20.5146 149.37C21.1448 150.162 21.9348 150.785 22.8838 151.238C23.8315 151.686 24.9167 151.947 26.1387 152.02C27.3551 152.093 28.6783 151.963 30.1074 151.628C31.6889 151.257 32.9835 150.745 33.9912 150.093C34.9932 149.442 35.7528 148.698 36.2686 147.859C36.7786 147.022 37.0853 146.131 37.1885 145.188C37.286 144.247 37.2212 143.302 36.9951 142.354C36.6789 141.027 36.1446 139.923 35.3916 139.041C34.6372 138.153 33.7315 137.534 32.6758 137.184ZM30.3789 141.131C30.9022 141 31.4004 141 31.873 141.132C32.3458 141.264 32.7523 141.505 33.0918 141.854C33.4311 142.202 33.6618 142.633 33.7842 143.146C33.9065 143.66 33.8941 144.146 33.7471 144.604C33.5943 145.064 33.337 145.46 32.9746 145.791C32.6123 146.122 32.175 146.351 31.6631 146.479C31.2724 146.567 30.8936 146.581 30.5283 146.525C30.1576 146.471 29.8194 146.355 29.5146 146.177C29.203 145.995 28.9378 145.756 28.7188 145.463C28.4997 145.169 28.345 144.833 28.2549 144.455C28.1312 143.936 28.1421 143.448 28.2891 142.989C28.4348 142.525 28.6869 142.131 29.0449 141.807C29.4017 141.477 29.8471 141.252 30.3789 141.131ZM220.764 122.664C219.435 122.654 218.274 122.958 217.283 123.577C216.298 124.196 215.532 125.069 214.983 126.196C214.441 127.323 214.163 128.644 214.151 130.158C214.14 131.655 214.397 132.972 214.922 134.107C215.453 135.243 216.206 136.131 217.182 136.771C218.163 137.41 219.318 137.736 220.646 137.746L232.143 137.835L232.176 133.536L221.054 133.449C220.439 133.444 219.891 133.305 219.412 133.028C218.933 132.752 218.559 132.368 218.29 131.879C218.021 131.395 217.889 130.831 217.894 130.188C217.899 129.544 218.039 128.979 218.315 128.494C218.592 128.009 218.972 127.631 219.456 127.362C219.94 127.099 220.489 126.97 221.104 126.975L232.227 127.062L232.26 122.754L220.764 122.664ZM39.8604 71.3916C30.0552 86.9969 24.3819 105.48 24.3818 125.287C24.3818 126.06 24.391 126.832 24.4082 127.602L27.6133 127.529C27.5966 126.784 27.5889 126.036 27.5889 125.287C27.5889 106.1 33.0819 88.2055 42.5752 73.0967L39.8604 71.3916ZM210.847 102.967L214.766 103.103L216.401 109.037L213.106 111.164L214.336 115.628L229.921 105.094L228.396 99.5654L209.616 98.5039L210.847 102.967ZM224.81 103.451L224.847 103.586L219.282 107.177L218.192 103.222L224.81 103.451ZM187.487 62.5361L190.448 65.666L193.957 62.3467L196.722 62.1025L194.683 70.1416L198.223 73.8848L200.973 62.4307L211.093 61.5537L207.606 57.8682L198.082 58.7676L197.921 58.5967L203.396 53.417L200.436 50.2881L187.487 62.5361ZM49.667 52.0215C48.6584 51.9366 47.653 52.1486 46.6533 52.6572C45.653 53.1576 44.7224 53.9475 43.8613 55.0264C43.0182 56.083 42.4482 57.1693 42.1523 58.2842C41.8565 59.399 41.8463 60.449 42.1221 61.4336C42.3978 62.4181 42.9688 63.2516 43.834 63.9346C44.8869 64.7822 46.0009 65.1081 47.1758 64.9102C48.3462 64.7085 49.5518 64.1145 50.791 63.1289L52.292 61.9443C52.8151 61.5306 53.2776 61.2163 53.6787 61.002C54.0789 60.7795 54.4378 60.6649 54.7549 60.6582C55.0674 60.6479 55.3574 60.7449 55.624 60.9502C55.9016 61.1791 56.08 61.4674 56.1602 61.8135C56.2402 62.1594 56.2135 62.5424 56.0791 62.9619C55.9483 63.3769 55.7015 63.8113 55.3398 64.2646C54.9456 64.7587 54.5207 65.1324 54.0664 65.3857C53.6156 65.6345 53.1548 65.7464 52.6855 65.7207C52.2163 65.695 51.7459 65.5165 51.2754 65.1855L48.7021 68.4102C49.8012 69.265 50.8987 69.7367 51.9941 69.8242C53.0897 69.9117 54.1579 69.6607 55.1982 69.0732C56.2386 68.4857 57.2243 67.6097 58.1543 66.4443C59.0807 65.2834 59.704 64.1579 60.0234 63.0693C60.3463 61.9764 60.3681 60.9583 60.0889 60.0156C59.8095 59.0728 59.2316 58.2476 58.3555 57.541C57.7941 57.1005 57.2145 56.7944 56.6172 56.6221C56.02 56.4498 55.4045 56.4074 54.7705 56.4951C54.1401 56.5783 53.4881 56.7857 52.8154 57.1172C52.1462 57.4442 51.4614 57.893 50.7617 58.4629L49.5342 59.4424C49.2129 59.7055 48.9056 59.9288 48.6123 60.1104C48.319 60.2919 48.04 60.4264 47.7773 60.5137C47.5143 60.5926 47.2656 60.6153 47.0312 60.584C46.8002 60.548 46.5832 60.4431 46.3818 60.2676C46.1316 60.0605 45.9669 59.8064 45.8877 59.5059C45.804 59.2016 45.8213 58.8591 45.9395 58.4785C46.0577 58.0978 46.2903 57.6893 46.6377 57.2539C47.1624 56.5963 47.7071 56.2026 48.2705 56.0732C48.8328 55.9359 49.3812 56.044 49.916 56.3965L52.4893 53.1719C51.6161 52.49 50.6753 52.1064 49.667 52.0215ZM66.3232 35.6826L70.6699 41.3643L65.0908 45.6318L60.7451 39.9492L57.3242 42.5664L68.1514 56.7236L71.5732 54.1064L67.2227 48.417L72.8008 44.1514L77.1514 49.8398L80.5664 47.2285L69.7383 33.0713L66.3232 35.6826ZM182.946 37.1152C181.49 37.0241 180.078 37.352 178.713 38.0977C177.348 38.8433 176.138 40.0424 175.082 41.6943C174.029 43.3417 173.445 44.9387 173.331 46.4844C173.218 48.0297 173.504 49.445 174.19 50.7305C174.885 52.0144 175.912 53.0912 177.271 53.96C178.302 54.6192 179.316 55.0466 180.312 55.2432C181.314 55.4428 182.263 55.4568 183.157 55.2852C184.055 55.1086 184.869 54.7995 185.6 54.3574C186.335 53.9185 186.946 53.3867 187.435 52.7627L183.783 50.3965C183.489 50.7174 183.166 50.9692 182.815 51.1514C182.473 51.3318 182.11 51.4416 181.728 51.4795C181.353 51.5156 180.966 51.478 180.568 51.3682C180.175 51.2614 179.778 51.0803 179.378 50.8242C178.664 50.368 178.154 49.8035 177.847 49.1318C177.547 48.4587 177.467 47.6955 177.606 46.8418C177.754 45.986 178.147 45.0586 178.784 44.0615C179.397 43.1035 180.059 42.3754 180.769 41.8789C181.483 41.3858 182.217 41.1279 182.968 41.1055C183.724 41.0863 184.465 41.31 185.193 41.7754C185.604 42.0378 185.941 42.3351 186.203 42.668C186.473 42.9991 186.665 43.3522 186.776 43.7266C186.888 44.101 186.923 44.4887 186.881 44.8887C186.839 45.2885 186.721 45.6921 186.529 46.0996L190.196 48.4434C190.683 47.4879 190.967 46.5435 191.047 45.6104C191.127 44.6771 191.027 43.7827 190.747 42.9287C190.47 42.0699 190.024 41.2683 189.411 40.5254C188.801 39.7776 188.042 39.1134 187.133 38.5322C185.798 37.6792 184.403 37.2064 182.946 37.1152ZM80.2656 28.4346L87.3467 44.79L98.751 39.8525L97.3613 36.6426L89.9102 39.8682L88.4541 36.5059L95.3232 33.5322L93.9297 30.3135L87.0605 33.2881L85.6084 29.9326L93.0596 26.707L91.6699 23.4961L80.2656 28.4346ZM163.423 25.7588C161.905 25.2484 160.425 25.1236 158.984 25.3857C157.543 25.6479 156.248 26.3056 155.099 27.3574C153.955 28.4111 153.07 29.8671 152.445 31.7256C151.822 33.5787 151.648 35.2709 151.923 36.8018C152.205 38.3289 152.839 39.6356 153.827 40.7207C154.815 41.8057 156.067 42.6038 157.585 43.1143C159.097 43.6229 160.575 43.7465 162.016 43.4844C163.462 43.2241 164.76 42.5672 165.909 41.5156C167.059 40.4638 167.946 39.008 168.571 37.1494C169.196 35.2909 169.369 33.5951 169.089 32.0625C168.809 30.53 168.171 29.223 167.176 28.1416C166.186 27.062 164.935 26.2674 163.423 25.7588ZM159.935 29.2227C160.649 29.0283 161.41 29.0661 162.219 29.3379C163.032 29.6116 163.662 30.0415 164.108 30.626C164.56 31.2125 164.813 31.9373 164.865 32.7998C164.923 33.6641 164.767 34.6464 164.397 35.7461C164.028 36.8458 163.558 37.7226 162.989 38.376C162.426 39.0311 161.787 39.456 161.073 39.6504C160.365 39.8466 159.603 39.8079 158.789 39.5342C157.981 39.2623 157.351 38.8325 156.899 38.2461C156.448 37.6597 156.193 36.9345 156.135 36.0703C156.082 35.2079 156.241 34.2267 156.61 33.127C156.98 32.0272 157.448 31.1494 158.011 30.4941C158.579 29.8409 159.221 29.4171 159.935 29.2227ZM116.012 19.542C114.977 19.2254 113.802 19.1754 112.485 19.3936L105.222 20.5977L108.136 38.1816L112.386 37.4775L111.388 31.458L113.564 31.0977L117.778 36.584L122.414 35.8154L117.66 29.7295C118.555 29.1229 119.197 28.3553 119.586 27.4268C119.977 26.4858 120.071 25.4055 119.869 24.1865C119.67 22.9847 119.237 21.9886 118.571 21.1992C117.904 20.4042 117.051 19.8519 116.012 19.542ZM129.779 36.8027L141.465 37.7402L141.745 34.2529L134.354 33.6602L135.5 19.3809L131.206 19.0361L129.779 36.8027ZM112.134 22.9727C112.769 22.8674 113.32 22.8704 113.785 22.9814C114.25 23.0868 114.624 23.3004 114.907 23.624C115.189 23.9418 115.375 24.3727 115.465 24.916C115.555 25.4596 115.518 25.9254 115.353 26.3115C115.186 26.6919 114.899 27.0043 114.492 27.248C114.09 27.4851 113.569 27.6565 112.928 27.7627L110.833 28.1094L110.04 23.3193L112.134 22.9727Z" fill="white"/>
<rect width="249.862" height="249.862" rx="124.931" fill="#1A172F"/>
<rect width="249.862" height="249.862" rx="124.931" fill="url(#paint0_linear_145_1569)" fill-opacity="0.45"/>
<path fill-rule="evenodd" clip-rule="evenodd" d="M124.743 11C187.562 11 238.487 61.9246 238.487 124.743C238.487 187.562 187.562 238.487 124.743 238.487C61.9246 238.487 11 187.562 11 124.743C11 61.9246 61.9246 11 124.743 11ZM124.743 42.326C79.2255 42.326 42.326 79.2255 42.326 124.743C42.326 170.261 79.2255 207.161 124.743 207.161C170.261 207.161 207.161 170.261 207.161 124.743C207.161 79.2255 170.261 42.326 124.743 42.326Z" fill="white"/>
<path fill-rule="evenodd" clip-rule="evenodd" d="M124.743 11C187.562 11 238.487 61.9246 238.487 124.743C238.487 187.562 187.562 238.487 124.743 238.487C61.9246 238.487 11 187.562 11 124.743C11 61.9246 61.9246 11 124.743 11ZM124.743 42.326C79.2255 42.326 42.326 79.2255 42.326 124.743C42.326 170.261 79.2255 207.161 124.743 207.161C170.261 207.161 207.161 170.261 207.161 124.743C207.161 79.2255 170.261 42.326 124.743 42.326Z" fill="white"/>
<path fill-rule="evenodd" clip-rule="evenodd" d="M124.743 11C187.562 11 238.487 61.9246 238.487 124.743C238.487 187.562 187.562 238.487 124.743 238.487C61.9246 238.487 11 187.562 11 124.743C11 61.9246 61.9246 11 124.743 11ZM124.743 42.326C79.2255 42.326 42.326 79.2255 42.326 124.743C42.326 170.261 79.2255 207.161 124.743 207.161C170.261 207.161 207.161 170.261 207.161 124.743C207.161 79.2255 170.261 42.326 124.743 42.326Z" fill="white"/>
<rect x="87" y="95" width="76.0775" height="60.4145" rx="5.221" fill="white"/>
<g filter="url(#filter0_i_145_1569)">
<path d="M124.955 7C190.1 7.00004 242.91 59.8104 242.91 124.955C242.91 190.1 190.1 242.91 124.955 242.91C59.8104 242.91 7.00004 190.1 7 124.955C7 59.8103 59.8103 7 124.955 7ZM126.541 212.326L119.431 221.381L119.164 221.386L118.996 212.468L114.72 212.548L115.101 232.774L119.377 232.693L119.269 226.946L121.323 224.339L127.021 232.55L132.137 232.454L124.332 221.427L131.667 212.229L126.541 212.326ZM100.587 208.552C98.8616 208.123 97.2099 208.134 95.6328 208.583C94.0574 209.026 92.6802 209.899 91.502 211.2C90.3236 212.502 89.4684 214.224 88.9365 216.365C88.4064 218.499 88.3504 220.416 88.7695 222.114C89.1953 223.814 89.9968 225.232 91.1738 226.366C92.3573 227.502 93.8252 228.287 95.5762 228.722C96.835 229.034 98.01 229.125 99.1006 228.996C100.199 228.862 101.191 228.559 102.075 228.087C102.967 227.61 103.731 227.009 104.365 226.284C105.008 225.555 105.495 224.753 105.827 223.879L101.634 222.816C101.408 223.317 101.118 223.741 100.768 224.088C100.423 224.436 100.03 224.709 99.5879 224.904C99.1475 225.093 98.669 225.202 98.1533 225.229C97.6441 225.259 97.1114 225.204 96.5557 225.066C95.5652 224.82 94.7525 224.36 94.1191 223.688C93.486 223.015 93.0768 222.149 92.8916 221.093C92.7128 220.037 92.7969 218.81 93.1445 217.41C93.4827 216.049 93.978 214.944 94.6299 214.095C95.2833 213.239 96.049 212.656 96.9268 212.345C97.8062 212.027 98.7545 211.995 99.7705 212.247C100.333 212.387 100.834 212.596 101.273 212.875C101.719 213.155 102.091 213.492 102.387 213.885C102.683 214.277 102.896 214.716 103.026 215.203C103.158 215.684 103.194 216.205 103.136 216.768L107.335 217.811C107.483 216.64 107.427 215.554 107.167 214.553C106.913 213.554 106.485 212.657 105.882 211.862C105.28 211.062 104.529 210.38 103.631 209.817C102.739 209.257 101.724 208.834 100.587 208.552ZM155.535 207.161L157.637 228.459L161.801 226.545L161.238 221.726L167.875 218.677L171.162 222.243L175.327 220.33L160.544 204.859L155.535 207.161ZM165.496 216.096L160.831 218.239L159.898 210.244L160.042 210.178L165.496 216.096ZM74.0205 197.225C72.3781 197.219 70.8125 197.682 69.3242 198.613C67.8359 199.545 66.5442 200.968 65.4492 202.883C64.3575 204.792 63.7872 206.625 63.7393 208.38C63.6914 210.135 64.0859 211.722 64.9209 213.14C65.756 214.558 66.9542 215.713 68.5146 216.605C70.0637 217.491 71.6594 217.937 73.3018 217.943C74.9532 217.947 76.5233 217.483 78.0117 216.552C79.5058 215.624 80.8005 214.202 81.8955 212.287C82.9905 210.372 83.5594 208.535 83.6016 206.776C83.6493 205.021 83.2512 203.436 82.4072 202.021C81.5721 200.602 80.3792 199.45 78.8301 198.564C77.2696 197.672 75.6662 197.225 74.0205 197.225ZM74.2256 201.165C75.1459 201.107 76.0548 201.336 76.9521 201.849C77.8495 202.362 78.5076 203.029 78.9248 203.852C79.3419 204.674 79.4893 205.617 79.3682 206.678C79.2527 207.742 78.8401 208.894 78.1309 210.135C77.4216 211.375 76.6378 212.315 75.7793 212.954C74.9264 213.597 74.0396 213.947 73.1191 214.005C72.1988 214.063 71.2899 213.834 70.3926 213.321C69.4952 212.808 68.837 212.14 68.4199 211.317C68.003 210.495 67.8523 209.551 67.9678 208.487C68.089 207.426 68.5046 206.276 69.2139 205.035C69.9231 203.795 70.7039 202.853 71.5566 202.211C72.4152 201.572 73.3051 201.223 74.2256 201.165ZM179.95 192.867L188.127 202.678C188.62 203.269 188.927 203.906 189.048 204.585C189.173 205.26 189.109 205.928 188.853 206.587C188.601 207.242 188.157 207.836 187.52 208.367C186.887 208.894 186.223 209.224 185.528 209.357C184.834 209.491 184.163 209.436 183.517 209.195C182.875 208.95 182.308 208.531 181.814 207.939L173.638 198.128L170.352 200.866L178.763 210.959C179.707 212.092 180.802 212.86 182.046 213.263C183.29 213.666 184.594 213.703 185.956 213.373C187.314 213.038 188.639 212.333 189.929 211.258C191.213 210.187 192.143 209.014 192.717 207.738C193.287 206.458 193.485 205.169 193.313 203.872C193.146 202.571 192.591 201.354 191.646 200.221L183.236 190.129L179.95 192.867ZM43.8193 195.42L53.1318 204.418L55.582 201.882L49.3447 195.855L60.9512 183.844L57.876 180.872L43.8193 195.42ZM124.955 48.8145C82.904 48.8145 48.8145 82.904 48.8145 124.955C48.8145 167.006 82.904 201.096 124.955 201.096C167.006 201.096 201.096 167.006 201.096 124.955C201.096 82.904 167.006 48.8145 124.955 48.8145ZM201.812 175.445C200.123 175.235 198.529 175.503 197.032 176.251C195.53 176.995 194.197 178.204 193.037 179.875L188.915 185.815L205.533 197.351L209.622 191.459C210.794 189.771 211.467 188.091 211.643 186.417C211.822 184.738 211.515 183.143 210.722 181.63C209.932 180.112 208.671 178.751 206.94 177.55C205.215 176.352 203.505 175.651 201.812 175.445ZM198.289 179.914C199.149 179.461 200.093 179.325 201.119 179.509C202.15 179.687 203.279 180.203 204.507 181.056C205.746 181.915 206.632 182.798 207.165 183.705C207.696 184.603 207.9 185.539 207.777 186.512C207.653 187.476 207.232 188.477 206.511 189.516L204.961 191.747L194.364 184.392L195.918 182.151C196.639 181.113 197.43 180.367 198.289 179.914ZM29.0977 173.341L31.4023 176.943L37.4424 173.078L39.125 175.708L35.1504 182.801L37.6953 186.778L42.001 178.926C42.057 178.963 42.1134 179 42.1699 179.036C43.1951 179.686 44.2687 179.996 45.3906 179.966C46.5183 179.932 47.6487 179.553 48.7803 178.829C49.906 178.109 50.7307 177.241 51.2539 176.227C51.7862 175.214 51.9872 174.104 51.8564 172.897C51.7347 171.693 51.2618 170.447 50.4385 169.16L46.1367 162.438L29.0977 173.341ZM124.964 66.5283C125.619 66.5283 126.27 66.657 126.875 66.9062C127.48 67.1555 128.031 67.521 128.494 67.9814C140.857 80.2885 154.556 86.3241 169.82 86.3242C171.142 86.3242 172.411 86.8451 173.346 87.7725C174.28 88.7 174.806 89.9588 174.806 91.2705V120.96C174.806 152.806 158.444 174.453 126.529 184.999C125.507 185.337 124.401 185.337 123.379 184.999C91.4746 174.453 75.1035 152.806 75.1035 120.96V91.2705C75.1036 89.9587 75.6287 88.7 76.5635 87.7725C77.4982 86.8451 78.7661 86.3244 80.0879 86.3242C95.3423 86.3242 109.042 80.2788 121.435 67.9814C121.898 67.5208 122.448 67.1556 123.054 66.9062C123.659 66.657 124.308 66.5284 124.964 66.5283ZM47.0518 170.354C47.4952 171.048 47.7598 171.687 47.8457 172.273C47.9406 172.862 47.8644 173.391 47.6182 173.861C47.3754 174.337 46.9711 174.756 46.4053 175.118C45.8451 175.477 45.3039 175.663 44.7812 175.677C44.2623 175.696 43.7627 175.539 43.2832 175.205C42.8037 174.871 42.3433 174.36 41.9033 173.672L40.3379 171.225L45.4971 167.925L47.0518 170.354ZM202.464 165.399L221.128 173.201L222.777 169.255L204.113 161.453L202.464 165.399ZM20.7412 149.447L25.1182 162.398L28.458 161.27L25.4512 152.37L30.0264 150.823L32.7969 159.021L36.1377 157.892L33.3672 149.694L37.9346 148.151L40.9287 157.013L44.2695 155.884L39.9053 142.971L20.7412 149.447ZM207.602 155.192L211.062 155.871L212.255 149.794L228.645 153.01L229.459 148.861L213.068 145.646L214.261 139.568L210.801 138.889L207.602 155.192ZM145.556 107.853C143.468 107.853 141.263 108.78 138.942 110.635L116.319 128.021V120.718C116.319 119.951 115.694 119.328 114.924 119.328H96.832C96.0618 119.329 95.4368 119.951 95.4365 120.718V136.368C95.4367 141.932 100.658 145.061 106.227 145.235C109.939 145.351 113.303 143.67 116.319 140.193L141.379 113.765C143.467 111.678 144.86 110.635 147.296 110.635H153.561C154.605 110.635 155.127 109.939 155.127 109.243C155.127 108.548 154.604 107.853 153.561 107.853H145.556ZM18.1055 120.329L18.4043 124.596L26.7402 124.011L27.3486 132.672L19.0127 133.257L19.3115 137.514L39.4912 136.098L39.1924 131.841L30.8662 132.426L30.2588 123.765L38.585 123.18L38.2852 118.913L18.1055 120.329ZM228.128 118.569L228.581 127.952L223.756 128.185L223.34 119.542L219.817 119.712L220.233 128.354L215.419 128.587L214.969 119.243L211.446 119.413L212.103 133.028L232.309 132.055L231.65 118.399L228.128 118.569ZM221.766 92.9863C220.083 92.6747 218.235 92.8312 216.223 93.4561C214.217 94.079 212.612 94.9951 211.408 96.2031C210.202 97.4049 209.433 98.8263 209.102 100.467C208.764 102.109 208.897 103.903 209.5 105.846L211.645 112.751L230.964 106.752L228.837 99.9033C228.228 97.9413 227.317 96.3755 226.106 95.207C224.894 94.0324 223.446 93.2918 221.766 92.9863ZM29.2744 94.7168C27.8391 94.4751 26.5721 94.5918 25.4756 95.0654C24.3845 95.5468 23.4791 96.3319 22.7607 97.4209C22.0412 98.5164 21.5283 99.8663 21.2207 101.47C20.9107 103.086 20.8879 104.514 21.1533 105.752C21.424 106.997 21.9446 108.009 22.7139 108.787C23.4884 109.572 24.483 110.086 25.6973 110.325C26.5262 110.477 27.29 110.466 27.9873 110.291C28.6832 110.123 29.3179 109.819 29.8916 109.379C30.4654 108.939 30.984 108.388 31.4463 107.726C31.9085 107.063 32.3195 106.318 32.6797 105.488L33.4492 103.785C33.6293 103.371 33.8233 102.985 34.0322 102.63C34.2477 102.276 34.4774 101.971 34.7207 101.716C34.9705 101.462 35.2446 101.276 35.542 101.159C35.8379 101.049 36.1627 101.033 36.5156 101.114C36.9424 101.196 37.3007 101.393 37.5898 101.703C37.8776 102.02 38.07 102.433 38.167 102.94C38.2704 103.45 38.2564 104.047 38.125 104.732C37.9315 105.741 37.5618 106.498 37.0156 107.004C36.4695 107.509 35.7974 107.726 35 107.653L34.2285 111.679C35.4156 111.886 36.5175 111.769 37.5342 111.327C38.5509 110.885 39.4173 110.16 40.1338 109.15C40.849 108.148 41.3481 106.909 41.6309 105.435C41.9086 103.986 41.9053 102.644 41.6191 101.409C41.333 100.174 40.8029 99.1438 40.0293 98.3184C39.2544 97.4994 38.2645 96.9781 37.0605 96.7539C35.5939 96.466 34.3338 96.7235 33.2812 97.5273C32.2286 98.3312 31.338 99.5321 30.6094 101.129L29.6514 103.188C29.3379 103.878 29.0266 104.452 28.7178 104.909C28.4076 105.373 28.0753 105.705 27.7217 105.905C27.367 106.112 26.9666 106.172 26.5205 106.087C26.0421 105.995 25.6458 105.769 25.333 105.407C25.0204 105.046 24.8113 104.579 24.7061 104.01C24.5996 103.446 24.6146 102.808 24.751 102.097C24.8899 101.373 25.1249 100.743 25.4551 100.21C25.7904 99.6847 26.2107 99.2925 26.7158 99.0342C27.2264 98.7835 27.8196 98.6999 28.4941 98.7822L29.2744 94.7168ZM217.488 97.5312C218.928 97.0841 220.17 96.9302 221.213 97.0684C222.247 97.2022 223.11 97.6165 223.802 98.3115C224.485 99.0025 225.015 99.9528 225.39 101.16L226.195 103.754L213.876 107.58L213.067 104.976C212.693 103.768 212.591 102.686 212.763 101.729C212.935 100.773 213.409 99.9461 214.186 99.25C214.96 98.5477 216.061 97.9745 217.488 97.5312ZM64.8037 47.3291C52.5591 56.7239 42.5969 68.9209 35.8906 82.957L39.2695 84.5703C45.7182 71.0736 55.3005 59.339 67.083 50.2988L64.8037 47.3291ZM182.826 50.2988C194.609 59.3389 204.19 71.0738 210.639 84.5703L214.018 82.957C207.311 68.921 197.35 56.7238 185.105 47.3291L182.826 50.2988ZM83.1719 26.2266C81.9916 26.0962 80.7109 26.2769 79.3311 26.7686C77.9888 27.2469 76.8852 27.9263 76.0205 28.8066C75.1558 29.687 74.5876 30.6986 74.3164 31.8408C74.0453 32.983 74.1136 34.1918 74.5205 35.4668L78.3877 34.0889C78.1894 33.4674 78.1369 32.8887 78.2314 32.3535C78.3261 31.8183 78.5549 31.3516 78.917 30.9541C79.2791 30.5567 79.7552 30.2531 80.3447 30.043C80.9091 29.8419 81.4507 29.7761 81.9688 29.8457C82.4849 29.909 82.9393 30.1037 83.3301 30.4307C83.7188 30.7513 84.0043 31.1977 84.1865 31.7686C84.3505 32.2823 84.3992 32.7986 84.334 33.3164C84.2667 33.8278 84.1052 34.3838 83.8496 34.9834C83.6002 35.5809 83.2751 36.2692 82.874 37.0479L78.0645 45.915L79.0117 48.8838L92.75 43.9893L91.6748 40.6201L83.583 43.5039L83.54 43.3701L85.4639 39.5801C86.3987 37.8905 87.0907 36.4809 87.541 35.3525C87.9892 34.218 88.2404 33.2422 88.2939 32.4248C88.3537 31.6052 88.2661 30.8267 88.0312 30.0908C87.6729 28.9683 87.0697 28.0738 86.2217 27.4082C85.3735 26.7426 84.3564 26.3485 83.1719 26.2266ZM168.837 26.7617C167.719 26.8065 166.647 27.1193 165.621 27.6992C164.601 28.2818 163.655 29.1231 162.784 30.2227C161.922 31.3188 161.164 32.6613 160.511 34.25C159.806 35.9832 159.416 37.5355 159.34 38.9062C159.27 40.2797 159.441 41.4837 159.854 42.5176C160.268 43.5513 160.854 44.4251 161.612 45.1387C162.377 45.855 163.24 46.429 164.2 46.8604C165.586 47.48 166.918 47.741 168.193 47.6426C169.478 47.5406 170.615 47.1189 171.606 46.3779C172.604 45.6396 173.363 44.6288 173.885 43.3457C174.366 42.1614 174.545 40.9991 174.419 39.8594C174.293 38.7198 173.905 37.6964 173.253 36.79C172.604 35.8776 171.725 35.1763 170.616 34.6865C169.934 34.3852 169.241 34.2063 168.538 34.1504C167.844 34.0911 167.174 34.1555 166.53 34.3438C165.895 34.5286 165.322 34.8398 164.813 35.2773L164.686 35.2217C165.448 33.3828 166.361 32.0647 167.425 31.2686C168.495 30.4751 169.639 30.3476 170.857 30.8857C171.576 31.2032 172.102 31.6578 172.437 32.249C172.771 32.8406 172.88 33.5003 172.764 34.2275L176.665 35.9512C176.967 34.855 176.996 33.7583 176.753 32.6611C176.515 31.5667 176.018 30.564 175.26 29.6543C174.504 28.7384 173.502 28.0038 172.253 27.4521C171.096 26.941 169.957 26.7108 168.837 26.7617ZM166.829 36.7354C167.289 36.7349 167.748 36.8363 168.205 37.0381C168.814 37.3071 169.296 37.6945 169.65 38.2002C170.005 38.7061 170.214 39.2687 170.279 39.8867C170.35 40.5075 170.258 41.1325 170.002 41.7617C169.746 42.3907 169.379 42.8976 168.899 43.2822C168.42 43.6668 167.879 43.9018 167.277 43.9854C166.676 44.0688 166.07 43.976 165.461 43.707C164.852 43.4379 164.368 43.0451 164.01 42.5303C163.658 42.0182 163.444 41.4469 163.369 40.8174C163.301 40.1907 163.391 39.5714 163.64 38.9609C163.825 38.5047 164.082 38.1124 164.409 37.7842C164.739 37.4498 165.11 37.1917 165.521 37.0098C165.939 36.8306 166.375 36.7386 166.829 36.7354ZM141.376 19.1699C139.97 18.9373 138.687 18.998 137.526 19.3525C136.366 19.7072 135.41 20.3225 134.66 21.1973C133.91 22.072 133.432 23.1709 133.226 24.4932L137.276 25.1631C137.377 24.5186 137.589 23.9833 137.911 23.5576C138.234 23.1318 138.645 22.8321 139.144 22.6582C139.642 22.4843 140.201 22.4477 140.818 22.5498C141.409 22.6477 141.92 22.854 142.35 23.168C142.78 23.4754 143.096 23.869 143.298 24.3477C143.5 24.8198 143.555 25.3523 143.463 25.9443C143.38 26.4772 143.194 26.9562 142.905 27.3809C142.618 27.799 142.226 28.2101 141.731 28.6143C141.244 29.0193 140.648 29.4672 139.945 29.958L131.721 35.4316L131.24 38.5107L145.629 40.8916L146.174 37.3984L137.698 35.9951L137.721 35.8574L141.118 33.4531C142.702 32.4193 143.945 31.5145 144.848 30.7393C145.751 29.9575 146.409 29.2189 146.82 28.5244C147.239 27.831 147.508 27.103 147.627 26.3398C147.809 25.1755 147.671 24.0929 147.214 23.0928C146.757 22.0925 146.029 21.2493 145.03 20.5645C144.04 19.8741 142.821 19.4091 141.376 19.1699ZM115.044 19.7812C113.755 19.0678 112.258 18.7862 110.554 18.9385C108.849 19.0909 107.411 19.6347 106.239 20.5684C105.074 21.4947 104.219 22.7712 103.675 24.3975C103.137 26.0232 102.952 27.9485 103.12 30.1729C103.282 32.4042 103.752 34.2843 104.528 35.8125C105.312 37.3401 106.349 38.4673 107.64 39.1943C108.937 39.9207 110.441 40.2107 112.152 40.0645C113.863 39.9115 115.301 39.3622 116.465 38.416C117.628 37.4697 118.479 36.1739 119.016 34.5283C119.559 32.8821 119.746 30.9397 119.576 28.7021C119.414 26.4772 118.943 24.6134 118.161 23.1123C117.379 21.6047 116.34 20.4943 115.044 19.7812ZM110.821 22.4746C111.597 22.4054 112.29 22.6046 112.899 23.0713C113.516 23.5375 114.019 24.2714 114.408 25.2725C114.804 26.2732 115.062 27.5477 115.179 29.0947C115.363 31.4447 115.151 33.239 114.544 34.4766C113.936 35.7139 113.049 36.3849 111.882 36.4893C111.106 36.5585 110.41 36.3597 109.794 35.8936C109.177 35.4206 108.67 34.677 108.272 33.6631C107.881 32.6418 107.626 31.3472 107.508 29.7803C107.339 27.4624 107.559 25.691 108.167 24.4668C108.775 23.2427 109.661 22.5784 110.821 22.4746Z" fill="url(#paint1_linear_145_1569)"/>
<path d="M124.955 7C190.1 7.00004 242.91 59.8104 242.91 124.955C242.91 190.1 190.1 242.91 124.955 242.91C59.8104 242.91 7.00004 190.1 7 124.955C7 59.8103 59.8103 7 124.955 7ZM126.541 212.326L119.431 221.381L119.164 221.386L118.996 212.468L114.72 212.548L115.101 232.774L119.377 232.693L119.269 226.946L121.323 224.339L127.021 232.55L132.137 232.454L124.332 221.427L131.667 212.229L126.541 212.326ZM100.587 208.552C98.8616 208.123 97.2099 208.134 95.6328 208.583C94.0574 209.026 92.6802 209.899 91.502 211.2C90.3236 212.502 89.4684 214.224 88.9365 216.365C88.4064 218.499 88.3504 220.416 88.7695 222.114C89.1953 223.814 89.9968 225.232 91.1738 226.366C92.3573 227.502 93.8252 228.287 95.5762 228.722C96.835 229.034 98.01 229.125 99.1006 228.996C100.199 228.862 101.191 228.559 102.075 228.087C102.967 227.61 103.731 227.009 104.365 226.284C105.008 225.555 105.495 224.753 105.827 223.879L101.634 222.816C101.408 223.317 101.118 223.741 100.768 224.088C100.423 224.436 100.03 224.709 99.5879 224.904C99.1475 225.093 98.669 225.202 98.1533 225.229C97.6441 225.259 97.1114 225.204 96.5557 225.066C95.5652 224.82 94.7525 224.36 94.1191 223.688C93.486 223.015 93.0768 222.149 92.8916 221.093C92.7128 220.037 92.7969 218.81 93.1445 217.41C93.4827 216.049 93.978 214.944 94.6299 214.095C95.2833 213.239 96.049 212.656 96.9268 212.345C97.8062 212.027 98.7545 211.995 99.7705 212.247C100.333 212.387 100.834 212.596 101.273 212.875C101.719 213.155 102.091 213.492 102.387 213.885C102.683 214.277 102.896 214.716 103.026 215.203C103.158 215.684 103.194 216.205 103.136 216.768L107.335 217.811C107.483 216.64 107.427 215.554 107.167 214.553C106.913 213.554 106.485 212.657 105.882 211.862C105.28 211.062 104.529 210.38 103.631 209.817C102.739 209.257 101.724 208.834 100.587 208.552ZM155.535 207.161L157.637 228.459L161.801 226.545L161.238 221.726L167.875 218.677L171.162 222.243L175.327 220.33L160.544 204.859L155.535 207.161ZM165.496 216.096L160.831 218.239L159.898 210.244L160.042 210.178L165.496 216.096ZM74.0205 197.225C72.3781 197.219 70.8125 197.682 69.3242 198.613C67.8359 199.545 66.5442 200.968 65.4492 202.883C64.3575 204.792 63.7872 206.625 63.7393 208.38C63.6914 210.135 64.0859 211.722 64.9209 213.14C65.756 214.558 66.9542 215.713 68.5146 216.605C70.0637 217.491 71.6594 217.937 73.3018 217.943C74.9532 217.947 76.5233 217.483 78.0117 216.552C79.5058 215.624 80.8005 214.202 81.8955 212.287C82.9905 210.372 83.5594 208.535 83.6016 206.776C83.6493 205.021 83.2512 203.436 82.4072 202.021C81.5721 200.602 80.3792 199.45 78.8301 198.564C77.2696 197.672 75.6662 197.225 74.0205 197.225ZM74.2256 201.165C75.1459 201.107 76.0548 201.336 76.9521 201.849C77.8495 202.362 78.5076 203.029 78.9248 203.852C79.3419 204.674 79.4893 205.617 79.3682 206.678C79.2527 207.742 78.8401 208.894 78.1309 210.135C77.4216 211.375 76.6378 212.315 75.7793 212.954C74.9264 213.597 74.0396 213.947 73.1191 214.005C72.1988 214.063 71.2899 213.834 70.3926 213.321C69.4952 212.808 68.837 212.14 68.4199 211.317C68.003 210.495 67.8523 209.551 67.9678 208.487C68.089 207.426 68.5046 206.276 69.2139 205.035C69.9231 203.795 70.7039 202.853 71.5566 202.211C72.4152 201.572 73.3051 201.223 74.2256 201.165ZM179.95 192.867L188.127 202.678C188.62 203.269 188.927 203.906 189.048 204.585C189.173 205.26 189.109 205.928 188.853 206.587C188.601 207.242 188.157 207.836 187.52 208.367C186.887 208.894 186.223 209.224 185.528 209.357C184.834 209.491 184.163 209.436 183.517 209.195C182.875 208.95 182.308 208.531 181.814 207.939L173.638 198.128L170.352 200.866L178.763 210.959C179.707 212.092 180.802 212.86 182.046 213.263C183.29 213.666 184.594 213.703 185.956 213.373C187.314 213.038 188.639 212.333 189.929 211.258C191.213 210.187 192.143 209.014 192.717 207.738C193.287 206.458 193.485 205.169 193.313 203.872C193.146 202.571 192.591 201.354 191.646 200.221L183.236 190.129L179.95 192.867ZM43.8193 195.42L53.1318 204.418L55.582 201.882L49.3447 195.855L60.9512 183.844L57.876 180.872L43.8193 195.42ZM124.955 48.8145C82.904 48.8145 48.8145 82.904 48.8145 124.955C48.8145 167.006 82.904 201.096 124.955 201.096C167.006 201.096 201.096 167.006 201.096 124.955C201.096 82.904 167.006 48.8145 124.955 48.8145ZM201.812 175.445C200.123 175.235 198.529 175.503 197.032 176.251C195.53 176.995 194.197 178.204 193.037 179.875L188.915 185.815L205.533 197.351L209.622 191.459C210.794 189.771 211.467 188.091 211.643 186.417C211.822 184.738 211.515 183.143 210.722 181.63C209.932 180.112 208.671 178.751 206.94 177.55C205.215 176.352 203.505 175.651 201.812 175.445ZM198.289 179.914C199.149 179.461 200.093 179.325 201.119 179.509C202.15 179.687 203.279 180.203 204.507 181.056C205.746 181.915 206.632 182.798 207.165 183.705C207.696 184.603 207.9 185.539 207.777 186.512C207.653 187.476 207.232 188.477 206.511 189.516L204.961 191.747L194.364 184.392L195.918 182.151C196.639 181.113 197.43 180.367 198.289 179.914ZM29.0977 173.341L31.4023 176.943L37.4424 173.078L39.125 175.708L35.1504 182.801L37.6953 186.778L42.001 178.926C42.057 178.963 42.1134 179 42.1699 179.036C43.1951 179.686 44.2687 179.996 45.3906 179.966C46.5183 179.932 47.6487 179.553 48.7803 178.829C49.906 178.109 50.7307 177.241 51.2539 176.227C51.7862 175.214 51.9872 174.104 51.8564 172.897C51.7347 171.693 51.2618 170.447 50.4385 169.16L46.1367 162.438L29.0977 173.341ZM124.964 66.5283C125.619 66.5283 126.27 66.657 126.875 66.9062C127.48 67.1555 128.031 67.521 128.494 67.9814C140.857 80.2885 154.556 86.3241 169.82 86.3242C171.142 86.3242 172.411 86.8451 173.346 87.7725C174.28 88.7 174.806 89.9588 174.806 91.2705V120.96C174.806 152.806 158.444 174.453 126.529 184.999C125.507 185.337 124.401 185.337 123.379 184.999C91.4746 174.453 75.1035 152.806 75.1035 120.96V91.2705C75.1036 89.9587 75.6287 88.7 76.5635 87.7725C77.4982 86.8451 78.7661 86.3244 80.0879 86.3242C95.3423 86.3242 109.042 80.2788 121.435 67.9814C121.898 67.5208 122.448 67.1556 123.054 66.9062C123.659 66.657 124.308 66.5284 124.964 66.5283ZM47.0518 170.354C47.4952 171.048 47.7598 171.687 47.8457 172.273C47.9406 172.862 47.8644 173.391 47.6182 173.861C47.3754 174.337 46.9711 174.756 46.4053 175.118C45.8451 175.477 45.3039 175.663 44.7812 175.677C44.2623 175.696 43.7627 175.539 43.2832 175.205C42.8037 174.871 42.3433 174.36 41.9033 173.672L40.3379 171.225L45.4971 167.925L47.0518 170.354ZM202.464 165.399L221.128 173.201L222.777 169.255L204.113 161.453L202.464 165.399ZM20.7412 149.447L25.1182 162.398L28.458 161.27L25.4512 152.37L30.0264 150.823L32.7969 159.021L36.1377 157.892L33.3672 149.694L37.9346 148.151L40.9287 157.013L44.2695 155.884L39.9053 142.971L20.7412 149.447ZM207.602 155.192L211.062 155.871L212.255 149.794L228.645 153.01L229.459 148.861L213.068 145.646L214.261 139.568L210.801 138.889L207.602 155.192ZM145.556 107.853C143.468 107.853 141.263 108.78 138.942 110.635L116.319 128.021V120.718C116.319 119.951 115.694 119.328 114.924 119.328H96.832C96.0618 119.329 95.4368 119.951 95.4365 120.718V136.368C95.4367 141.932 100.658 145.061 106.227 145.235C109.939 145.351 113.303 143.67 116.319 140.193L141.379 113.765C143.467 111.678 144.86 110.635 147.296 110.635H153.561C154.605 110.635 155.127 109.939 155.127 109.243C155.127 108.548 154.604 107.853 153.561 107.853H145.556ZM18.1055 120.329L18.4043 124.596L26.7402 124.011L27.3486 132.672L19.0127 133.257L19.3115 137.514L39.4912 136.098L39.1924 131.841L30.8662 132.426L30.2588 123.765L38.585 123.18L38.2852 118.913L18.1055 120.329ZM228.128 118.569L228.581 127.952L223.756 128.185L223.34 119.542L219.817 119.712L220.233 128.354L215.419 128.587L214.969 119.243L211.446 119.413L212.103 133.028L232.309 132.055L231.65 118.399L228.128 118.569ZM221.766 92.9863C220.083 92.6747 218.235 92.8312 216.223 93.4561C214.217 94.079 212.612 94.9951 211.408 96.2031C210.202 97.4049 209.433 98.8263 209.102 100.467C208.764 102.109 208.897 103.903 209.5 105.846L211.645 112.751L230.964 106.752L228.837 99.9033C228.228 97.9413 227.317 96.3755 226.106 95.207C224.894 94.0324 223.446 93.2918 221.766 92.9863ZM29.2744 94.7168C27.8391 94.4751 26.5721 94.5918 25.4756 95.0654C24.3845 95.5468 23.4791 96.3319 22.7607 97.4209C22.0412 98.5164 21.5283 99.8663 21.2207 101.47C20.9107 103.086 20.8879 104.514 21.1533 105.752C21.424 106.997 21.9446 108.009 22.7139 108.787C23.4884 109.572 24.483 110.086 25.6973 110.325C26.5262 110.477 27.29 110.466 27.9873 110.291C28.6832 110.123 29.3179 109.819 29.8916 109.379C30.4654 108.939 30.984 108.388 31.4463 107.726C31.9085 107.063 32.3195 106.318 32.6797 105.488L33.4492 103.785C33.6293 103.371 33.8233 102.985 34.0322 102.63C34.2477 102.276 34.4774 101.971 34.7207 101.716C34.9705 101.462 35.2446 101.276 35.542 101.159C35.8379 101.049 36.1627 101.033 36.5156 101.114C36.9424 101.196 37.3007 101.393 37.5898 101.703C37.8776 102.02 38.07 102.433 38.167 102.94C38.2704 103.45 38.2564 104.047 38.125 104.732C37.9315 105.741 37.5618 106.498 37.0156 107.004C36.4695 107.509 35.7974 107.726 35 107.653L34.2285 111.679C35.4156 111.886 36.5175 111.769 37.5342 111.327C38.5509 110.885 39.4173 110.16 40.1338 109.15C40.849 108.148 41.3481 106.909 41.6309 105.435C41.9086 103.986 41.9053 102.644 41.6191 101.409C41.333 100.174 40.8029 99.1438 40.0293 98.3184C39.2544 97.4994 38.2645 96.9781 37.0605 96.7539C35.5939 96.466 34.3338 96.7235 33.2812 97.5273C32.2286 98.3312 31.338 99.5321 30.6094 101.129L29.6514 103.188C29.3379 103.878 29.0266 104.452 28.7178 104.909C28.4076 105.373 28.0753 105.705 27.7217 105.905C27.367 106.112 26.9666 106.172 26.5205 106.087C26.0421 105.995 25.6458 105.769 25.333 105.407C25.0204 105.046 24.8113 104.579 24.7061 104.01C24.5996 103.446 24.6146 102.808 24.751 102.097C24.8899 101.373 25.1249 100.743 25.4551 100.21C25.7904 99.6847 26.2107 99.2925 26.7158 99.0342C27.2264 98.7835 27.8196 98.6999 28.4941 98.7822L29.2744 94.7168ZM217.488 97.5312C218.928 97.0841 220.17 96.9302 221.213 97.0684C222.247 97.2022 223.11 97.6165 223.802 98.3115C224.485 99.0025 225.015 99.9528 225.39 101.16L226.195 103.754L213.876 107.58L213.067 104.976C212.693 103.768 212.591 102.686 212.763 101.729C212.935 100.773 213.409 99.9461 214.186 99.25C214.96 98.5477 216.061 97.9745 217.488 97.5312ZM64.8037 47.3291C52.5591 56.7239 42.5969 68.9209 35.8906 82.957L39.2695 84.5703C45.7182 71.0736 55.3005 59.339 67.083 50.2988L64.8037 47.3291ZM182.826 50.2988C194.609 59.3389 204.19 71.0738 210.639 84.5703L214.018 82.957C207.311 68.921 197.35 56.7238 185.105 47.3291L182.826 50.2988ZM83.1719 26.2266C81.9916 26.0962 80.7109 26.2769 79.3311 26.7686C77.9888 27.2469 76.8852 27.9263 76.0205 28.8066C75.1558 29.687 74.5876 30.6986 74.3164 31.8408C74.0453 32.983 74.1136 34.1918 74.5205 35.4668L78.3877 34.0889C78.1894 33.4674 78.1369 32.8887 78.2314 32.3535C78.3261 31.8183 78.5549 31.3516 78.917 30.9541C79.2791 30.5567 79.7552 30.2531 80.3447 30.043C80.9091 29.8419 81.4507 29.7761 81.9688 29.8457C82.4849 29.909 82.9393 30.1037 83.3301 30.4307C83.7188 30.7513 84.0043 31.1977 84.1865 31.7686C84.3505 32.2823 84.3992 32.7986 84.334 33.3164C84.2667 33.8278 84.1052 34.3838 83.8496 34.9834C83.6002 35.5809 83.2751 36.2692 82.874 37.0479L78.0645 45.915L79.0117 48.8838L92.75 43.9893L91.6748 40.6201L83.583 43.5039L83.54 43.3701L85.4639 39.5801C86.3987 37.8905 87.0907 36.4809 87.541 35.3525C87.9892 34.218 88.2404 33.2422 88.2939 32.4248C88.3537 31.6052 88.2661 30.8267 88.0312 30.0908C87.6729 28.9683 87.0697 28.0738 86.2217 27.4082C85.3735 26.7426 84.3564 26.3485 83.1719 26.2266ZM168.837 26.7617C167.719 26.8065 166.647 27.1193 165.621 27.6992C164.601 28.2818 163.655 29.1231 162.784 30.2227C161.922 31.3188 161.164 32.6613 160.511 34.25C159.806 35.9832 159.416 37.5355 159.34 38.9062C159.27 40.2797 159.441 41.4837 159.854 42.5176C160.268 43.5513 160.854 44.4251 161.612 45.1387C162.377 45.855 163.24 46.429 164.2 46.8604C165.586 47.48 166.918 47.741 168.193 47.6426C169.478 47.5406 170.615 47.1189 171.606 46.3779C172.604 45.6396 173.363 44.6288 173.885 43.3457C174.366 42.1614 174.545 40.9991 174.419 39.8594C174.293 38.7198 173.905 37.6964 173.253 36.79C172.604 35.8776 171.725 35.1763 170.616 34.6865C169.934 34.3852 169.241 34.2063 168.538 34.1504C167.844 34.0911 167.174 34.1555 166.53 34.3438C165.895 34.5286 165.322 34.8398 164.813 35.2773L164.686 35.2217C165.448 33.3828 166.361 32.0647 167.425 31.2686C168.495 30.4751 169.639 30.3476 170.857 30.8857C171.576 31.2032 172.102 31.6578 172.437 32.249C172.771 32.8406 172.88 33.5003 172.764 34.2275L176.665 35.9512C176.967 34.855 176.996 33.7583 176.753 32.6611C176.515 31.5667 176.018 30.564 175.26 29.6543C174.504 28.7384 173.502 28.0038 172.253 27.4521C171.096 26.941 169.957 26.7108 168.837 26.7617ZM166.829 36.7354C167.289 36.7349 167.748 36.8363 168.205 37.0381C168.814 37.3071 169.296 37.6945 169.65 38.2002C170.005 38.7061 170.214 39.2687 170.279 39.8867C170.35 40.5075 170.258 41.1325 170.002 41.7617C169.746 42.3907 169.379 42.8976 168.899 43.2822C168.42 43.6668 167.879 43.9018 167.277 43.9854C166.676 44.0688 166.07 43.976 165.461 43.707C164.852 43.4379 164.368 43.0451 164.01 42.5303C163.658 42.0182 163.444 41.4469 163.369 40.8174C163.301 40.1907 163.391 39.5714 163.64 38.9609C163.825 38.5047 164.082 38.1124 164.409 37.7842C164.739 37.4498 165.11 37.1917 165.521 37.0098C165.939 36.8306 166.375 36.7386 166.829 36.7354ZM141.376 19.1699C139.97 18.9373 138.687 18.998 137.526 19.3525C136.366 19.7072 135.41 20.3225 134.66 21.1973C133.91 22.072 133.432 23.1709 133.226 24.4932L137.276 25.1631C137.377 24.5186 137.589 23.9833 137.911 23.5576C138.234 23.1318 138.645 22.8321 139.144 22.6582C139.642 22.4843 140.201 22.4477 140.818 22.5498C141.409 22.6477 141.92 22.854 142.35 23.168C142.78 23.4754 143.096 23.869 143.298 24.3477C143.5 24.8198 143.555 25.3523 143.463 25.9443C143.38 26.4772 143.194 26.9562 142.905 27.3809C142.618 27.799 142.226 28.2101 141.731 28.6143C141.244 29.0193 140.648 29.4672 139.945 29.958L131.721 35.4316L131.24 38.5107L145.629 40.8916L146.174 37.3984L137.698 35.9951L137.721 35.8574L141.118 33.4531C142.702 32.4193 143.945 31.5145 144.848 30.7393C145.751 29.9575 146.409 29.2189 146.82 28.5244C147.239 27.831 147.508 27.103 147.627 26.3398C147.809 25.1755 147.671 24.0929 147.214 23.0928C146.757 22.0925 146.029 21.2493 145.03 20.5645C144.04 19.8741 142.821 19.4091 141.376 19.1699ZM115.044 19.7812C113.755 19.0678 112.258 18.7862 110.554 18.9385C108.849 19.0909 107.411 19.6347 106.239 20.5684C105.074 21.4947 104.219 22.7712 103.675 24.3975C103.137 26.0232 102.952 27.9485 103.12 30.1729C103.282 32.4042 103.752 34.2843 104.528 35.8125C105.312 37.3401 106.349 38.4673 107.64 39.1943C108.937 39.9207 110.441 40.2107 112.152 40.0645C113.863 39.9115 115.301 39.3622 116.465 38.416C117.628 37.4697 118.479 36.1739 119.016 34.5283C119.559 32.8821 119.746 30.9397 119.576 28.7021C119.414 26.4772 118.943 24.6134 118.161 23.1123C117.379 21.6047 116.34 20.4943 115.044 19.7812ZM110.821 22.4746C111.597 22.4054 112.29 22.6046 112.899 23.0713C113.516 23.5375 114.019 24.2714 114.408 25.2725C114.804 26.2732 115.062 27.5477 115.179 29.0947C115.363 31.4447 115.151 33.239 114.544 34.4766C113.936 35.7139 113.049 36.3849 111.882 36.4893C111.106 36.5585 110.41 36.3597 109.794 35.8936C109.177 35.4206 108.67 34.677 108.272 33.6631C107.881 32.6418 107.626 31.3472 107.508 29.7803C107.339 27.4624 107.559 25.691 108.167 24.4668C108.775 23.2427 109.661 22.5784 110.821 22.4746Z" fill="url(#paint2_linear_145_1569)" fill-opacity="0.5"/>
<path d="M124.955 7C190.1 7.00004 242.91 59.8104 242.91 124.955C242.91 190.1 190.1 242.91 124.955 242.91C59.8104 242.91 7.00004 190.1 7 124.955C7 59.8103 59.8103 7 124.955 7ZM126.541 212.326L119.431 221.381L119.164 221.386L118.996 212.468L114.72 212.548L115.101 232.774L119.377 232.693L119.269 226.946L121.323 224.339L127.021 232.55L132.137 232.454L124.332 221.427L131.667 212.229L126.541 212.326ZM100.587 208.552C98.8616 208.123 97.2099 208.134 95.6328 208.583C94.0574 209.026 92.6802 209.899 91.502 211.2C90.3236 212.502 89.4684 214.224 88.9365 216.365C88.4064 218.499 88.3504 220.416 88.7695 222.114C89.1953 223.814 89.9968 225.232 91.1738 226.366C92.3573 227.502 93.8252 228.287 95.5762 228.722C96.835 229.034 98.01 229.125 99.1006 228.996C100.199 228.862 101.191 228.559 102.075 228.087C102.967 227.61 103.731 227.009 104.365 226.284C105.008 225.555 105.495 224.753 105.827 223.879L101.634 222.816C101.408 223.317 101.118 223.741 100.768 224.088C100.423 224.436 100.03 224.709 99.5879 224.904C99.1475 225.093 98.669 225.202 98.1533 225.229C97.6441 225.259 97.1114 225.204 96.5557 225.066C95.5652 224.82 94.7525 224.36 94.1191 223.688C93.486 223.015 93.0768 222.149 92.8916 221.093C92.7128 220.037 92.7969 218.81 93.1445 217.41C93.4827 216.049 93.978 214.944 94.6299 214.095C95.2833 213.239 96.049 212.656 96.9268 212.345C97.8062 212.027 98.7545 211.995 99.7705 212.247C100.333 212.387 100.834 212.596 101.273 212.875C101.719 213.155 102.091 213.492 102.387 213.885C102.683 214.277 102.896 214.716 103.026 215.203C103.158 215.684 103.194 216.205 103.136 216.768L107.335 217.811C107.483 216.64 107.427 215.554 107.167 214.553C106.913 213.554 106.485 212.657 105.882 211.862C105.28 211.062 104.529 210.38 103.631 209.817C102.739 209.257 101.724 208.834 100.587 208.552ZM155.535 207.161L157.637 228.459L161.801 226.545L161.238 221.726L167.875 218.677L171.162 222.243L175.327 220.33L160.544 204.859L155.535 207.161ZM165.496 216.096L160.831 218.239L159.898 210.244L160.042 210.178L165.496 216.096ZM74.0205 197.225C72.3781 197.219 70.8125 197.682 69.3242 198.613C67.8359 199.545 66.5442 200.968 65.4492 202.883C64.3575 204.792 63.7872 206.625 63.7393 208.38C63.6914 210.135 64.0859 211.722 64.9209 213.14C65.756 214.558 66.9542 215.713 68.5146 216.605C70.0637 217.491 71.6594 217.937 73.3018 217.943C74.9532 217.947 76.5233 217.483 78.0117 216.552C79.5058 215.624 80.8005 214.202 81.8955 212.287C82.9905 210.372 83.5594 208.535 83.6016 206.776C83.6493 205.021 83.2512 203.436 82.4072 202.021C81.5721 200.602 80.3792 199.45 78.8301 198.564C77.2696 197.672 75.6662 197.225 74.0205 197.225ZM74.2256 201.165C75.1459 201.107 76.0548 201.336 76.9521 201.849C77.8495 202.362 78.5076 203.029 78.9248 203.852C79.3419 204.674 79.4893 205.617 79.3682 206.678C79.2527 207.742 78.8401 208.894 78.1309 210.135C77.4216 211.375 76.6378 212.315 75.7793 212.954C74.9264 213.597 74.0396 213.947 73.1191 214.005C72.1988 214.063 71.2899 213.834 70.3926 213.321C69.4952 212.808 68.837 212.14 68.4199 211.317C68.003 210.495 67.8523 209.551 67.9678 208.487C68.089 207.426 68.5046 206.276 69.2139 205.035C69.9231 203.795 70.7039 202.853 71.5566 202.211C72.4152 201.572 73.3051 201.223 74.2256 201.165ZM179.95 192.867L188.127 202.678C188.62 203.269 188.927 203.906 189.048 204.585C189.173 205.26 189.109 205.928 188.853 206.587C188.601 207.242 188.157 207.836 187.52 208.367C186.887 208.894 186.223 209.224 185.528 209.357C184.834 209.491 184.163 209.436 183.517 209.195C182.875 208.95 182.308 208.531 181.814 207.939L173.638 198.128L170.352 200.866L178.763 210.959C179.707 212.092 180.802 212.86 182.046 213.263C183.29 213.666 184.594 213.703 185.956 213.373C187.314 213.038 188.639 212.333 189.929 211.258C191.213 210.187 192.143 209.014 192.717 207.738C193.287 206.458 193.485 205.169 193.313 203.872C193.146 202.571 192.591 201.354 191.646 200.221L183.236 190.129L179.95 192.867ZM43.8193 195.42L53.1318 204.418L55.582 201.882L49.3447 195.855L60.9512 183.844L57.876 180.872L43.8193 195.42ZM124.955 48.8145C82.904 48.8145 48.8145 82.904 48.8145 124.955C48.8145 167.006 82.904 201.096 124.955 201.096C167.006 201.096 201.096 167.006 201.096 124.955C201.096 82.904 167.006 48.8145 124.955 48.8145ZM201.812 175.445C200.123 175.235 198.529 175.503 197.032 176.251C195.53 176.995 194.197 178.204 193.037 179.875L188.915 185.815L205.533 197.351L209.622 191.459C210.794 189.771 211.467 188.091 211.643 186.417C211.822 184.738 211.515 183.143 210.722 181.63C209.932 180.112 208.671 178.751 206.94 177.55C205.215 176.352 203.505 175.651 201.812 175.445ZM198.289 179.914C199.149 179.461 200.093 179.325 201.119 179.509C202.15 179.687 203.279 180.203 204.507 181.056C205.746 181.915 206.632 182.798 207.165 183.705C207.696 184.603 207.9 185.539 207.777 186.512C207.653 187.476 207.232 188.477 206.511 189.516L204.961 191.747L194.364 184.392L195.918 182.151C196.639 181.113 197.43 180.367 198.289 179.914ZM29.0977 173.341L31.4023 176.943L37.4424 173.078L39.125 175.708L35.1504 182.801L37.6953 186.778L42.001 178.926C42.057 178.963 42.1134 179 42.1699 179.036C43.1951 179.686 44.2687 179.996 45.3906 179.966C46.5183 179.932 47.6487 179.553 48.7803 178.829C49.906 178.109 50.7307 177.241 51.2539 176.227C51.7862 175.214 51.9872 174.104 51.8564 172.897C51.7347 171.693 51.2618 170.447 50.4385 169.16L46.1367 162.438L29.0977 173.341ZM124.964 66.5283C125.619 66.5283 126.27 66.657 126.875 66.9062C127.48 67.1555 128.031 67.521 128.494 67.9814C140.857 80.2885 154.556 86.3241 169.82 86.3242C171.142 86.3242 172.411 86.8451 173.346 87.7725C174.28 88.7 174.806 89.9588 174.806 91.2705V120.96C174.806 152.806 158.444 174.453 126.529 184.999C125.507 185.337 124.401 185.337 123.379 184.999C91.4746 174.453 75.1035 152.806 75.1035 120.96V91.2705C75.1036 89.9587 75.6287 88.7 76.5635 87.7725C77.4982 86.8451 78.7661 86.3244 80.0879 86.3242C95.3423 86.3242 109.042 80.2788 121.435 67.9814C121.898 67.5208 122.448 67.1556 123.054 66.9062C123.659 66.657 124.308 66.5284 124.964 66.5283ZM47.0518 170.354C47.4952 171.048 47.7598 171.687 47.8457 172.273C47.9406 172.862 47.8644 173.391 47.6182 173.861C47.3754 174.337 46.9711 174.756 46.4053 175.118C45.8451 175.477 45.3039 175.663 44.7812 175.677C44.2623 175.696 43.7627 175.539 43.2832 175.205C42.8037 174.871 42.3433 174.36 41.9033 173.672L40.3379 171.225L45.4971 167.925L47.0518 170.354ZM202.464 165.399L221.128 173.201L222.777 169.255L204.113 161.453L202.464 165.399ZM20.7412 149.447L25.1182 162.398L28.458 161.27L25.4512 152.37L30.0264 150.823L32.7969 159.021L36.1377 157.892L33.3672 149.694L37.9346 148.151L40.9287 157.013L44.2695 155.884L39.9053 142.971L20.7412 149.447ZM207.602 155.192L211.062 155.871L212.255 149.794L228.645 153.01L229.459 148.861L213.068 145.646L214.261 139.568L210.801 138.889L207.602 155.192ZM145.556 107.853C143.468 107.853 141.263 108.78 138.942 110.635L116.319 128.021V120.718C116.319 119.951 115.694 119.328 114.924 119.328H96.832C96.0618 119.329 95.4368 119.951 95.4365 120.718V136.368C95.4367 141.932 100.658 145.061 106.227 145.235C109.939 145.351 113.303 143.67 116.319 140.193L141.379 113.765C143.467 111.678 144.86 110.635 147.296 110.635H153.561C154.605 110.635 155.127 109.939 155.127 109.243C155.127 108.548 154.604 107.853 153.561 107.853H145.556ZM18.1055 120.329L18.4043 124.596L26.7402 124.011L27.3486 132.672L19.0127 133.257L19.3115 137.514L39.4912 136.098L39.1924 131.841L30.8662 132.426L30.2588 123.765L38.585 123.18L38.2852 118.913L18.1055 120.329ZM228.128 118.569L228.581 127.952L223.756 128.185L223.34 119.542L219.817 119.712L220.233 128.354L215.419 128.587L214.969 119.243L211.446 119.413L212.103 133.028L232.309 132.055L231.65 118.399L228.128 118.569ZM221.766 92.9863C220.083 92.6747 218.235 92.8312 216.223 93.4561C214.217 94.079 212.612 94.9951 211.408 96.2031C210.202 97.4049 209.433 98.8263 209.102 100.467C208.764 102.109 208.897 103.903 209.5 105.846L211.645 112.751L230.964 106.752L228.837 99.9033C228.228 97.9413 227.317 96.3755 226.106 95.207C224.894 94.0324 223.446 93.2918 221.766 92.9863ZM29.2744 94.7168C27.8391 94.4751 26.5721 94.5918 25.4756 95.0654C24.3845 95.5468 23.4791 96.3319 22.7607 97.4209C22.0412 98.5164 21.5283 99.8663 21.2207 101.47C20.9107 103.086 20.8879 104.514 21.1533 105.752C21.424 106.997 21.9446 108.009 22.7139 108.787C23.4884 109.572 24.483 110.086 25.6973 110.325C26.5262 110.477 27.29 110.466 27.9873 110.291C28.6832 110.123 29.3179 109.819 29.8916 109.379C30.4654 108.939 30.984 108.388 31.4463 107.726C31.9085 107.063 32.3195 106.318 32.6797 105.488L33.4492 103.785C33.6293 103.371 33.8233 102.985 34.0322 102.63C34.2477 102.276 34.4774 101.971 34.7207 101.716C34.9705 101.462 35.2446 101.276 35.542 101.159C35.8379 101.049 36.1627 101.033 36.5156 101.114C36.9424 101.196 37.3007 101.393 37.5898 101.703C37.8776 102.02 38.07 102.433 38.167 102.94C38.2704 103.45 38.2564 104.047 38.125 104.732C37.9315 105.741 37.5618 106.498 37.0156 107.004C36.4695 107.509 35.7974 107.726 35 107.653L34.2285 111.679C35.4156 111.886 36.5175 111.769 37.5342 111.327C38.5509 110.885 39.4173 110.16 40.1338 109.15C40.849 108.148 41.3481 106.909 41.6309 105.435C41.9086 103.986 41.9053 102.644 41.6191 101.409C41.333 100.174 40.8029 99.1438 40.0293 98.3184C39.2544 97.4994 38.2645 96.9781 37.0605 96.7539C35.5939 96.466 34.3338 96.7235 33.2812 97.5273C32.2286 98.3312 31.338 99.5321 30.6094 101.129L29.6514 103.188C29.3379 103.878 29.0266 104.452 28.7178 104.909C28.4076 105.373 28.0753 105.705 27.7217 105.905C27.367 106.112 26.9666 106.172 26.5205 106.087C26.0421 105.995 25.6458 105.769 25.333 105.407C25.0204 105.046 24.8113 104.579 24.7061 104.01C24.5996 103.446 24.6146 102.808 24.751 102.097C24.8899 101.373 25.1249 100.743 25.4551 100.21C25.7904 99.6847 26.2107 99.2925 26.7158 99.0342C27.2264 98.7835 27.8196 98.6999 28.4941 98.7822L29.2744 94.7168ZM217.488 97.5312C218.928 97.0841 220.17 96.9302 221.213 97.0684C222.247 97.2022 223.11 97.6165 223.802 98.3115C224.485 99.0025 225.015 99.9528 225.39 101.16L226.195 103.754L213.876 107.58L213.067 104.976C212.693 103.768 212.591 102.686 212.763 101.729C212.935 100.773 213.409 99.9461 214.186 99.25C214.96 98.5477 216.061 97.9745 217.488 97.5312ZM64.8037 47.3291C52.5591 56.7239 42.5969 68.9209 35.8906 82.957L39.2695 84.5703C45.7182 71.0736 55.3005 59.339 67.083 50.2988L64.8037 47.3291ZM182.826 50.2988C194.609 59.3389 204.19 71.0738 210.639 84.5703L214.018 82.957C207.311 68.921 197.35 56.7238 185.105 47.3291L182.826 50.2988ZM83.1719 26.2266C81.9916 26.0962 80.7109 26.2769 79.3311 26.7686C77.9888 27.2469 76.8852 27.9263 76.0205 28.8066C75.1558 29.687 74.5876 30.6986 74.3164 31.8408C74.0453 32.983 74.1136 34.1918 74.5205 35.4668L78.3877 34.0889C78.1894 33.4674 78.1369 32.8887 78.2314 32.3535C78.3261 31.8183 78.5549 31.3516 78.917 30.9541C79.2791 30.5567 79.7552 30.2531 80.3447 30.043C80.9091 29.8419 81.4507 29.7761 81.9688 29.8457C82.4849 29.909 82.9393 30.1037 83.3301 30.4307C83.7188 30.7513 84.0043 31.1977 84.1865 31.7686C84.3505 32.2823 84.3992 32.7986 84.334 33.3164C84.2667 33.8278 84.1052 34.3838 83.8496 34.9834C83.6002 35.5809 83.2751 36.2692 82.874 37.0479L78.0645 45.915L79.0117 48.8838L92.75 43.9893L91.6748 40.6201L83.583 43.5039L83.54 43.3701L85.4639 39.5801C86.3987 37.8905 87.0907 36.4809 87.541 35.3525C87.9892 34.218 88.2404 33.2422 88.2939 32.4248C88.3537 31.6052 88.2661 30.8267 88.0312 30.0908C87.6729 28.9683 87.0697 28.0738 86.2217 27.4082C85.3735 26.7426 84.3564 26.3485 83.1719 26.2266ZM168.837 26.7617C167.719 26.8065 166.647 27.1193 165.621 27.6992C164.601 28.2818 163.655 29.1231 162.784 30.2227C161.922 31.3188 161.164 32.6613 160.511 34.25C159.806 35.9832 159.416 37.5355 159.34 38.9062C159.27 40.2797 159.441 41.4837 159.854 42.5176C160.268 43.5513 160.854 44.4251 161.612 45.1387C162.377 45.855 163.24 46.429 164.2 46.8604C165.586 47.48 166.918 47.741 168.193 47.6426C169.478 47.5406 170.615 47.1189 171.606 46.3779C172.604 45.6396 173.363 44.6288 173.885 43.3457C174.366 42.1614 174.545 40.9991 174.419 39.8594C174.293 38.7198 173.905 37.6964 173.253 36.79C172.604 35.8776 171.725 35.1763 170.616 34.6865C169.934 34.3852 169.241 34.2063 168.538 34.1504C167.844 34.0911 167.174 34.1555 166.53 34.3438C165.895 34.5286 165.322 34.8398 164.813 35.2773L164.686 35.2217C165.448 33.3828 166.361 32.0647 167.425 31.2686C168.495 30.4751 169.639 30.3476 170.857 30.8857C171.576 31.2032 172.102 31.6578 172.437 32.249C172.771 32.8406 172.88 33.5003 172.764 34.2275L176.665 35.9512C176.967 34.855 176.996 33.7583 176.753 32.6611C176.515 31.5667 176.018 30.564 175.26 29.6543C174.504 28.7384 173.502 28.0038 172.253 27.4521C171.096 26.941 169.957 26.7108 168.837 26.7617ZM166.829 36.7354C167.289 36.7349 167.748 36.8363 168.205 37.0381C168.814 37.3071 169.296 37.6945 169.65 38.2002C170.005 38.7061 170.214 39.2687 170.279 39.8867C170.35 40.5075 170.258 41.1325 170.002 41.7617C169.746 42.3907 169.379 42.8976 168.899 43.2822C168.42 43.6668 167.879 43.9018 167.277 43.9854C166.676 44.0688 166.07 43.976 165.461 43.707C164.852 43.4379 164.368 43.0451 164.01 42.5303C163.658 42.0182 163.444 41.4469 163.369 40.8174C163.301 40.1907 163.391 39.5714 163.64 38.9609C163.825 38.5047 164.082 38.1124 164.409 37.7842C164.739 37.4498 165.11 37.1917 165.521 37.0098C165.939 36.8306 166.375 36.7386 166.829 36.7354ZM141.376 19.1699C139.97 18.9373 138.687 18.998 137.526 19.3525C136.366 19.7072 135.41 20.3225 134.66 21.1973C133.91 22.072 133.432 23.1709 133.226 24.4932L137.276 25.1631C137.377 24.5186 137.589 23.9833 137.911 23.5576C138.234 23.1318 138.645 22.8321 139.144 22.6582C139.642 22.4843 140.201 22.4477 140.818 22.5498C141.409 22.6477 141.92 22.854 142.35 23.168C142.78 23.4754 143.096 23.869 143.298 24.3477C143.5 24.8198 143.555 25.3523 143.463 25.9443C143.38 26.4772 143.194 26.9562 142.905 27.3809C142.618 27.799 142.226 28.2101 141.731 28.6143C141.244 29.0193 140.648 29.4672 139.945 29.958L131.721 35.4316L131.24 38.5107L145.629 40.8916L146.174 37.3984L137.698 35.9951L137.721 35.8574L141.118 33.4531C142.702 32.4193 143.945 31.5145 144.848 30.7393C145.751 29.9575 146.409 29.2189 146.82 28.5244C147.239 27.831 147.508 27.103 147.627 26.3398C147.809 25.1755 147.671 24.0929 147.214 23.0928C146.757 22.0925 146.029 21.2493 145.03 20.5645C144.04 19.8741 142.821 19.4091 141.376 19.1699ZM115.044 19.7812C113.755 19.0678 112.258 18.7862 110.554 18.9385C108.849 19.0909 107.411 19.6347 106.239 20.5684C105.074 21.4947 104.219 22.7712 103.675 24.3975C103.137 26.0232 102.952 27.9485 103.12 30.1729C103.282 32.4042 103.752 34.2843 104.528 35.8125C105.312 37.3401 106.349 38.4673 107.64 39.1943C108.937 39.9207 110.441 40.2107 112.152 40.0645C113.863 39.9115 115.301 39.3622 116.465 38.416C117.628 37.4697 118.479 36.1739 119.016 34.5283C119.559 32.8821 119.746 30.9397 119.576 28.7021C119.414 26.4772 118.943 24.6134 118.161 23.1123C117.379 21.6047 116.34 20.4943 115.044 19.7812ZM110.821 22.4746C111.597 22.4054 112.29 22.6046 112.899 23.0713C113.516 23.5375 114.019 24.2714 114.408 25.2725C114.804 26.2732 115.062 27.5477 115.179 29.0947C115.363 31.4447 115.151 33.239 114.544 34.4766C113.936 35.7139 113.049 36.3849 111.882 36.4893C111.106 36.5585 110.41 36.3597 109.794 35.8936C109.177 35.4206 108.67 34.677 108.272 33.6631C107.881 32.6418 107.626 31.3472 107.508 29.7803C107.339 27.4624 107.559 25.691 108.167 24.4668C108.775 23.2427 109.661 22.5784 110.821 22.4746Z" fill="url(#paint3_linear_145_1569)" fill-opacity="0.45"/>
<path d="M124.955 7C190.1 7.00004 242.91 59.8104 242.91 124.955C242.91 190.1 190.1 242.91 124.955 242.91C59.8104 242.91 7.00004 190.1 7 124.955C7 59.8103 59.8103 7 124.955 7ZM126.541 212.326L119.431 221.381L119.164 221.386L118.996 212.468L114.72 212.548L115.101 232.774L119.377 232.693L119.269 226.946L121.323 224.339L127.021 232.55L132.137 232.454L124.332 221.427L131.667 212.229L126.541 212.326ZM100.587 208.552C98.8616 208.123 97.2099 208.134 95.6328 208.583C94.0574 209.026 92.6802 209.899 91.502 211.2C90.3236 212.502 89.4684 214.224 88.9365 216.365C88.4064 218.499 88.3504 220.416 88.7695 222.114C89.1953 223.814 89.9968 225.232 91.1738 226.366C92.3573 227.502 93.8252 228.287 95.5762 228.722C96.835 229.034 98.01 229.125 99.1006 228.996C100.199 228.862 101.191 228.559 102.075 228.087C102.967 227.61 103.731 227.009 104.365 226.284C105.008 225.555 105.495 224.753 105.827 223.879L101.634 222.816C101.408 223.317 101.118 223.741 100.768 224.088C100.423 224.436 100.03 224.709 99.5879 224.904C99.1475 225.093 98.669 225.202 98.1533 225.229C97.6441 225.259 97.1114 225.204 96.5557 225.066C95.5652 224.82 94.7525 224.36 94.1191 223.688C93.486 223.015 93.0768 222.149 92.8916 221.093C92.7128 220.037 92.7969 218.81 93.1445 217.41C93.4827 216.049 93.978 214.944 94.6299 214.095C95.2833 213.239 96.049 212.656 96.9268 212.345C97.8062 212.027 98.7545 211.995 99.7705 212.247C100.333 212.387 100.834 212.596 101.273 212.875C101.719 213.155 102.091 213.492 102.387 213.885C102.683 214.277 102.896 214.716 103.026 215.203C103.158 215.684 103.194 216.205 103.136 216.768L107.335 217.811C107.483 216.64 107.427 215.554 107.167 214.553C106.913 213.554 106.485 212.657 105.882 211.862C105.28 211.062 104.529 210.38 103.631 209.817C102.739 209.257 101.724 208.834 100.587 208.552ZM155.535 207.161L157.637 228.459L161.801 226.545L161.238 221.726L167.875 218.677L171.162 222.243L175.327 220.33L160.544 204.859L155.535 207.161ZM165.496 216.096L160.831 218.239L159.898 210.244L160.042 210.178L165.496 216.096ZM74.0205 197.225C72.3781 197.219 70.8125 197.682 69.3242 198.613C67.8359 199.545 66.5442 200.968 65.4492 202.883C64.3575 204.792 63.7872 206.625 63.7393 208.38C63.6914 210.135 64.0859 211.722 64.9209 213.14C65.756 214.558 66.9542 215.713 68.5146 216.605C70.0637 217.491 71.6594 217.937 73.3018 217.943C74.9532 217.947 76.5233 217.483 78.0117 216.552C79.5058 215.624 80.8005 214.202 81.8955 212.287C82.9905 210.372 83.5594 208.535 83.6016 206.776C83.6493 205.021 83.2512 203.436 82.4072 202.021C81.5721 200.602 80.3792 199.45 78.8301 198.564C77.2696 197.672 75.6662 197.225 74.0205 197.225ZM74.2256 201.165C75.1459 201.107 76.0548 201.336 76.9521 201.849C77.8495 202.362 78.5076 203.029 78.9248 203.852C79.3419 204.674 79.4893 205.617 79.3682 206.678C79.2527 207.742 78.8401 208.894 78.1309 210.135C77.4216 211.375 76.6378 212.315 75.7793 212.954C74.9264 213.597 74.0396 213.947 73.1191 214.005C72.1988 214.063 71.2899 213.834 70.3926 213.321C69.4952 212.808 68.837 212.14 68.4199 211.317C68.003 210.495 67.8523 209.551 67.9678 208.487C68.089 207.426 68.5046 206.276 69.2139 205.035C69.9231 203.795 70.7039 202.853 71.5566 202.211C72.4152 201.572 73.3051 201.223 74.2256 201.165ZM179.95 192.867L188.127 202.678C188.62 203.269 188.927 203.906 189.048 204.585C189.173 205.26 189.109 205.928 188.853 206.587C188.601 207.242 188.157 207.836 187.52 208.367C186.887 208.894 186.223 209.224 185.528 209.357C184.834 209.491 184.163 209.436 183.517 209.195C182.875 208.95 182.308 208.531 181.814 207.939L173.638 198.128L170.352 200.866L178.763 210.959C179.707 212.092 180.802 212.86 182.046 213.263C183.29 213.666 184.594 213.703 185.956 213.373C187.314 213.038 188.639 212.333 189.929 211.258C191.213 210.187 192.143 209.014 192.717 207.738C193.287 206.458 193.485 205.169 193.313 203.872C193.146 202.571 192.591 201.354 191.646 200.221L183.236 190.129L179.95 192.867ZM43.8193 195.42L53.1318 204.418L55.582 201.882L49.3447 195.855L60.9512 183.844L57.876 180.872L43.8193 195.42ZM124.955 48.8145C82.904 48.8145 48.8145 82.904 48.8145 124.955C48.8145 167.006 82.904 201.096 124.955 201.096C167.006 201.096 201.096 167.006 201.096 124.955C201.096 82.904 167.006 48.8145 124.955 48.8145ZM201.812 175.445C200.123 175.235 198.529 175.503 197.032 176.251C195.53 176.995 194.197 178.204 193.037 179.875L188.915 185.815L205.533 197.351L209.622 191.459C210.794 189.771 211.467 188.091 211.643 186.417C211.822 184.738 211.515 183.143 210.722 181.63C209.932 180.112 208.671 178.751 206.94 177.55C205.215 176.352 203.505 175.651 201.812 175.445ZM198.289 179.914C199.149 179.461 200.093 179.325 201.119 179.509C202.15 179.687 203.279 180.203 204.507 181.056C205.746 181.915 206.632 182.798 207.165 183.705C207.696 184.603 207.9 185.539 207.777 186.512C207.653 187.476 207.232 188.477 206.511 189.516L204.961 191.747L194.364 184.392L195.918 182.151C196.639 181.113 197.43 180.367 198.289 179.914ZM29.0977 173.341L31.4023 176.943L37.4424 173.078L39.125 175.708L35.1504 182.801L37.6953 186.778L42.001 178.926C42.057 178.963 42.1134 179 42.1699 179.036C43.1951 179.686 44.2687 179.996 45.3906 179.966C46.5183 179.932 47.6487 179.553 48.7803 178.829C49.906 178.109 50.7307 177.241 51.2539 176.227C51.7862 175.214 51.9872 174.104 51.8564 172.897C51.7347 171.693 51.2618 170.447 50.4385 169.16L46.1367 162.438L29.0977 173.341ZM124.964 66.5283C125.619 66.5283 126.27 66.657 126.875 66.9062C127.48 67.1555 128.031 67.521 128.494 67.9814C140.857 80.2885 154.556 86.3241 169.82 86.3242C171.142 86.3242 172.411 86.8451 173.346 87.7725C174.28 88.7 174.806 89.9588 174.806 91.2705V120.96C174.806 152.806 158.444 174.453 126.529 184.999C125.507 185.337 124.401 185.337 123.379 184.999C91.4746 174.453 75.1035 152.806 75.1035 120.96V91.2705C75.1036 89.9587 75.6287 88.7 76.5635 87.7725C77.4982 86.8451 78.7661 86.3244 80.0879 86.3242C95.3423 86.3242 109.042 80.2788 121.435 67.9814C121.898 67.5208 122.448 67.1556 123.054 66.9062C123.659 66.657 124.308 66.5284 124.964 66.5283ZM47.0518 170.354C47.4952 171.048 47.7598 171.687 47.8457 172.273C47.9406 172.862 47.8644 173.391 47.6182 173.861C47.3754 174.337 46.9711 174.756 46.4053 175.118C45.8451 175.477 45.3039 175.663 44.7812 175.677C44.2623 175.696 43.7627 175.539 43.2832 175.205C42.8037 174.871 42.3433 174.36 41.9033 173.672L40.3379 171.225L45.4971 167.925L47.0518 170.354ZM202.464 165.399L221.128 173.201L222.777 169.255L204.113 161.453L202.464 165.399ZM20.7412 149.447L25.1182 162.398L28.458 161.27L25.4512 152.37L30.0264 150.823L32.7969 159.021L36.1377 157.892L33.3672 149.694L37.9346 148.151L40.9287 157.013L44.2695 155.884L39.9053 142.971L20.7412 149.447ZM207.602 155.192L211.062 155.871L212.255 149.794L228.645 153.01L229.459 148.861L213.068 145.646L214.261 139.568L210.801 138.889L207.602 155.192ZM145.556 107.853C143.468 107.853 141.263 108.78 138.942 110.635L116.319 128.021V120.718C116.319 119.951 115.694 119.328 114.924 119.328H96.832C96.0618 119.329 95.4368 119.951 95.4365 120.718V136.368C95.4367 141.932 100.658 145.061 106.227 145.235C109.939 145.351 113.303 143.67 116.319 140.193L141.379 113.765C143.467 111.678 144.86 110.635 147.296 110.635H153.561C154.605 110.635 155.127 109.939 155.127 109.243C155.127 108.548 154.604 107.853 153.561 107.853H145.556ZM18.1055 120.329L18.4043 124.596L26.7402 124.011L27.3486 132.672L19.0127 133.257L19.3115 137.514L39.4912 136.098L39.1924 131.841L30.8662 132.426L30.2588 123.765L38.585 123.18L38.2852 118.913L18.1055 120.329ZM228.128 118.569L228.581 127.952L223.756 128.185L223.34 119.542L219.817 119.712L220.233 128.354L215.419 128.587L214.969 119.243L211.446 119.413L212.103 133.028L232.309 132.055L231.65 118.399L228.128 118.569ZM221.766 92.9863C220.083 92.6747 218.235 92.8312 216.223 93.4561C214.217 94.079 212.612 94.9951 211.408 96.2031C210.202 97.4049 209.433 98.8263 209.102 100.467C208.764 102.109 208.897 103.903 209.5 105.846L211.645 112.751L230.964 106.752L228.837 99.9033C228.228 97.9413 227.317 96.3755 226.106 95.207C224.894 94.0324 223.446 93.2918 221.766 92.9863ZM29.2744 94.7168C27.8391 94.4751 26.5721 94.5918 25.4756 95.0654C24.3845 95.5468 23.4791 96.3319 22.7607 97.4209C22.0412 98.5164 21.5283 99.8663 21.2207 101.47C20.9107 103.086 20.8879 104.514 21.1533 105.752C21.424 106.997 21.9446 108.009 22.7139 108.787C23.4884 109.572 24.483 110.086 25.6973 110.325C26.5262 110.477 27.29 110.466 27.9873 110.291C28.6832 110.123 29.3179 109.819 29.8916 109.379C30.4654 108.939 30.984 108.388 31.4463 107.726C31.9085 107.063 32.3195 106.318 32.6797 105.488L33.4492 103.785C33.6293 103.371 33.8233 102.985 34.0322 102.63C34.2477 102.276 34.4774 101.971 34.7207 101.716C34.9705 101.462 35.2446 101.276 35.542 101.159C35.8379 101.049 36.1627 101.033 36.5156 101.114C36.9424 101.196 37.3007 101.393 37.5898 101.703C37.8776 102.02 38.07 102.433 38.167 102.94C38.2704 103.45 38.2564 104.047 38.125 104.732C37.9315 105.741 37.5618 106.498 37.0156 107.004C36.4695 107.509 35.7974 107.726 35 107.653L34.2285 111.679C35.4156 111.886 36.5175 111.769 37.5342 111.327C38.5509 110.885 39.4173 110.16 40.1338 109.15C40.849 108.148 41.3481 106.909 41.6309 105.435C41.9086 103.986 41.9053 102.644 41.6191 101.409C41.333 100.174 40.8029 99.1438 40.0293 98.3184C39.2544 97.4994 38.2645 96.9781 37.0605 96.7539C35.5939 96.466 34.3338 96.7235 33.2812 97.5273C32.2286 98.3312 31.338 99.5321 30.6094 101.129L29.6514 103.188C29.3379 103.878 29.0266 104.452 28.7178 104.909C28.4076 105.373 28.0753 105.705 27.7217 105.905C27.367 106.112 26.9666 106.172 26.5205 106.087C26.0421 105.995 25.6458 105.769 25.333 105.407C25.0204 105.046 24.8113 104.579 24.7061 104.01C24.5996 103.446 24.6146 102.808 24.751 102.097C24.8899 101.373 25.1249 100.743 25.4551 100.21C25.7904 99.6847 26.2107 99.2925 26.7158 99.0342C27.2264 98.7835 27.8196 98.6999 28.4941 98.7822L29.2744 94.7168ZM217.488 97.5312C218.928 97.0841 220.17 96.9302 221.213 97.0684C222.247 97.2022 223.11 97.6165 223.802 98.3115C224.485 99.0025 225.015 99.9528 225.39 101.16L226.195 103.754L213.876 107.58L213.067 104.976C212.693 103.768 212.591 102.686 212.763 101.729C212.935 100.773 213.409 99.9461 214.186 99.25C214.96 98.5477 216.061 97.9745 217.488 97.5312ZM64.8037 47.3291C52.5591 56.7239 42.5969 68.9209 35.8906 82.957L39.2695 84.5703C45.7182 71.0736 55.3005 59.339 67.083 50.2988L64.8037 47.3291ZM182.826 50.2988C194.609 59.3389 204.19 71.0738 210.639 84.5703L214.018 82.957C207.311 68.921 197.35 56.7238 185.105 47.3291L182.826 50.2988ZM83.1719 26.2266C81.9916 26.0962 80.7109 26.2769 79.3311 26.7686C77.9888 27.2469 76.8852 27.9263 76.0205 28.8066C75.1558 29.687 74.5876 30.6986 74.3164 31.8408C74.0453 32.983 74.1136 34.1918 74.5205 35.4668L78.3877 34.0889C78.1894 33.4674 78.1369 32.8887 78.2314 32.3535C78.3261 31.8183 78.5549 31.3516 78.917 30.9541C79.2791 30.5567 79.7552 30.2531 80.3447 30.043C80.9091 29.8419 81.4507 29.7761 81.9688 29.8457C82.4849 29.909 82.9393 30.1037 83.3301 30.4307C83.7188 30.7513 84.0043 31.1977 84.1865 31.7686C84.3505 32.2823 84.3992 32.7986 84.334 33.3164C84.2667 33.8278 84.1052 34.3838 83.8496 34.9834C83.6002 35.5809 83.2751 36.2692 82.874 37.0479L78.0645 45.915L79.0117 48.8838L92.75 43.9893L91.6748 40.6201L83.583 43.5039L83.54 43.3701L85.4639 39.5801C86.3987 37.8905 87.0907 36.4809 87.541 35.3525C87.9892 34.218 88.2404 33.2422 88.2939 32.4248C88.3537 31.6052 88.2661 30.8267 88.0312 30.0908C87.6729 28.9683 87.0697 28.0738 86.2217 27.4082C85.3735 26.7426 84.3564 26.3485 83.1719 26.2266ZM168.837 26.7617C167.719 26.8065 166.647 27.1193 165.621 27.6992C164.601 28.2818 163.655 29.1231 162.784 30.2227C161.922 31.3188 161.164 32.6613 160.511 34.25C159.806 35.9832 159.416 37.5355 159.34 38.9062C159.27 40.2797 159.441 41.4837 159.854 42.5176C160.268 43.5513 160.854 44.4251 161.612 45.1387C162.377 45.855 163.24 46.429 164.2 46.8604C165.586 47.48 166.918 47.741 168.193 47.6426C169.478 47.5406 170.615 47.1189 171.606 46.3779C172.604 45.6396 173.363 44.6288 173.885 43.3457C174.366 42.1614 174.545 40.9991 174.419 39.8594C174.293 38.7198 173.905 37.6964 173.253 36.79C172.604 35.8776 171.725 35.1763 170.616 34.6865C169.934 34.3852 169.241 34.2063 168.538 34.1504C167.844 34.0911 167.174 34.1555 166.53 34.3438C165.895 34.5286 165.322 34.8398 164.813 35.2773L164.686 35.2217C165.448 33.3828 166.361 32.0647 167.425 31.2686C168.495 30.4751 169.639 30.3476 170.857 30.8857C171.576 31.2032 172.102 31.6578 172.437 32.249C172.771 32.8406 172.88 33.5003 172.764 34.2275L176.665 35.9512C176.967 34.855 176.996 33.7583 176.753 32.6611C176.515 31.5667 176.018 30.564 175.26 29.6543C174.504 28.7384 173.502 28.0038 172.253 27.4521C171.096 26.941 169.957 26.7108 168.837 26.7617ZM166.829 36.7354C167.289 36.7349 167.748 36.8363 168.205 37.0381C168.814 37.3071 169.296 37.6945 169.65 38.2002C170.005 38.7061 170.214 39.2687 170.279 39.8867C170.35 40.5075 170.258 41.1325 170.002 41.7617C169.746 42.3907 169.379 42.8976 168.899 43.2822C168.42 43.6668 167.879 43.9018 167.277 43.9854C166.676 44.0688 166.07 43.976 165.461 43.707C164.852 43.4379 164.368 43.0451 164.01 42.5303C163.658 42.0182 163.444 41.4469 163.369 40.8174C163.301 40.1907 163.391 39.5714 163.64 38.9609C163.825 38.5047 164.082 38.1124 164.409 37.7842C164.739 37.4498 165.11 37.1917 165.521 37.0098C165.939 36.8306 166.375 36.7386 166.829 36.7354ZM141.376 19.1699C139.97 18.9373 138.687 18.998 137.526 19.3525C136.366 19.7072 135.41 20.3225 134.66 21.1973C133.91 22.072 133.432 23.1709 133.226 24.4932L137.276 25.1631C137.377 24.5186 137.589 23.9833 137.911 23.5576C138.234 23.1318 138.645 22.8321 139.144 22.6582C139.642 22.4843 140.201 22.4477 140.818 22.5498C141.409 22.6477 141.92 22.854 142.35 23.168C142.78 23.4754 143.096 23.869 143.298 24.3477C143.5 24.8198 143.555 25.3523 143.463 25.9443C143.38 26.4772 143.194 26.9562 142.905 27.3809C142.618 27.799 142.226 28.2101 141.731 28.6143C141.244 29.0193 140.648 29.4672 139.945 29.958L131.721 35.4316L131.24 38.5107L145.629 40.8916L146.174 37.3984L137.698 35.9951L137.721 35.8574L141.118 33.4531C142.702 32.4193 143.945 31.5145 144.848 30.7393C145.751 29.9575 146.409 29.2189 146.82 28.5244C147.239 27.831 147.508 27.103 147.627 26.3398C147.809 25.1755 147.671 24.0929 147.214 23.0928C146.757 22.0925 146.029 21.2493 145.03 20.5645C144.04 19.8741 142.821 19.4091 141.376 19.1699ZM115.044 19.7812C113.755 19.0678 112.258 18.7862 110.554 18.9385C108.849 19.0909 107.411 19.6347 106.239 20.5684C105.074 21.4947 104.219 22.7712 103.675 24.3975C103.137 26.0232 102.952 27.9485 103.12 30.1729C103.282 32.4042 103.752 34.2843 104.528 35.8125C105.312 37.3401 106.349 38.4673 107.64 39.1943C108.937 39.9207 110.441 40.2107 112.152 40.0645C113.863 39.9115 115.301 39.3622 116.465 38.416C117.628 37.4697 118.479 36.1739 119.016 34.5283C119.559 32.8821 119.746 30.9397 119.576 28.7021C119.414 26.4772 118.943 24.6134 118.161 23.1123C117.379 21.6047 116.34 20.4943 115.044 19.7812ZM110.821 22.4746C111.597 22.4054 112.29 22.6046 112.899 23.0713C113.516 23.5375 114.019 24.2714 114.408 25.2725C114.804 26.2732 115.062 27.5477 115.179 29.0947C115.363 31.4447 115.151 33.239 114.544 34.4766C113.936 35.7139 113.049 36.3849 111.882 36.4893C111.106 36.5585 110.41 36.3597 109.794 35.8936C109.177 35.4206 108.67 34.677 108.272 33.6631C107.881 32.6418 107.626 31.3472 107.508 29.7803C107.339 27.4624 107.559 25.691 108.167 24.4668C108.775 23.2427 109.661 22.5784 110.821 22.4746Z" fill="url(#paint4_linear_145_1569)" fill-opacity="0.45"/>
</g>
<defs>
<filter id="filter0_i_145_1569" x="7" y="7" width="235.91" height="239.91" filterUnits="userSpaceOnUse" color-interpolation-filters="sRGB">
<feFlood flood-opacity="0" result="BackgroundImageFix"/>
<feBlend mode="normal" in="SourceGraphic" in2="BackgroundImageFix" result="shape"/>
<feColorMatrix in="SourceAlpha" type="matrix" values="0 0 0 0 0 0 0 0 0 0 0 0 0 0 0 0 0 0 127 0" result="hardAlpha"/>
<feOffset dy="4"/>
<feGaussianBlur stdDeviation="2"/>
<feComposite in2="hardAlpha" operator="arithmetic" k2="-1" k3="1"/>
<feColorMatrix type="matrix" values="0 0 0 0 1 0 0 0 0 1 0 0 0 0 1 0 0 0 0.2 0"/>
<feBlend mode="normal" in2="shape" result="effect1_innerShadow_145_1569"/>
</filter>
<linearGradient id="paint0_linear_145_1569" x1="32.0719" y1="170.428" x2="176.022" y2="49.5995" gradientUnits="userSpaceOnUse">
<stop offset="0.281768" stop-color="#1A172F"/>
<stop offset="0.498189" stop-color="#5C5592"/>
<stop offset="0.529092" stop-color="#9B91DE"/>
<stop offset="0.814536" stop-color="#1A172F"/>
</linearGradient>
<linearGradient id="paint1_linear_145_1569" x1="235.975" y1="177.799" x2="142.744" y2="192.343" gradientUnits="userSpaceOnUse">
<stop stop-color="#AFA2FF"/>
<stop offset="1" stop-color="#6557E5"/>
</linearGradient>
<linearGradient id="paint2_linear_145_1569" x1="204.277" y1="49.8862" x2="106.571" y2="152.067" gradientUnits="userSpaceOnUse">
<stop stop-color="white" stop-opacity="0"/>
<stop offset="0.697115" stop-color="white"/>
<stop offset="0.746045" stop-color="white"/>
<stop offset="1" stop-color="white" stop-opacity="0"/>
</linearGradient>
<linearGradient id="paint3_linear_145_1569" x1="170.714" y1="153.983" x2="77.8555" y2="250.198" gradientUnits="userSpaceOnUse">
<stop offset="0.0528846" stop-color="#AFA2FF" stop-opacity="0"/>
<stop offset="0.465152" stop-color="#4A27B3"/>
<stop offset="0.711538" stop-color="#4A27B3"/>
<stop offset="0.911228" stop-color="#AFA2FF" stop-opacity="0"/>
</linearGradient>
<linearGradient id="paint4_linear_145_1569" x1="106.198" y1="114.029" x2="187.122" y2="46.5813" gradientUnits="userSpaceOnUse">
<stop stop-color="#6557E5" stop-opacity="0"/>
<stop offset="0.461538" stop-color="#6557E5"/>
<stop offset="0.506406" stop-color="#6557E5"/>
<stop offset="1" stop-color="#6557E5" stop-opacity="0"/>
</linearGradient>
</defs>
</svg>
