<svg width="200" height="200" viewBox="0 0 200 200" fill="none" xmlns="http://www.w3.org/2000/svg">
<rect width="200" height="200" fill="white"/>
<path fill-rule="evenodd" clip-rule="evenodd" d="M81.6493 102.459L126.769 67.5806C131.397 63.8602 135.793 62 139.958 62C146.206 62 153.841 62 155.924 62C158.006 62 159.048 63.3951 159.048 64.7903C159.048 66.1854 158.006 67.5806 155.924 67.5806C153.841 67.5806 148.288 67.5806 143.429 67.5806C138.57 67.5806 135.793 69.6733 131.628 73.8587L81.6493 126.874C75.6333 133.85 68.9231 137.221 61.5188 136.989C50.4123 136.64 40 130.362 40 119.201C40 108.736 40 98.2712 40 87.8064C40 86.2674 41.2462 85.0198 42.7835 85.0198H78.8658C80.4031 85.0198 81.6493 86.2674 81.6493 87.8064V102.459Z" fill="#28244B"/>
</svg>
