<svg width="451" height="38" viewBox="0 0 451 38" fill="none" xmlns="http://www.w3.org/2000/svg">
<g clip-path="url(#clip0_140_1382)">
<path d="M85.3709 37.9901C82.6055 37.9901 79.8402 37.4709 77.0748 36.4325C74.3095 35.3941 71.9852 34.0237 70.1021 32.3214L74.2755 26.1677C75.7685 27.5465 77.5117 28.6573 79.5051 29.4999C81.4985 30.3425 83.4368 30.7638 85.32 30.7638C86.9826 30.7638 88.3949 30.4319 89.557 29.768C90.7192 29.1041 91.3002 28.253 91.3002 27.2146C91.3002 26.806 91.2197 26.4358 91.0585 26.1038C90.8973 25.7719 90.6259 25.4697 90.2441 25.1973C89.8624 24.925 89.4977 24.6909 89.1499 24.4952C88.8021 24.2994 88.2889 24.0951 87.6103 23.8823C86.9317 23.6695 86.3845 23.5078 85.9689 23.3972C85.5532 23.2865 84.9213 23.1291 84.073 22.9248C75.6921 20.8991 71.5017 17.0604 71.5017 11.4088C71.5017 8.17446 72.7741 5.56996 75.3189 3.5953C77.8637 1.62064 81.2143 0.633317 85.3709 0.633317C88.0344 0.633317 90.4732 1.04187 92.6872 1.85897C94.9011 2.67606 96.7037 3.74851 98.0949 5.07629L94.3285 11.2556C93.2767 10.2513 91.928 9.43415 90.2823 8.80431C88.6367 8.17446 86.9826 7.85954 85.32 7.85954C83.7083 7.85954 82.385 8.16169 81.3501 8.766C80.3152 9.37032 79.7977 10.1491 79.7977 11.1024C79.7977 11.6642 79.9759 12.1748 80.3321 12.6345C80.6884 13.0941 81.2016 13.4856 81.8718 13.809C82.5419 14.1325 83.229 14.4048 83.933 14.6261C84.6371 14.8474 85.4472 15.0517 86.3633 15.239C86.991 15.3751 87.5763 15.5156 88.1192 15.6603C88.6621 15.805 89.4086 16.0433 90.3587 16.3752C91.3087 16.7072 92.1655 17.0647 92.9289 17.4477C93.6923 17.8307 94.5067 18.3329 95.3719 18.9542C96.2372 19.5755 96.9624 20.2479 97.5477 20.9714C98.133 21.6949 98.6208 22.5631 99.011 23.5759C99.4012 24.5888 99.5963 25.674 99.5963 26.8315C99.5963 28.9935 98.9686 30.9298 97.7131 32.6406C96.4577 34.3514 94.7527 35.6707 92.5981 36.5984C90.4435 37.5262 88.0344 37.9901 85.3709 37.9901ZM144.124 1.27168H152.191V37.3517H144.124V23.0269H129.695V37.3517H121.603V1.27168H129.695V15.3922H144.124V1.27168ZM183.485 29.7169H200.052V37.3517H175.393V1.27168H199.797V8.90644H183.485V15.3922H198.067V23.0269H183.485V29.7169ZM242.609 37.3517L235.203 26.1807H231.31V37.3517H223.217V1.27168H238.817C242.397 1.27168 245.374 2.42072 247.749 4.71881C250.125 7.0169 251.312 9.89377 251.312 13.3494C251.312 16.8051 250.642 19.2141 249.302 21.1121C247.961 23.0102 246.163 24.4018 243.907 25.287L252.305 37.3517H242.609ZM231.31 8.90644V19.1077H238.639C239.877 19.1077 240.917 18.6779 241.756 17.8182C242.596 16.9586 243.124 15.7367 243.124 13.9936C243.124 12.2504 242.6 11.0769 241.769 10.2087C240.938 9.34053 239.894 8.90644 238.639 8.90644H231.31ZM282.04 29.7169H297.377V37.3517H273.948V1.27168H282.04V29.7169ZM338.356 36.5601C336.015 37.5134 333.512 37.9901 330.849 37.9901C328.185 37.9901 325.674 37.5092 323.316 36.5474C320.958 35.5856 318.939 34.2791 317.259 32.6278C315.58 30.9766 314.257 28.9977 313.29 26.6911C312.322 24.3845 311.839 21.9204 311.839 19.2989C311.839 16.6774 312.322 14.2133 313.29 11.9067C314.257 9.60013 315.58 7.62121 317.259 5.96999C318.939 4.31877 320.958 3.01652 323.316 2.06324C325.674 1.10996 328.185 0.633317 330.849 0.633317C334.394 0.633317 337.622 1.44616 340.532 3.07185C343.441 4.69753 345.727 6.93604 347.39 9.78738C349.052 12.6387 349.884 15.8092 349.884 19.2989C349.884 21.9204 349.396 24.3845 348.42 26.6911C347.445 28.9977 346.113 30.9766 344.425 32.6278C342.737 34.2791 340.714 35.5898 338.356 36.5601ZM323.189 27.0869C325.242 29.1467 327.795 30.1765 330.849 30.1765C333.902 30.1765 336.456 29.1424 338.508 27.0741C340.561 25.0058 341.588 22.4141 341.588 19.2989C341.588 16.1837 340.561 13.592 338.508 11.5237C336.456 9.45543 333.902 8.42129 330.849 8.42129C327.795 8.42129 325.242 9.45543 323.189 11.5237C321.136 13.592 320.11 16.1837 320.11 19.2989C320.11 22.4141 321.136 25.0101 323.189 27.0869ZM383.41 37.9901C380.747 37.9901 378.236 37.5092 375.878 36.5474C373.52 35.5856 371.501 34.2791 369.821 32.6278C368.142 30.9766 366.818 28.9977 365.851 26.6911C364.884 24.3845 364.401 21.9204 364.401 19.2989C364.401 16.6774 364.884 14.2133 365.851 11.9067C366.818 9.60013 368.142 7.62121 369.821 5.96999C371.501 4.31877 373.52 3.01652 375.878 2.06324C378.236 1.10996 380.747 0.633317 383.41 0.633317C386.753 0.633317 389.811 1.35253 392.584 2.79097C395.358 4.2294 397.602 6.21683 399.315 8.75324L392.317 13.0941C391.333 11.6471 390.061 10.5066 388.5 9.67247C386.939 8.83835 385.243 8.42129 383.41 8.42129C380.357 8.42129 377.803 9.45543 375.751 11.5237C373.698 13.592 372.671 16.1837 372.671 19.2989C372.671 22.4141 373.698 25.0058 375.751 27.0741C377.803 29.1424 380.357 30.1765 383.41 30.1765C385.26 30.1765 386.96 29.7637 388.513 28.9381C390.065 28.1125 391.333 26.9762 392.317 25.5293L399.315 29.8701C397.602 32.4065 395.358 34.394 392.584 35.8324C389.811 37.2708 386.753 37.9901 383.41 37.9901ZM440.465 37.3517L429.573 24.4824L426.57 27.8785V37.3517H418.478V1.27168H426.57V16.8476L439.956 1.27168H450.211L434.79 18.635L451 37.3517H440.465Z" fill="#28244B"/>
<path fill-rule="evenodd" clip-rule="evenodd" d="M21.2518 20.5115L44.2746 2.69324C46.6359 0.792625 48.8791 -0.157683 51.0043 -0.157683C54.1921 -0.157683 58.0883 -0.157683 59.1508 -0.157683C60.2134 -0.157683 60.7447 0.555048 60.7447 1.26778C60.7447 1.98051 60.2134 2.69324 59.1508 2.69324C58.0883 2.69324 55.2547 2.69324 52.7753 2.69324C50.2959 2.69324 48.8791 3.76234 46.754 5.90053L21.2518 32.9843C18.1821 36.548 14.7582 38.2704 10.9801 38.1516C5.31295 37.9735 0 34.7662 0 29.0643C0 23.7182 0 18.3721 0 13.026C0 12.2397 0.63589 11.6024 1.4203 11.6024H19.8315C20.6159 11.6024 21.2518 12.2397 21.2518 13.026V20.5115Z" fill="white"/>
<path fill-rule="evenodd" clip-rule="evenodd" d="M21.2518 20.5115L44.2746 2.69324C46.6359 0.792625 48.8791 -0.157683 51.0043 -0.157683C54.1921 -0.157683 58.0883 -0.157683 59.1508 -0.157683C60.2134 -0.157683 60.7447 0.555048 60.7447 1.26778C60.7447 1.98051 60.2134 2.69324 59.1508 2.69324C58.0883 2.69324 55.2547 2.69324 52.7753 2.69324C50.2959 2.69324 48.8791 3.76234 46.754 5.90053L21.2518 32.9843C18.1821 36.548 14.7582 38.2704 10.9801 38.1516C5.31295 37.9735 0 34.7662 0 29.0643C0 23.7182 0 18.3721 0 13.026C0 12.2397 0.63589 11.6024 1.4203 11.6024H19.8315C20.6159 11.6024 21.2518 12.2397 21.2518 13.026V20.5115Z" fill="#6557E5"/>
</g>
<defs>
<clipPath id="clip0_140_1382">
<rect width="451" height="38" fill="white"/>
</clipPath>
</defs>
</svg>
