<svg width="1226" height="104" viewBox="0 0 1226 104" fill="none" xmlns="http://www.w3.org/2000/svg">
<g clip-path="url(#clip0_539_2)">
<path d="M231.762 103.545C224.239 103.545 216.715 102.135 209.192 99.3168C201.668 96.4983 195.345 92.7787 190.221 88.1581L201.576 71.4547C205.638 75.1974 210.38 78.2123 215.803 80.4995C221.227 82.7867 226.5 83.9303 231.624 83.9303C236.147 83.9303 239.989 83.0293 243.151 81.2272C246.313 79.4252 247.894 77.1149 247.894 74.2964C247.894 73.1874 247.674 72.1824 247.236 71.2814C246.797 70.3804 246.059 69.5603 245.02 68.821C243.982 68.0817 242.99 67.4463 242.043 66.915C241.097 66.3836 239.701 65.8291 237.855 65.2516C236.008 64.674 234.52 64.235 233.389 63.9347C232.258 63.6344 230.539 63.207 228.231 62.6525C205.43 57.154 194.029 46.7346 194.029 31.3942C194.029 22.6151 197.491 15.5456 204.414 10.1857C211.338 4.82584 220.454 2.1459 231.762 2.1459C239.009 2.1459 245.643 3.25484 251.667 5.47272C257.69 7.6906 262.594 10.6016 266.379 14.2056L256.133 30.9784C253.271 28.2522 249.601 26.0343 245.124 24.3247C240.647 22.6151 236.147 21.7603 231.624 21.7603C227.239 21.7603 223.639 22.5804 220.823 24.2208C218.007 25.8611 216.6 27.975 216.6 30.5625C216.6 32.0873 217.084 33.4735 218.054 34.721C219.023 35.9686 220.419 37.0313 222.242 37.9092C224.065 38.7872 225.935 39.5264 227.85 40.1271C229.766 40.7278 231.97 41.2823 234.462 41.7905C236.17 42.1602 237.762 42.5414 239.239 42.9341C240.716 43.3269 242.747 43.9738 245.332 44.8748C247.917 45.7758 250.248 46.7461 252.325 47.7857C254.402 48.8254 256.617 50.1884 258.971 51.875C261.325 53.5615 263.298 55.3866 264.891 57.3504C266.483 59.3141 267.81 61.6706 268.872 64.4199C269.933 67.1691 270.464 70.1147 270.464 73.2567C270.464 79.1249 268.756 84.3808 265.341 89.0245C261.925 93.6682 257.286 97.2491 251.425 99.7673C245.563 102.286 239.009 103.545 231.762 103.545ZM391.608 3.87862H413.555V101.812H391.608V62.9297H352.352V101.812H330.336V3.87862H352.352V42.2064H391.608V3.87862ZM498.693 81.0886H543.765V101.812H476.677V3.87862H543.073V24.6019H498.693V42.2064H538.365V62.9297H498.693V81.0886ZM659.547 101.812L639.4 71.4901H628.807V101.812H606.79V3.87862H649.231C658.97 3.87862 667.07 6.99751 673.532 13.2353C679.994 19.4731 683.225 27.2819 683.225 36.6617C683.225 46.0415 681.402 52.5804 677.755 57.7323C674.109 62.8843 669.217 66.6616 663.078 69.0643L685.925 101.812H659.547ZM628.807 24.6019V52.2916H648.746C652.116 52.2916 654.943 51.1249 657.227 48.7915C659.512 46.4581 660.949 43.1416 660.949 38.4101C660.949 33.6786 659.524 30.4932 657.262 28.1367C655 25.7802 652.162 24.6019 648.746 24.6019H628.807ZM766.825 81.0886H808.549V101.812H744.808V3.87862H766.825V81.0886ZM920.038 99.6634C913.668 102.251 906.86 103.545 899.614 103.545C892.367 103.545 885.536 102.239 879.12 99.6287C872.705 97.0181 867.212 93.4718 862.642 88.9898C858.073 84.5079 854.473 79.1364 851.842 72.8755C849.211 66.6146 847.896 59.9263 847.896 52.8106C847.896 45.6949 849.211 39.0066 851.842 32.7457C854.473 26.4848 858.073 21.1134 862.642 16.6314C867.212 12.1495 872.705 8.61472 879.12 6.02719C885.536 3.43966 892.367 2.1459 899.614 2.1459C909.26 2.1459 918.041 4.35223 925.957 8.76489C933.873 13.1775 940.093 19.2536 944.616 26.9931C949.139 34.7326 951.401 43.3384 951.401 52.8106C951.401 59.9263 950.074 66.6146 947.42 72.8755C944.766 79.1364 941.143 84.5079 936.55 88.9898C931.958 93.4718 926.453 97.0296 920.038 99.6634ZM878.774 73.9498C884.359 79.5407 891.306 82.3362 899.614 82.3362C907.922 82.3362 914.868 79.5292 920.453 73.9152C926.038 68.3011 928.831 61.2663 928.831 52.8106C928.831 44.355 926.038 37.3201 920.453 31.7061C914.868 26.0921 907.922 23.2851 899.614 23.2851C891.306 23.2851 884.359 26.0921 878.774 31.7061C873.189 37.3201 870.397 44.355 870.397 52.8106C870.397 61.2663 873.189 68.3127 878.774 73.9498ZM1042.61 103.545C1035.37 103.545 1028.54 102.239 1022.12 99.6287C1015.71 97.0181 1010.21 93.4718 1005.64 88.9898C1001.07 84.5079 997.473 79.1364 994.843 72.8755C992.212 66.6146 990.896 59.9263 990.896 52.8106C990.896 45.6949 992.212 39.0066 994.843 32.7457C997.473 26.4848 1001.07 21.1134 1005.64 16.6314C1010.21 12.1495 1015.71 8.61472 1022.12 6.02719C1028.54 3.43966 1035.37 2.1459 1042.61 2.1459C1051.71 2.1459 1060.03 4.0981 1067.57 8.00249C1075.12 11.9069 1081.22 17.3014 1085.89 24.1861L1066.85 35.9686C1064.17 32.0411 1060.71 28.9453 1056.46 26.6812C1052.21 24.4171 1047.6 23.2851 1042.61 23.2851C1034.31 23.2851 1027.36 26.0921 1021.77 31.7061C1016.19 37.3201 1013.4 44.355 1013.4 52.8106C1013.4 61.2663 1016.19 68.3011 1021.77 73.9152C1027.36 79.5292 1034.31 82.3362 1042.61 82.3362C1047.65 82.3362 1052.27 81.2157 1056.5 78.9747C1060.72 76.7337 1064.17 73.6495 1066.85 69.722L1085.89 81.5045C1081.22 88.3892 1075.12 93.7837 1067.57 97.6881C1060.03 101.592 1051.71 103.545 1042.61 103.545ZM1197.84 101.812L1168.2 66.8803L1160.04 76.0984V101.812H1138.02V3.87862H1160.04V46.157L1196.45 3.87862H1224.35L1182.4 51.0086L1226.5 101.812H1197.84Z" fill="black"/>
<path fill-rule="evenodd" clip-rule="evenodd" d="M57.3181 56.1032L119.954 7.73837C126.379 2.57946 132.482 0 138.263 0C146.936 0 157.536 0 160.427 0C163.318 0 164.763 1.93459 164.763 3.86919C164.763 5.80378 163.318 7.73837 160.427 7.73837C157.536 7.73837 149.827 7.73837 143.082 7.73837C136.336 7.73837 132.482 10.6403 126.7 16.444L57.3181 89.9586C48.9666 99.6316 39.6514 104.307 29.3727 103.984C13.9545 103.501 -0.5 94.7951 -0.5 79.3183C-0.5 64.8072 -0.5 50.296 -0.5 35.7849C-0.5 33.6508 1.23001 31.9208 3.3641 31.9208H53.454C55.588 31.9208 57.3181 33.6508 57.3181 35.7849V56.1032Z" fill="black"/>
</g>
<defs>
<clipPath id="clip0_539_2">
<rect width="1226" height="104" fill="white"/>
</clipPath>
</defs>
</svg>
