<svg width="240" height="152" viewBox="0 0 240 152" fill="none" xmlns="http://www.w3.org/2000/svg">
<g clip-path="url(#clip0_539_10)">
<path fill-rule="evenodd" clip-rule="evenodd" d="M83.965 81.997L174.927 11.3099C184.257 3.76998 193.12 0 201.516 0C214.111 0 229.504 0 233.703 0C237.901 0 240 2.82748 240 5.65497C240 8.48245 237.901 11.3099 233.703 11.3099C229.504 11.3099 218.309 11.3099 208.513 11.3099C198.717 11.3099 193.12 15.5512 184.723 24.0336L83.965 131.478C71.8367 145.615 58.309 152.448 43.3819 151.977C20.9913 151.27 0 138.547 0 115.927C0 94.7182 0 73.5096 0 52.301C0 49.1819 2.51238 46.6535 5.61155 46.6535H78.3535C81.4526 46.6535 83.965 49.1819 83.965 52.301V81.997Z" fill="white"/>
</g>
<defs>
<clipPath id="clip0_539_10">
<rect width="240" height="152" fill="white"/>
</clipPath>
</defs>
</svg>
