<svg width="394" height="67" viewBox="0 0 394 67" fill="none" xmlns="http://www.w3.org/2000/svg">
<path d="M0 3.56784C0 1.59738 1.59738 0 3.56784 0H389.591C391.561 0 393.159 1.59738 393.159 3.56784V63.44C393.159 65.4105 391.561 67.0079 389.591 67.0079H3.56784C1.59737 67.0079 0 65.4105 0 63.44V3.56784Z" fill="#1A172F"/>
<path d="M26.8306 41.2476H24.4413L29.8098 26.3294H32.4103L37.7789 41.2476H35.3896L31.172 29.0391H31.0555L26.8306 41.2476ZM27.2312 35.4056H34.9817V37.2995H27.2312V35.4056ZM46.846 36.6075V30.0589H49.0313V41.2476H46.8897V39.31H46.7732C46.5158 39.9073 46.103 40.4051 45.5348 40.8033C44.9715 41.1966 44.2698 41.3933 43.4297 41.3933C42.711 41.3933 42.0748 41.2355 41.5212 40.9198C40.9724 40.5993 40.5402 40.1258 40.2246 39.4994C39.9138 38.8729 39.7584 38.0984 39.7584 37.1757V30.0589H41.9364V36.9135C41.9364 37.6759 42.1476 38.2829 42.5701 38.7345C42.9926 39.1862 43.5414 39.412 44.2164 39.412C44.6243 39.412 45.0298 39.31 45.4329 39.106C45.8408 38.9021 46.1783 38.5937 46.4454 38.1809C46.7173 37.7681 46.8509 37.2437 46.846 36.6075ZM56.1463 41.4661C55.243 41.4661 54.4369 41.2355 53.7279 40.7741C53.0237 40.3079 52.4701 39.6451 52.067 38.7855C51.6688 37.9211 51.4697 36.8843 51.4697 35.6751C51.4697 34.4659 51.6713 33.4316 52.0743 32.572C52.4823 31.7125 53.0407 31.0544 53.7497 30.598C54.4587 30.1415 55.2624 29.9132 56.1608 29.9132C56.8553 29.9132 57.4137 30.0298 57.8362 30.2629C58.2636 30.4911 58.5938 30.7582 58.8269 31.0642C59.0648 31.3701 59.2494 31.6396 59.3805 31.8727H59.5116V26.3294H61.6896V41.2476H59.5626V39.5067H59.3805C59.2494 39.7446 59.06 40.0166 58.8123 40.3225C58.5695 40.6285 58.2344 40.8955 57.8071 41.1238C57.3797 41.352 56.8261 41.4661 56.1463 41.4661ZM56.627 39.6086C57.2535 39.6086 57.7828 39.4435 58.215 39.1133C58.6521 38.7782 58.9823 38.3145 59.2057 37.722C59.4339 37.1296 59.548 36.44 59.548 35.6533C59.548 34.8763 59.4363 34.1964 59.213 33.6137C58.9896 33.0309 58.6618 32.5769 58.2296 32.2515C57.7974 31.9261 57.2632 31.7634 56.627 31.7634C55.9714 31.7634 55.4251 31.9334 54.9881 32.2733C54.551 32.6133 54.2208 33.0771 53.9974 33.6647C53.7789 34.2523 53.6696 34.9151 53.6696 35.6533C53.6696 36.4011 53.7813 37.0737 54.0047 37.671C54.2281 38.2683 54.5583 38.7418 54.9953 39.0915C55.4373 39.4363 55.9811 39.6086 56.627 39.6086ZM64.7982 41.2476V30.0589H66.9762V41.2476H64.7982ZM65.8981 28.3325C65.5193 28.3325 65.194 28.2063 64.922 27.9538C64.6549 27.6964 64.5214 27.3904 64.5214 27.0359C64.5214 26.6766 64.6549 26.3706 64.922 26.1181C65.194 25.8607 65.5193 25.732 65.8981 25.732C66.2769 25.732 66.5999 25.8607 66.8669 26.1181C67.1389 26.3706 67.2749 26.6766 67.2749 27.0359C67.2749 27.3904 67.1389 27.6964 66.8669 27.9538C66.5999 28.2063 66.2769 28.3325 65.8981 28.3325ZM75.1292 30.0589V31.8072H69.0176V30.0589H75.1292ZM70.6566 27.3783H72.8346V37.9624C72.8346 38.3849 72.8977 38.703 73.024 38.9166C73.1503 39.1255 73.313 39.2687 73.5121 39.3464C73.716 39.4193 73.937 39.4557 74.1749 39.4557C74.3498 39.4557 74.5027 39.4435 74.6338 39.4193C74.765 39.395 74.8669 39.3756 74.9398 39.361L75.3331 41.1602C75.2069 41.2088 75.0272 41.2573 74.7941 41.3059C74.561 41.3593 74.2696 41.3884 73.92 41.3933C73.3469 41.403 72.8128 41.301 72.3174 41.0874C71.8221 40.8737 71.4215 40.5435 71.1155 40.0967C70.8096 39.6499 70.6566 39.089 70.6566 38.414V27.3783ZM82.2405 41.4734C81.1381 41.4734 80.1887 41.2379 79.3923 40.7669C78.6008 40.2909 77.9889 39.6232 77.5567 38.7637C77.1293 37.8993 76.9156 36.8867 76.9156 35.7261C76.9156 34.58 77.1293 33.57 77.5567 32.6958C77.9889 31.8217 78.591 31.1394 79.3632 30.6489C80.1402 30.1585 81.0483 29.9132 82.0875 29.9132C82.7188 29.9132 83.3307 30.0176 83.9232 30.2265C84.5156 30.4353 85.0474 30.7631 85.5184 31.2098C85.9895 31.6566 86.361 32.2369 86.6329 32.9508C86.9049 33.6598 87.0408 34.5218 87.0408 35.5367V36.3089H78.1467V34.6772H84.9065C84.9065 34.1041 84.79 33.5967 84.5569 33.1548C84.3238 32.708 83.996 32.3559 83.5735 32.0985C83.1559 31.8411 82.6654 31.7125 82.1021 31.7125C81.4902 31.7125 80.956 31.863 80.4995 32.1641C80.0479 32.4603 79.6983 32.8488 79.4506 33.3296C79.2078 33.8055 79.0864 34.3227 79.0864 34.8811V36.1559C79.0864 36.9037 79.2175 37.5399 79.4797 38.0644C79.7468 38.5888 80.1183 38.9895 80.5942 39.2663C81.0701 39.5382 81.6262 39.6742 82.2623 39.6742C82.6751 39.6742 83.0515 39.6159 83.3914 39.4994C83.7313 39.378 84.0251 39.1983 84.2728 38.9603C84.5205 38.7224 84.7099 38.4286 84.841 38.0789L86.9024 38.4504C86.7373 39.0575 86.4411 39.5892 86.0138 40.0457C85.5913 40.4973 85.0595 40.8494 84.4185 41.1019C83.7823 41.3496 83.0563 41.4734 82.2405 41.4734ZM93.6459 41.4661C92.7426 41.4661 91.9365 41.2355 91.2275 40.7741C90.5233 40.3079 89.9697 39.6451 89.5667 38.7855C89.1685 37.9211 88.9694 36.8843 88.9694 35.6751C88.9694 34.4659 89.1709 33.4316 89.574 32.572C89.9819 31.7125 90.5403 31.0544 91.2494 30.598C91.9584 30.1415 92.7621 29.9132 93.6605 29.9132C94.3549 29.9132 94.9134 30.0298 95.3358 30.2629C95.7632 30.4911 96.0934 30.7582 96.3265 31.0642C96.5645 31.3701 96.749 31.6396 96.8801 31.8727H97.0112V26.3294H99.1892V41.2476H97.0622V39.5067H96.8801C96.749 39.7446 96.5596 40.0166 96.3119 40.3225C96.0691 40.6285 95.7341 40.8955 95.3067 41.1238C94.8794 41.352 94.3258 41.4661 93.6459 41.4661ZM94.1267 39.6086C94.7531 39.6086 95.2824 39.4435 95.7146 39.1133C96.1517 38.7782 96.4819 38.3145 96.7053 37.722C96.9335 37.1296 97.0477 36.44 97.0477 35.6533C97.0477 34.8763 96.936 34.1964 96.7126 33.6137C96.4892 33.0309 96.1614 32.5769 95.7292 32.2515C95.297 31.9261 94.7628 31.7634 94.1267 31.7634C93.4711 31.7634 92.9247 31.9334 92.4877 32.2733C92.0506 32.6133 91.7204 33.0771 91.497 33.6647C91.2785 34.2523 91.1692 34.9151 91.1692 35.6533C91.1692 36.4011 91.2809 37.0737 91.5043 37.671C91.7277 38.2683 92.0579 38.7418 92.495 39.0915C92.9369 39.4363 93.4808 39.6086 94.1267 39.6086ZM107.901 41.2476V26.3294H110.079V31.8727H110.21C110.337 31.6396 110.519 31.3701 110.757 31.0642C110.995 30.7582 111.325 30.4911 111.747 30.2629C112.17 30.0298 112.728 29.9132 113.423 29.9132C114.326 29.9132 115.132 30.1415 115.841 30.598C116.55 31.0544 117.106 31.7125 117.509 32.572C117.917 33.4316 118.121 34.4659 118.121 35.6751C118.121 36.8843 117.92 37.9211 117.517 38.7855C117.114 39.6451 116.56 40.3079 115.856 40.7741C115.152 41.2355 114.348 41.4661 113.445 41.4661C112.765 41.4661 112.209 41.352 111.777 41.1238C111.349 40.8955 111.014 40.6285 110.771 40.3225C110.528 40.0166 110.342 39.7446 110.21 39.5067H110.028V41.2476H107.901ZM110.036 35.6533C110.036 36.44 110.15 37.1296 110.378 37.722C110.606 38.3145 110.936 38.7782 111.369 39.1133C111.801 39.4435 112.33 39.6086 112.957 39.6086C113.607 39.6086 114.151 39.4363 114.588 39.0915C115.025 38.7418 115.356 38.2683 115.579 37.671C115.807 37.0737 115.921 36.4011 115.921 35.6533C115.921 34.9151 115.81 34.2523 115.586 33.6647C115.368 33.0771 115.037 32.6133 114.596 32.2733C114.159 31.9334 113.612 31.7634 112.957 31.7634C112.325 31.7634 111.791 31.9261 111.354 32.2515C110.922 32.5769 110.594 33.0309 110.371 33.6137C110.147 34.1964 110.036 34.8763 110.036 35.6533ZM121.563 45.4434C121.238 45.4434 120.941 45.4167 120.674 45.3633C120.407 45.3147 120.208 45.2613 120.077 45.203L120.601 43.4183C121 43.5252 121.354 43.5713 121.665 43.5567C121.976 43.5422 122.25 43.4256 122.488 43.2071C122.731 42.9886 122.945 42.6316 123.129 42.1363L123.399 41.3933L119.305 30.0589H121.636L124.469 38.7418H124.586L127.42 30.0589H129.758L125.147 42.7409C124.933 43.3236 124.661 43.8166 124.331 44.2196C124.001 44.6275 123.607 44.9335 123.151 45.1374C122.695 45.3414 122.165 45.4434 121.563 45.4434Z" fill="white"/>
<rect x="148.375" y="9.57254" width="235.211" height="47.8628" rx="3.41877" fill="#6557E5"/>
<path fill-rule="evenodd" clip-rule="evenodd" d="M176.04 34.1696L186.179 26.3226C187.219 25.4856 188.207 25.0671 189.143 25.0671C190.547 25.0671 192.263 25.0671 192.731 25.0671C193.199 25.0671 193.433 25.381 193.433 25.6948C193.433 26.0087 193.199 26.3226 192.731 26.3226C192.263 26.3226 191.015 26.3226 189.923 26.3226C188.831 26.3226 188.207 26.7934 187.271 27.7351L176.04 39.6625C174.688 41.2319 173.181 41.9905 171.517 41.9382C169.021 41.8597 166.681 40.4472 166.681 37.9362C166.681 35.5818 166.681 33.2274 166.681 30.873C166.681 30.5268 166.961 30.2461 167.307 30.2461H175.415C175.76 30.2461 176.04 30.5268 176.04 30.873V34.1696Z" fill="#6557E5"/>
<path fill-rule="evenodd" clip-rule="evenodd" d="M176.04 34.1696L186.179 26.3226C187.219 25.4856 188.207 25.0671 189.143 25.0671C190.547 25.0671 192.263 25.0671 192.731 25.0671C193.199 25.0671 193.433 25.381 193.433 25.6948C193.433 26.0087 193.199 26.3226 192.731 26.3226C192.263 26.3226 191.015 26.3226 189.923 26.3226C188.831 26.3226 188.207 26.7934 187.271 27.7351L176.04 39.6625C174.688 41.2319 173.181 41.9905 171.517 41.9382C169.021 41.8597 166.681 40.4472 166.681 37.9362C166.681 35.5818 166.681 33.2274 166.681 30.873C166.681 30.5268 166.961 30.2461 167.307 30.2461H175.415C175.76 30.2461 176.04 30.5268 176.04 30.873V34.1696Z" fill="white"/>
<path d="M204.259 41.7297C203.042 41.7297 201.824 41.501 200.606 41.0437C199.388 40.5864 198.364 39.9829 197.535 39.2332L199.373 36.5232C200.031 37.1304 200.798 37.6196 201.676 37.9907C202.554 38.3618 203.408 38.5473 204.237 38.5473C204.969 38.5473 205.591 38.4011 206.103 38.1087C206.615 37.8164 206.871 37.4415 206.871 36.9842C206.871 36.8043 206.835 36.6413 206.764 36.4951C206.693 36.3489 206.574 36.2158 206.406 36.0959C206.237 35.9759 206.077 35.8728 205.924 35.7866C205.77 35.7004 205.544 35.6105 205.246 35.5167C204.947 35.423 204.706 35.3518 204.523 35.3031C204.34 35.2544 204.061 35.185 203.688 35.0951C199.997 34.2029 198.152 32.5124 198.152 30.0235C198.152 28.5991 198.712 27.4521 199.833 26.5825C200.953 25.7129 202.429 25.2781 204.259 25.2781C205.432 25.2781 206.506 25.458 207.481 25.8178C208.456 26.1777 209.25 26.65 209.863 27.2347L208.204 29.956C207.741 29.5137 207.147 29.1539 206.422 28.8765C205.698 28.5991 204.969 28.4604 204.237 28.4604C203.527 28.4604 202.944 28.5935 202.489 28.8596C202.033 29.1258 201.805 29.4688 201.805 29.8886C201.805 30.136 201.884 30.3609 202.04 30.5633C202.197 30.7657 202.423 30.9381 202.718 31.0805C203.014 31.223 203.316 31.3429 203.626 31.4404C203.936 31.5379 204.293 31.6278 204.696 31.7103C204.973 31.7702 205.231 31.8321 205.47 31.8958C205.709 31.9595 206.038 32.0645 206.456 32.2107C206.874 32.3569 207.252 32.5143 207.588 32.683C207.924 32.8517 208.283 33.0728 208.664 33.3464C209.045 33.6201 209.364 33.9162 209.622 34.2348C209.88 34.5534 210.095 34.9357 210.266 35.3818C210.438 35.8279 210.524 36.3058 210.524 36.8156C210.524 37.7676 210.248 38.6204 209.695 39.3738C209.142 40.1272 208.391 40.7082 207.442 41.1168C206.493 41.5254 205.432 41.7297 204.259 41.7297ZM230.134 25.5592H233.687V41.4485H230.134V35.14H223.78V41.4485H220.216V25.5592H223.78V31.7777H230.134V25.5592ZM247.468 38.0862H254.764V41.4485H243.904V25.5592H254.652V28.9215H247.468V31.7777H253.89V35.14H247.468V38.0862ZM273.506 41.4485L270.244 36.5289H268.53V41.4485H264.966V25.5592H271.836C273.412 25.5592 274.723 26.0652 275.769 27.0773C276.815 28.0894 277.338 29.3563 277.338 30.8781C277.338 32.4 277.043 33.4609 276.453 34.2968C275.863 35.1327 275.071 35.7455 274.077 36.1353L277.776 41.4485H273.506ZM268.53 28.9215V33.414H271.757C272.303 33.414 272.76 33.2247 273.13 32.8462C273.5 32.4676 273.733 31.9295 273.733 31.1618C273.733 30.3941 273.502 29.8773 273.136 29.495C272.77 29.1127 272.31 28.9215 271.757 28.9215H268.53ZM290.871 38.0862H297.625V41.4485H287.307V25.5592H290.871V38.0862ZM315.672 41.0999C314.641 41.5198 313.539 41.7297 312.366 41.7297C311.193 41.7297 310.087 41.5179 309.048 41.0943C308.01 40.6707 307.121 40.0954 306.381 39.3682C305.641 38.641 305.059 37.7695 304.633 36.7537C304.207 35.7379 303.994 34.6527 303.994 33.4982C303.994 32.3437 304.207 31.2586 304.633 30.2428C305.059 29.227 305.641 28.3555 306.381 27.6283C307.121 26.9011 308.01 26.3276 309.048 25.9078C310.087 25.488 311.193 25.2781 312.366 25.2781C313.927 25.2781 315.349 25.636 316.63 26.352C317.911 27.0679 318.918 28.0537 319.65 29.3094C320.382 30.5651 320.749 31.9614 320.749 33.4982C320.749 34.6527 320.534 35.7379 320.104 36.7537C319.675 37.7695 319.088 38.641 318.345 39.3682C317.601 40.0954 316.71 40.6726 315.672 41.0999ZM308.992 36.928C309.896 37.8351 311.021 38.2887 312.366 38.2887C313.711 38.2887 314.835 37.8332 315.739 36.9224C316.643 36.0115 317.095 34.8701 317.095 33.4982C317.095 32.1263 316.643 30.985 315.739 30.0741C314.835 29.1633 313.711 28.7078 312.366 28.7078C311.021 28.7078 309.896 29.1633 308.992 30.0741C308.088 30.985 307.636 32.1263 307.636 33.4982C307.636 34.8701 308.088 36.0134 308.992 36.928ZM335.513 41.7297C334.34 41.7297 333.235 41.5179 332.196 41.0943C331.158 40.6707 330.269 40.0954 329.529 39.3682C328.789 38.641 328.206 37.7695 327.781 36.7537C327.355 35.7379 327.142 34.6527 327.142 33.4982C327.142 32.3437 327.355 31.2586 327.781 30.2428C328.206 29.227 328.789 28.3555 329.529 27.6283C330.269 26.9011 331.158 26.3276 332.196 25.9078C333.235 25.488 334.34 25.2781 335.513 25.2781C336.985 25.2781 338.332 25.5948 339.554 26.2283C340.775 26.8618 341.763 27.737 342.518 28.854L339.436 30.7657C339.003 30.1285 338.442 29.6262 337.755 29.2588C337.067 28.8915 336.32 28.7078 335.513 28.7078C334.169 28.7078 333.044 29.1633 332.14 30.0741C331.236 30.985 330.784 32.1263 330.784 33.4982C330.784 34.8701 331.236 36.0115 332.14 36.9224C333.044 37.8332 334.169 38.2887 335.513 38.2887C336.328 38.2887 337.077 38.1069 337.76 37.7433C338.444 37.3797 339.003 36.8793 339.436 36.2421L342.518 38.1537C341.763 39.2707 340.775 40.146 339.554 40.7795C338.332 41.4129 336.985 41.7297 335.513 41.7297ZM360.64 41.4485L355.843 35.781L354.521 37.2766V41.4485H350.957V25.5592H354.521V32.4187L360.415 25.5592H364.932L358.14 33.2059L365.279 41.4485H360.64Z" fill="white"/>
</svg>
