<svg width="373" height="67" viewBox="0 0 373 67" fill="none" xmlns="http://www.w3.org/2000/svg">
<path d="M0 3.56784C0 1.59738 1.59738 0 3.56784 0H369.078C371.049 0 372.646 1.59738 372.646 3.56784V63.44C372.646 65.4105 371.049 67.0079 369.078 67.0079H3.56784C1.59738 67.0079 0 65.4105 0 63.44V3.56784Z" fill="#6557E5"/>
<path d="M26.8303 41.2476H24.4411L29.8096 26.3294H32.4101L37.7786 41.2476H35.3894L31.1718 29.0391H31.0552L26.8303 41.2476ZM27.2309 35.4056H34.9815V37.2995H27.2309V35.4056ZM46.8458 36.6075V30.0589H49.0311V41.2476H46.8895V39.31H46.7729C46.5156 39.9073 46.1028 40.4051 45.5346 40.8033C44.9713 41.1966 44.2696 41.3933 43.4294 41.3933C42.7107 41.3933 42.0745 41.2355 41.5209 40.9198C40.9722 40.5993 40.54 40.1258 40.2243 39.4994C39.9135 38.8729 39.7581 38.0984 39.7581 37.1757V30.0589H41.9361V36.9135C41.9361 37.6759 42.1474 38.2829 42.5699 38.7345C42.9924 39.1862 43.5411 39.412 44.2161 39.412C44.6241 39.412 45.0296 39.31 45.4326 39.106C45.8405 38.9021 46.178 38.5937 46.4451 38.1809C46.7171 37.7681 46.8506 37.2437 46.8458 36.6075ZM56.146 41.4661C55.2428 41.4661 54.4366 41.2355 53.7276 40.7741C53.0235 40.3079 52.4699 39.6451 52.0668 38.7855C51.6686 37.9211 51.4695 36.8843 51.4695 35.6751C51.4695 34.4659 51.671 33.4316 52.0741 32.572C52.482 31.7125 53.0405 31.0544 53.7495 30.598C54.4585 30.1415 55.2622 29.9132 56.1606 29.9132C56.855 29.9132 57.4135 30.0298 57.836 30.2629C58.2633 30.4911 58.5935 30.7582 58.8266 31.0642C59.0646 31.3701 59.2491 31.6396 59.3803 31.8727H59.5114V26.3294H61.6894V41.2476H59.5624V39.5067H59.3803C59.2491 39.7446 59.0597 40.0166 58.8121 40.3225C58.5693 40.6285 58.2342 40.8955 57.8068 41.1238C57.3795 41.352 56.8259 41.4661 56.146 41.4661ZM56.6268 39.6086C57.2532 39.6086 57.7826 39.4435 58.2148 39.1133C58.6518 38.7782 58.982 38.3145 59.2054 37.722C59.4337 37.1296 59.5478 36.44 59.5478 35.6533C59.5478 34.8763 59.4361 34.1964 59.2127 33.6137C58.9893 33.0309 58.6615 32.5769 58.2293 32.2515C57.7971 31.9261 57.2629 31.7634 56.6268 31.7634C55.9712 31.7634 55.4249 31.9334 54.9878 32.2733C54.5508 32.6133 54.2205 33.0771 53.9971 33.6647C53.7786 34.2523 53.6694 34.9151 53.6694 35.6533C53.6694 36.4011 53.781 37.0737 54.0044 37.671C54.2278 38.2683 54.558 38.7418 54.9951 39.0915C55.437 39.4363 55.9809 39.6086 56.6268 39.6086ZM64.798 41.2476V30.0589H66.976V41.2476H64.798ZM65.8979 28.3325C65.5191 28.3325 65.1937 28.2063 64.9218 27.9538C64.6547 27.6964 64.5212 27.3904 64.5212 27.0359C64.5212 26.6766 64.6547 26.3706 64.9218 26.1181C65.1937 25.8607 65.5191 25.732 65.8979 25.732C66.2767 25.732 66.5996 25.8607 66.8667 26.1181C67.1386 26.3706 67.2746 26.6766 67.2746 27.0359C67.2746 27.3904 67.1386 27.6964 66.8667 27.9538C66.5996 28.2063 66.2767 28.3325 65.8979 28.3325ZM75.1289 30.0589V31.8072H69.0174V30.0589H75.1289ZM70.6564 27.3783H72.8344V37.9624C72.8344 38.3849 72.8975 38.703 73.0238 38.9166C73.15 39.1255 73.3127 39.2687 73.5118 39.3464C73.7158 39.4193 73.9367 39.4557 74.1747 39.4557C74.3495 39.4557 74.5025 39.4435 74.6336 39.4193C74.7647 39.395 74.8667 39.3756 74.9395 39.361L75.3329 41.1602C75.2066 41.2088 75.0269 41.2573 74.7939 41.3059C74.5608 41.3593 74.2694 41.3884 73.9197 41.3933C73.3467 41.403 72.8125 41.301 72.3172 41.0874C71.8219 40.8737 71.4212 40.5435 71.1153 40.0967C70.8093 39.6499 70.6564 39.089 70.6564 38.414V27.3783ZM82.2402 41.4734C81.1379 41.4734 80.1885 41.2379 79.3921 40.7669C78.6005 40.2909 77.9886 39.6232 77.5564 38.7637C77.1291 37.8993 76.9154 36.8867 76.9154 35.7261C76.9154 34.58 77.1291 33.57 77.5564 32.6958C77.9886 31.8217 78.5908 31.1394 79.3629 30.6489C80.1399 30.1585 81.048 29.9132 82.0873 29.9132C82.7186 29.9132 83.3305 30.0176 83.9229 30.2265C84.5154 30.4353 85.0471 30.7631 85.5182 31.2098C85.9892 31.6566 86.3607 32.2369 86.6327 32.9508C86.9046 33.6598 87.0406 34.5218 87.0406 35.5367V36.3089H78.1465V34.6772H84.9063C84.9063 34.1041 84.7897 33.5967 84.5566 33.1548C84.3235 32.708 83.9958 32.3559 83.5733 32.0985C83.1556 31.8411 82.6652 31.7125 82.1018 31.7125C81.49 31.7125 80.9558 31.863 80.4993 32.1641C80.0477 32.4603 79.698 32.8488 79.4503 33.3296C79.2075 33.8055 79.0861 34.3227 79.0861 34.8811V36.1559C79.0861 36.9037 79.2172 37.5399 79.4795 38.0644C79.7466 38.5888 80.1181 38.9895 80.594 39.2663C81.0699 39.5382 81.6259 39.6742 82.2621 39.6742C82.6749 39.6742 83.0512 39.6159 83.3912 39.4994C83.7311 39.378 84.0249 39.1983 84.2726 38.9603C84.5202 38.7224 84.7096 38.4286 84.8407 38.0789L86.9022 38.4504C86.7371 39.0575 86.4409 39.5892 86.0135 40.0457C85.591 40.4973 85.0593 40.8494 84.4182 41.1019C83.7821 41.3496 83.0561 41.4734 82.2402 41.4734ZM93.6456 41.4661C92.7424 41.4661 91.9363 41.2355 91.2273 40.7741C90.5231 40.3079 89.9695 39.6451 89.5664 38.7855C89.1682 37.9211 88.9691 36.8843 88.9691 35.6751C88.9691 34.4659 89.1706 33.4316 89.5737 32.572C89.9816 31.7125 90.5401 31.0544 91.2491 30.598C91.9581 30.1415 92.7618 29.9132 93.6602 29.9132C94.3547 29.9132 94.9131 30.0298 95.3356 30.2629C95.763 30.4911 96.0932 30.7582 96.3263 31.0642C96.5642 31.3701 96.7488 31.6396 96.8799 31.8727H97.011V26.3294H99.189V41.2476H97.062V39.5067H96.8799C96.7488 39.7446 96.5594 40.0166 96.3117 40.3225C96.0689 40.6285 95.7338 40.8955 95.3065 41.1238C94.8791 41.352 94.3255 41.4661 93.6456 41.4661ZM94.1264 39.6086C94.7529 39.6086 95.2822 39.4435 95.7144 39.1133C96.1514 38.7782 96.4817 38.3145 96.7051 37.722C96.9333 37.1296 97.0474 36.44 97.0474 35.6533C97.0474 34.8763 96.9357 34.1964 96.7123 33.6137C96.489 33.0309 96.1612 32.5769 95.729 32.2515C95.2968 31.9261 94.7626 31.7634 94.1264 31.7634C93.4708 31.7634 92.9245 31.9334 92.4874 32.2733C92.0504 32.6133 91.7202 33.0771 91.4968 33.6647C91.2782 34.2523 91.169 34.9151 91.169 35.6533C91.169 36.4011 91.2807 37.0737 91.5041 37.671C91.7274 38.2683 92.0577 38.7418 92.4947 39.0915C92.9366 39.4363 93.4805 39.6086 94.1264 39.6086ZM107.901 41.2476V26.3294H110.079V31.8727H110.21C110.336 31.6396 110.519 31.3701 110.756 31.0642C110.994 30.7582 111.325 30.4911 111.747 30.2629C112.17 30.0298 112.728 29.9132 113.423 29.9132C114.326 29.9132 115.132 30.1415 115.841 30.598C116.55 31.0544 117.106 31.7125 117.509 32.572C117.917 33.4316 118.121 34.4659 118.121 35.6751C118.121 36.8843 117.919 37.9211 117.516 38.7855C117.113 39.6451 116.56 40.3079 115.856 40.7741C115.151 41.2355 114.348 41.4661 113.444 41.4661C112.765 41.4661 112.209 41.352 111.776 41.1238C111.349 40.8955 111.014 40.6285 110.771 40.3225C110.528 40.0166 110.341 39.7446 110.21 39.5067H110.028V41.2476H107.901ZM110.035 35.6533C110.035 36.44 110.149 37.1296 110.378 37.722C110.606 38.3145 110.936 38.7782 111.368 39.1133C111.801 39.4435 112.33 39.6086 112.956 39.6086C113.607 39.6086 114.151 39.4363 114.588 39.0915C115.025 38.7418 115.355 38.2683 115.579 37.671C115.807 37.0737 115.921 36.4011 115.921 35.6533C115.921 34.9151 115.809 34.2523 115.586 33.6647C115.367 33.0771 115.037 32.6133 114.595 32.2733C114.158 31.9334 113.612 31.7634 112.956 31.7634C112.325 31.7634 111.791 31.9261 111.354 32.2515C110.922 32.5769 110.594 33.0309 110.37 33.6137C110.147 34.1964 110.035 34.8763 110.035 35.6533ZM121.563 45.4434C121.237 45.4434 120.941 45.4167 120.674 45.3633C120.407 45.3147 120.208 45.2613 120.077 45.203L120.601 43.4183C120.999 43.5252 121.354 43.5713 121.665 43.5567C121.976 43.5422 122.25 43.4256 122.488 43.2071C122.731 42.9886 122.944 42.6316 123.129 42.1363L123.398 41.3933L119.305 30.0589H121.636L124.469 38.7418H124.586L127.419 30.0589H129.758L125.147 42.7409C124.933 43.3236 124.661 43.8166 124.331 44.2196C124.001 44.6275 123.607 44.9335 123.151 45.1374C122.694 45.3414 122.165 45.4434 121.563 45.4434Z" fill="white"/>
<path d="M185.971 41.8669C184.753 41.8669 183.536 41.6382 182.318 41.1809C181.1 40.7236 180.076 40.1202 179.247 39.3705L181.085 36.6604C181.743 37.2677 182.51 37.7568 183.388 38.1279C184.266 38.499 185.12 38.6845 185.949 38.6845C186.681 38.6845 187.303 38.5383 187.815 38.246C188.327 37.9536 188.583 37.5788 188.583 37.1215C188.583 36.9415 188.547 36.7785 188.476 36.6323C188.405 36.4861 188.286 36.3531 188.117 36.2331C187.949 36.1132 187.789 36.0101 187.636 35.9239C187.482 35.8376 187.256 35.7477 186.958 35.654C186.659 35.5603 186.418 35.4891 186.235 35.4403C186.052 35.3916 185.773 35.3222 185.4 35.2323C181.709 34.3402 179.863 32.6497 179.863 30.1607C179.863 28.7364 180.424 27.5894 181.545 26.7197C182.665 25.8501 184.141 25.4153 185.971 25.4153C187.144 25.4153 188.218 25.5952 189.193 25.9551C190.168 26.3149 190.962 26.7872 191.575 27.372L189.916 30.0933C189.453 29.651 188.859 29.2911 188.134 29.0137C187.41 28.7364 186.681 28.5977 185.949 28.5977C185.239 28.5977 184.656 28.7307 184.201 28.9969C183.745 29.263 183.517 29.606 183.517 30.0258C183.517 30.2732 183.595 30.4981 183.752 30.7005C183.909 30.9029 184.135 31.0753 184.43 31.2178C184.725 31.3602 185.028 31.4802 185.338 31.5776C185.648 31.6751 186.005 31.765 186.408 31.8475C186.685 31.9075 186.943 31.9693 187.182 32.0331C187.421 32.0968 187.75 32.2017 188.168 32.3479C188.586 32.4941 188.964 32.6515 189.3 32.8202C189.636 32.9889 189.995 33.21 190.376 33.4837C190.757 33.7573 191.076 34.0534 191.334 34.372C191.592 34.6906 191.806 35.073 191.978 35.519C192.15 35.9651 192.236 36.443 192.236 36.9528C192.236 37.9049 191.96 38.7576 191.407 39.5111C190.854 40.2645 190.103 40.8455 189.154 41.254C188.205 41.6626 187.144 41.8669 185.971 41.8669ZM211.846 25.6964H215.399V41.5858H211.846V35.2773H205.491V41.5858H201.928V25.6964H205.491V31.915H211.846V25.6964ZM229.18 38.2235H236.476V41.5858H225.616V25.6964H236.364V29.0587H229.18V31.915H235.602V35.2773H229.18V38.2235ZM255.218 41.5858L251.956 36.6662H250.242V41.5858H246.678V25.6964H253.548C255.124 25.6964 256.435 26.2025 257.481 27.2145C258.527 28.2266 259.05 29.4935 259.05 31.0154C259.05 32.5372 258.755 33.5981 258.165 34.434C257.575 35.2699 256.783 35.8828 255.789 36.2726L259.487 41.5858H255.218ZM250.242 29.0587V33.5513H253.469C254.015 33.5513 254.472 33.362 254.842 32.9834C255.212 32.6048 255.445 32.0667 255.445 31.2991C255.445 30.5314 255.214 30.0146 254.848 29.6322C254.482 29.2499 254.022 29.0587 253.469 29.0587H250.242ZM272.583 38.2235H279.337V41.5858H269.019V25.6964H272.583V38.2235ZM297.384 41.2372C296.353 41.657 295.251 41.8669 294.078 41.8669C292.905 41.8669 291.799 41.6551 290.76 41.2316C289.722 40.808 288.833 40.2326 288.093 39.5054C287.353 38.7782 286.771 37.9067 286.345 36.8909C285.919 35.8751 285.706 34.79 285.706 33.6355C285.706 32.481 285.919 31.3958 286.345 30.38C286.771 29.3642 287.353 28.4927 288.093 27.7655C288.833 27.0384 289.722 26.4649 290.76 26.045C291.799 25.6252 292.905 25.4153 294.078 25.4153C295.639 25.4153 297.061 25.7733 298.342 26.4892C299.623 27.2052 300.63 28.191 301.362 29.4467C302.094 30.7024 302.46 32.0987 302.46 33.6355C302.46 34.79 302.246 35.8751 301.816 36.8909C301.386 37.9067 300.8 38.7782 300.057 39.5054C299.313 40.2326 298.422 40.8099 297.384 41.2372ZM290.704 37.0652C291.608 37.9723 292.733 38.4259 294.078 38.4259C295.422 38.4259 296.547 37.9705 297.451 37.0596C298.355 36.1488 298.807 35.0074 298.807 33.6355C298.807 32.2636 298.355 31.1222 297.451 30.2114C296.547 29.3005 295.422 28.8451 294.078 28.8451C292.733 28.8451 291.608 29.3005 290.704 30.2114C289.8 31.1222 289.348 32.2636 289.348 33.6355C289.348 35.0074 289.8 36.1506 290.704 37.0652ZM317.225 41.8669C316.052 41.8669 314.947 41.6551 313.908 41.2316C312.87 40.808 311.98 40.2326 311.241 39.5054C310.501 38.7782 309.918 37.9067 309.492 36.8909C309.067 35.8751 308.854 34.79 308.854 33.6355C308.854 32.481 309.067 31.3958 309.492 30.38C309.918 29.3642 310.501 28.4927 311.241 27.7655C311.98 27.0384 312.87 26.4649 313.908 26.045C314.947 25.6252 316.052 25.4153 317.225 25.4153C318.697 25.4153 320.044 25.7321 321.266 26.3655C322.487 26.999 323.475 27.8742 324.23 28.9913L321.148 30.9029C320.714 30.2657 320.154 29.7634 319.467 29.3961C318.779 29.0287 318.032 28.8451 317.225 28.8451C315.88 28.8451 314.756 29.3005 313.852 30.2114C312.948 31.1222 312.496 32.2636 312.496 33.6355C312.496 35.0074 312.948 36.1488 313.852 37.0596C314.756 37.9705 315.88 38.4259 317.225 38.4259C318.04 38.4259 318.789 38.2441 319.472 37.8805C320.156 37.5169 320.714 37.0165 321.148 36.3793L324.23 38.291C323.475 39.408 322.487 40.2832 321.266 40.9167C320.044 41.5502 318.697 41.8669 317.225 41.8669ZM342.352 41.5858L337.555 35.9182L336.232 37.4138V41.5858H332.669V25.6964H336.232V32.556L342.127 25.6964H346.644L339.852 33.3431L346.991 41.5858H342.352Z" fill="white"/>
<path fill-rule="evenodd" clip-rule="evenodd" d="M157.734 34.1695L167.873 26.3224C168.913 25.4854 169.9 25.0669 170.836 25.0669C172.24 25.0669 173.956 25.0669 174.424 25.0669C174.892 25.0669 175.126 25.3808 175.126 25.6947C175.126 26.0086 174.892 26.3224 174.424 26.3224C173.956 26.3224 172.708 26.3224 171.616 26.3224C170.524 26.3224 169.9 26.7933 168.965 27.7349L157.734 39.6624C156.382 41.2318 154.874 41.9903 153.21 41.938C150.714 41.8595 148.375 40.4471 148.375 37.936C148.375 35.5817 148.375 33.2273 148.375 30.8729C148.375 30.5266 148.655 30.246 149 30.246H157.108C157.454 30.246 157.734 30.5266 157.734 30.8729V34.1695Z" fill="#6557E5"/>
<path fill-rule="evenodd" clip-rule="evenodd" d="M157.734 34.1695L167.873 26.3224C168.913 25.4854 169.9 25.0669 170.836 25.0669C172.24 25.0669 173.956 25.0669 174.424 25.0669C174.892 25.0669 175.126 25.3808 175.126 25.6947C175.126 26.0086 174.892 26.3224 174.424 26.3224C173.956 26.3224 172.708 26.3224 171.616 26.3224C170.524 26.3224 169.9 26.7933 168.965 27.7349L157.734 39.6624C156.382 41.2318 154.874 41.9903 153.21 41.938C150.714 41.8595 148.375 40.4471 148.375 37.936C148.375 35.5817 148.375 33.2273 148.375 30.8729C148.375 30.5266 148.655 30.246 149 30.246H157.108C157.454 30.246 157.734 30.5266 157.734 30.8729V34.1695Z" fill="white"/>
</svg>
